<svg xmlns="http://www.w3.org/2000/svg" width="1012" height="57" viewBox="0 0 1012 57" fill="none"><mask id="path-1-outside-1_119_53" maskUnits="userSpaceOnUse" x="0.921387" y="0" width="1011" height="57" fill="black"><rect fill="white" x="0.921387" width="1011" height="57"></rect><path d="M17.2014 4.056V40.248H47.1534V52.056H3.92139V4.056H17.2014Z"></path><path d="M115.932 52.056H101.788L97.7884 42.808H72.9884L68.9884 52.056H54.8124L76.6684 4.056H94.1084L115.932 52.056ZM85.3724 14.168L77.5964 32.152H93.1804L85.3724 14.168Z"></path><path d="M135.831 36.312C136.13 38.3387 137.346 39.9387 139.479 41.112C141.613 42.264 144.429 42.84 147.927 42.84C151.213 42.84 153.773 42.4133 155.607 41.56C157.463 40.7067 158.391 39.4907 158.391 37.912C158.391 37.0587 158.157 36.3547 157.687 35.8C157.218 35.224 156.418 34.7547 155.287 34.392C154.178 34.0293 152.631 33.752 150.647 33.56L141.751 32.728C135.202 32.1307 130.413 30.6587 127.383 28.312C124.375 25.944 122.871 22.6587 122.871 18.456C122.871 15.192 123.831 12.408 125.751 10.104C127.671 7.77867 130.381 6.01867 133.879 4.824C137.399 3.608 141.527 3 146.263 3C150.829 3 154.914 3.66133 158.519 4.984C162.125 6.30667 164.973 8.16267 167.063 10.552C169.175 12.9413 170.338 15.704 170.551 18.84H157.047C156.813 17.112 155.725 15.7573 153.783 14.776C151.863 13.7733 149.271 13.272 146.007 13.272C142.978 13.272 140.599 13.6773 138.871 14.488C137.165 15.2987 136.311 16.4507 136.311 17.944C136.311 19.1173 136.845 20.0347 137.911 20.696C138.978 21.336 140.845 21.7947 143.511 22.072L153.079 23C157.623 23.4267 161.261 24.1627 163.991 25.208C166.722 26.2533 168.706 27.6827 169.943 29.496C171.181 31.3093 171.799 33.6027 171.799 36.376C171.799 39.704 170.797 42.6373 168.791 45.176C166.786 47.6933 163.959 49.6453 160.311 51.032C156.663 52.4187 152.45 53.112 147.671 53.112C142.743 53.112 138.381 52.4187 134.583 51.032C130.786 49.624 127.821 47.6507 125.687 45.112C123.554 42.5733 122.434 39.64 122.327 36.312H135.831Z"></path><path d="M198.765 32.888L197.421 41.304H227.821V52.056H183.181L186.829 28.056L183.181 4.056H227.501V14.808H197.421L198.765 23.224H225.645V32.888H198.765Z"></path><path d="M274.922 52.056L262.058 34.776H255.114V52.056H241.834V4.056H270.346C273.973 4.056 277.162 4.696 279.914 5.976C282.687 7.256 284.831 9.06933 286.346 11.416C287.882 13.7413 288.65 16.4293 288.65 19.48C288.65 21.8907 288.159 24.088 287.178 26.072C286.197 28.0347 284.789 29.6987 282.954 31.064C281.141 32.4293 278.997 33.4213 276.522 34.04L290.314 52.056H274.922ZM255.114 13.912V25.048H268.522C270.613 25.048 272.255 24.5573 273.45 23.576C274.645 22.5947 275.242 21.2293 275.242 19.48C275.242 17.7307 274.645 16.3653 273.45 15.384C272.277 14.4027 270.634 13.912 268.522 13.912H255.114Z"></path><path d="M362.645 21.816V4.056H375.925V52.056H362.645V33.528H338.101V52.056H324.821V4.056H338.101V21.816H362.645Z"></path><path d="M447.957 52.056H433.813L429.813 42.808H405.013L401.013 52.056H386.837L408.693 4.056H426.133L447.957 52.056ZM417.397 14.168L409.621 32.152H425.205L417.397 14.168Z"></path><path d="M458.871 52.056V4.056H472.151V52.056H458.871Z"></path><path d="M520.547 52.056L507.683 34.776H500.739V52.056H487.459V4.056H515.971C519.598 4.056 522.787 4.696 525.539 5.976C528.312 7.256 530.456 9.06933 531.971 11.416C533.507 13.7413 534.275 16.4293 534.275 19.48C534.275 21.8907 533.784 24.088 532.803 26.072C531.822 28.0347 530.414 29.6987 528.579 31.064C526.766 32.4293 524.622 33.4213 522.147 34.04L535.939 52.056H520.547ZM500.739 13.912V25.048H514.147C516.238 25.048 517.88 24.5573 519.075 23.576C520.27 22.5947 520.867 21.2293 520.867 19.48C520.867 17.7307 520.27 16.3653 519.075 15.384C517.902 14.4027 516.259 13.912 514.147 13.912H500.739Z"></path><path d="M603.534 52.056L590.67 34.776H583.726V52.056H570.446V4.056H598.958C602.585 4.056 605.774 4.696 608.526 5.976C611.3 7.256 613.444 9.06933 614.958 11.416C616.494 13.7413 617.262 16.4293 617.262 19.48C617.262 21.8907 616.772 24.088 615.79 26.072C614.809 28.0347 613.401 29.6987 611.566 31.064C609.753 32.4293 607.609 33.4213 605.134 34.04L618.926 52.056H603.534ZM583.726 13.912V25.048H597.134C599.225 25.048 600.868 24.5573 602.062 23.576C603.257 22.5947 603.854 21.2293 603.854 19.48C603.854 17.7307 603.257 16.3653 602.062 15.384C600.889 14.4027 599.246 13.912 597.134 13.912H583.726Z"></path><path d="M645.365 32.888L644.021 41.304H674.421V52.056H629.781L633.429 28.056L629.781 4.056H674.101V14.808H644.021L645.365 23.224H672.245V32.888H645.365Z"></path><path d="M723.57 39.16L738.13 4.056H758.61V52.056H746.002V15.64L730.226 52.056H716.818L701.074 15.8V52.056H688.434V4.056H708.946L723.57 39.16Z"></path><path d="M800.391 53.112C794.759 53.112 789.788 52.0667 785.479 49.976C781.17 47.8853 777.82 44.952 775.431 41.176C773.063 37.3787 771.879 33.0053 771.879 28.056C771.879 23.1067 773.063 18.744 775.431 14.968C777.82 11.1707 781.17 8.22667 785.479 6.136C789.788 4.04533 794.759 3 800.391 3C806.023 3 810.994 4.04533 815.303 6.136C819.612 8.22667 822.951 11.1707 825.319 14.968C827.708 18.744 828.903 23.1067 828.903 28.056C828.903 33.0053 827.708 37.3787 825.319 41.176C822.951 44.952 819.612 47.8853 815.303 49.976C810.994 52.0667 806.023 53.112 800.391 53.112ZM800.391 41.24C803.463 41.24 806.13 40.7067 808.391 39.64C810.674 38.5733 812.423 37.048 813.639 35.064C814.876 33.08 815.495 30.744 815.495 28.056C815.495 25.368 814.876 23.032 813.639 21.048C812.423 19.064 810.674 17.5387 808.391 16.472C806.13 15.4053 803.463 14.872 800.391 14.872C797.319 14.872 794.642 15.4053 792.359 16.472C790.098 17.5387 788.348 19.064 787.111 21.048C785.895 23.032 785.287 25.368 785.287 28.056C785.287 30.744 785.895 33.08 787.111 35.064C788.348 37.048 790.098 38.5733 792.359 39.64C794.642 40.7067 797.319 41.24 800.391 41.24Z"></path><path d="M864.803 39.704L880.515 4.056H894.499L872.163 52.056H857.123L834.787 4.056H849.027L864.803 39.704Z"></path><path d="M953.932 52.056H939.788L935.788 42.808H910.988L906.988 52.056H892.812L914.668 4.056H932.108L953.932 52.056ZM923.372 14.168L915.596 32.152H931.18L923.372 14.168Z"></path><path d="M978.126 4.056V40.248H1008.08V52.056H964.846V4.056H978.126Z"></path></mask><path d="M17.2014 4.056V40.248H47.1534V52.056H3.92139V4.056H17.2014Z" fill="#111111"></path><path d="M115.932 52.056H101.788L97.7884 42.808H72.9884L68.9884 52.056H54.8124L76.6684 4.056H94.1084L115.932 52.056ZM85.3724 14.168L77.5964 32.152H93.1804L85.3724 14.168Z" fill="#111111"></path><path d="M135.831 36.312C136.13 38.3387 137.346 39.9387 139.479 41.112C141.613 42.264 144.429 42.84 147.927 42.84C151.213 42.84 153.773 42.4133 155.607 41.56C157.463 40.7067 158.391 39.4907 158.391 37.912C158.391 37.0587 158.157 36.3547 157.687 35.8C157.218 35.224 156.418 34.7547 155.287 34.392C154.178 34.0293 152.631 33.752 150.647 33.56L141.751 32.728C135.202 32.1307 130.413 30.6587 127.383 28.312C124.375 25.944 122.871 22.6587 122.871 18.456C122.871 15.192 123.831 12.408 125.751 10.104C127.671 7.77867 130.381 6.01867 133.879 4.824C137.399 3.608 141.527 3 146.263 3C150.829 3 154.914 3.66133 158.519 4.984C162.125 6.30667 164.973 8.16267 167.063 10.552C169.175 12.9413 170.338 15.704 170.551 18.84H157.047C156.813 17.112 155.725 15.7573 153.783 14.776C151.863 13.7733 149.271 13.272 146.007 13.272C142.978 13.272 140.599 13.6773 138.871 14.488C137.165 15.2987 136.311 16.4507 136.311 17.944C136.311 19.1173 136.845 20.0347 137.911 20.696C138.978 21.336 140.845 21.7947 143.511 22.072L153.079 23C157.623 23.4267 161.261 24.1627 163.991 25.208C166.722 26.2533 168.706 27.6827 169.943 29.496C171.181 31.3093 171.799 33.6027 171.799 36.376C171.799 39.704 170.797 42.6373 168.791 45.176C166.786 47.6933 163.959 49.6453 160.311 51.032C156.663 52.4187 152.45 53.112 147.671 53.112C142.743 53.112 138.381 52.4187 134.583 51.032C130.786 49.624 127.821 47.6507 125.687 45.112C123.554 42.5733 122.434 39.64 122.327 36.312H135.831Z" fill="#111111"></path><path d="M198.765 32.888L197.421 41.304H227.821V52.056H183.181L186.829 28.056L183.181 4.056H227.501V14.808H197.421L198.765 23.224H225.645V32.888H198.765Z" fill="#111111"></path><path d="M274.922 52.056L262.058 34.776H255.114V52.056H241.834V4.056H270.346C273.973 4.056 277.162 4.696 279.914 5.976C282.687 7.256 284.831 9.06933 286.346 11.416C287.882 13.7413 288.65 16.4293 288.65 19.48C288.65 21.8907 288.159 24.088 287.178 26.072C286.197 28.0347 284.789 29.6987 282.954 31.064C281.141 32.4293 278.997 33.4213 276.522 34.04L290.314 52.056H274.922ZM255.114 13.912V25.048H268.522C270.613 25.048 272.255 24.5573 273.45 23.576C274.645 22.5947 275.242 21.2293 275.242 19.48C275.242 17.7307 274.645 16.3653 273.45 15.384C272.277 14.4027 270.634 13.912 268.522 13.912H255.114Z" fill="#111111"></path><path d="M362.645 21.816V4.056H375.925V52.056H362.645V33.528H338.101V52.056H324.821V4.056H338.101V21.816H362.645Z" fill="#111111"></path><path d="M447.957 52.056H433.813L429.813 42.808H405.013L401.013 52.056H386.837L408.693 4.056H426.133L447.957 52.056ZM417.397 14.168L409.621 32.152H425.205L417.397 14.168Z" fill="#111111"></path><path d="M458.871 52.056V4.056H472.151V52.056H458.871Z" fill="#111111"></path><path d="M520.547 52.056L507.683 34.776H500.739V52.056H487.459V4.056H515.971C519.598 4.056 522.787 4.696 525.539 5.976C528.312 7.256 530.456 9.06933 531.971 11.416C533.507 13.7413 534.275 16.4293 534.275 19.48C534.275 21.8907 533.784 24.088 532.803 26.072C531.822 28.0347 530.414 29.6987 528.579 31.064C526.766 32.4293 524.622 33.4213 522.147 34.04L535.939 52.056H520.547ZM500.739 13.912V25.048H514.147C516.238 25.048 517.88 24.5573 519.075 23.576C520.27 22.5947 520.867 21.2293 520.867 19.48C520.867 17.7307 520.27 16.3653 519.075 15.384C517.902 14.4027 516.259 13.912 514.147 13.912H500.739Z" fill="#111111"></path><path d="M603.534 52.056L590.67 34.776H583.726V52.056H570.446V4.056H598.958C602.585 4.056 605.774 4.696 608.526 5.976C611.3 7.256 613.444 9.06933 614.958 11.416C616.494 13.7413 617.262 16.4293 617.262 19.48C617.262 21.8907 616.772 24.088 615.79 26.072C614.809 28.0347 613.401 29.6987 611.566 31.064C609.753 32.4293 607.609 33.4213 605.134 34.04L618.926 52.056H603.534ZM583.726 13.912V25.048H597.134C599.225 25.048 600.868 24.5573 602.062 23.576C603.257 22.5947 603.854 21.2293 603.854 19.48C603.854 17.7307 603.257 16.3653 602.062 15.384C600.889 14.4027 599.246 13.912 597.134 13.912H583.726Z" fill="#111111"></path><path d="M645.365 32.888L644.021 41.304H674.421V52.056H629.781L633.429 28.056L629.781 4.056H674.101V14.808H644.021L645.365 23.224H672.245V32.888H645.365Z" fill="#111111"></path><path d="M723.57 39.16L738.13 4.056H758.61V52.056H746.002V15.64L730.226 52.056H716.818L701.074 15.8V52.056H688.434V4.056H708.946L723.57 39.16Z" fill="#111111"></path><path d="M800.391 53.112C794.759 53.112 789.788 52.0667 785.479 49.976C781.17 47.8853 777.82 44.952 775.431 41.176C773.063 37.3787 771.879 33.0053 771.879 28.056C771.879 23.1067 773.063 18.744 775.431 14.968C777.82 11.1707 781.17 8.22667 785.479 6.136C789.788 4.04533 794.759 3 800.391 3C806.023 3 810.994 4.04533 815.303 6.136C819.612 8.22667 822.951 11.1707 825.319 14.968C827.708 18.744 828.903 23.1067 828.903 28.056C828.903 33.0053 827.708 37.3787 825.319 41.176C822.951 44.952 819.612 47.8853 815.303 49.976C810.994 52.0667 806.023 53.112 800.391 53.112ZM800.391 41.24C803.463 41.24 806.13 40.7067 808.391 39.64C810.674 38.5733 812.423 37.048 813.639 35.064C814.876 33.08 815.495 30.744 815.495 28.056C815.495 25.368 814.876 23.032 813.639 21.048C812.423 19.064 810.674 17.5387 808.391 16.472C806.13 15.4053 803.463 14.872 800.391 14.872C797.319 14.872 794.642 15.4053 792.359 16.472C790.098 17.5387 788.348 19.064 787.111 21.048C785.895 23.032 785.287 25.368 785.287 28.056C785.287 30.744 785.895 33.08 787.111 35.064C788.348 37.048 790.098 38.5733 792.359 39.64C794.642 40.7067 797.319 41.24 800.391 41.24Z" fill="#111111"></path><path d="M864.803 39.704L880.515 4.056H894.499L872.163 52.056H857.123L834.787 4.056H849.027L864.803 39.704Z" fill="#111111"></path><path d="M953.932 52.056H939.788L935.788 42.808H910.988L906.988 52.056H892.812L914.668 4.056H932.108L953.932 52.056ZM923.372 14.168L915.596 32.152H931.18L923.372 14.168Z" fill="#111111"></path><path d="M978.126 4.056V40.248H1008.08V52.056H964.846V4.056H978.126Z" fill="#111111"></path><path d="M17.2014 4.056V40.248H47.1534V52.056H3.92139V4.056H17.2014Z" stroke="#F6007A" stroke-width="6" mask="url(#path-1-outside-1_119_53)"></path><path d="M115.932 52.056H101.788L97.7884 42.808H72.9884L68.9884 52.056H54.8124L76.6684 4.056H94.1084L115.932 52.056ZM85.3724 14.168L77.5964 32.152H93.1804L85.3724 14.168Z" stroke="#F6007A" stroke-width="6" mask="url(#path-1-outside-1_119_53)"></path><path d="M135.831 36.312C136.13 38.3387 137.346 39.9387 139.479 41.112C141.613 42.264 144.429 42.84 147.927 42.84C151.213 42.84 153.773 42.4133 155.607 41.56C157.463 40.7067 158.391 39.4907 158.391 37.912C158.391 37.0587 158.157 36.3547 157.687 35.8C157.218 35.224 156.418 34.7547 155.287 34.392C154.178 34.0293 152.631 33.752 150.647 33.56L141.751 32.728C135.202 32.1307 130.413 30.6587 127.383 28.312C124.375 25.944 122.871 22.6587 122.871 18.456C122.871 15.192 123.831 12.408 125.751 10.104C127.671 7.77867 130.381 6.01867 133.879 4.824C137.399 3.608 141.527 3 146.263 3C150.829 3 154.914 3.66133 158.519 4.984C162.125 6.30667 164.973 8.16267 167.063 10.552C169.175 12.9413 170.338 15.704 170.551 18.84H157.047C156.813 17.112 155.725 15.7573 153.783 14.776C151.863 13.7733 149.271 13.272 146.007 13.272C142.978 13.272 140.599 13.6773 138.871 14.488C137.165 15.2987 136.311 16.4507 136.311 17.944C136.311 19.1173 136.845 20.0347 137.911 20.696C138.978 21.336 140.845 21.7947 143.511 22.072L153.079 23C157.623 23.4267 161.261 24.1627 163.991 25.208C166.722 26.2533 168.706 27.6827 169.943 29.496C171.181 31.3093 171.799 33.6027 171.799 36.376C171.799 39.704 170.797 42.6373 168.791 45.176C166.786 47.6933 163.959 49.6453 160.311 51.032C156.663 52.4187 152.45 53.112 147.671 53.112C142.743 53.112 138.381 52.4187 134.583 51.032C130.786 49.624 127.821 47.6507 125.687 45.112C123.554 42.5733 122.434 39.64 122.327 36.312H135.831Z" stroke="#F6007A" stroke-width="6" mask="url(#path-1-outside-1_119_53)"></path><path d="M198.765 32.888L197.421 41.304H227.821V52.056H183.181L186.829 28.056L183.181 4.056H227.501V14.808H197.421L198.765 23.224H225.645V32.888H198.765Z" stroke="#F6007A" stroke-width="6" mask="url(#path-1-outside-1_119_53)"></path><path d="M274.922 52.056L262.058 34.776H255.114V52.056H241.834V4.056H270.346C273.973 4.056 277.162 4.696 279.914 5.976C282.687 7.256 284.831 9.06933 286.346 11.416C287.882 13.7413 288.65 16.4293 288.65 19.48C288.65 21.8907 288.159 24.088 287.178 26.072C286.197 28.0347 284.789 29.6987 282.954 31.064C281.141 32.4293 278.997 33.4213 276.522 34.04L290.314 52.056H274.922ZM255.114 13.912V25.048H268.522C270.613 25.048 272.255 24.5573 273.45 23.576C274.645 22.5947 275.242 21.2293 275.242 19.48C275.242 17.7307 274.645 16.3653 273.45 15.384C272.277 14.4027 270.634 13.912 268.522 13.912H255.114Z" stroke="#F6007A" stroke-width="6" mask="url(#path-1-outside-1_119_53)"></path><path d="M362.645 21.816V4.056H375.925V52.056H362.645V33.528H338.101V52.056H324.821V4.056H338.101V21.816H362.645Z" stroke="#F6007A" stroke-width="6" mask="url(#path-1-outside-1_119_53)"></path><path d="M447.957 52.056H433.813L429.813 42.808H405.013L401.013 52.056H386.837L408.693 4.056H426.133L447.957 52.056ZM417.397 14.168L409.621 32.152H425.205L417.397 14.168Z" stroke="#F6007A" stroke-width="6" mask="url(#path-1-outside-1_119_53)"></path><path d="M458.871 52.056V4.056H472.151V52.056H458.871Z" stroke="#F6007A" stroke-width="6" mask="url(#path-1-outside-1_119_53)"></path><path d="M520.547 52.056L507.683 34.776H500.739V52.056H487.459V4.056H515.971C519.598 4.056 522.787 4.696 525.539 5.976C528.312 7.256 530.456 9.06933 531.971 11.416C533.507 13.7413 534.275 16.4293 534.275 19.48C534.275 21.8907 533.784 24.088 532.803 26.072C531.822 28.0347 530.414 29.6987 528.579 31.064C526.766 32.4293 524.622 33.4213 522.147 34.04L535.939 52.056H520.547ZM500.739 13.912V25.048H514.147C516.238 25.048 517.88 24.5573 519.075 23.576C520.27 22.5947 520.867 21.2293 520.867 19.48C520.867 17.7307 520.27 16.3653 519.075 15.384C517.902 14.4027 516.259 13.912 514.147 13.912H500.739Z" stroke="#F6007A" stroke-width="6" mask="url(#path-1-outside-1_119_53)"></path><path d="M603.534 52.056L590.67 34.776H583.726V52.056H570.446V4.056H598.958C602.585 4.056 605.774 4.696 608.526 5.976C611.3 7.256 613.444 9.06933 614.958 11.416C616.494 13.7413 617.262 16.4293 617.262 19.48C617.262 21.8907 616.772 24.088 615.79 26.072C614.809 28.0347 613.401 29.6987 611.566 31.064C609.753 32.4293 607.609 33.4213 605.134 34.04L618.926 52.056H603.534ZM583.726 13.912V25.048H597.134C599.225 25.048 600.868 24.5573 602.062 23.576C603.257 22.5947 603.854 21.2293 603.854 19.48C603.854 17.7307 603.257 16.3653 602.062 15.384C600.889 14.4027 599.246 13.912 597.134 13.912H583.726Z" stroke="#F6007A" stroke-width="6" mask="url(#path-1-outside-1_119_53)"></path><path d="M645.365 32.888L644.021 41.304H674.421V52.056H629.781L633.429 28.056L629.781 4.056H674.101V14.808H644.021L645.365 23.224H672.245V32.888H645.365Z" stroke="#F6007A" stroke-width="6" mask="url(#path-1-outside-1_119_53)"></path><path d="M723.57 39.16L738.13 4.056H758.61V52.056H746.002V15.64L730.226 52.056H716.818L701.074 15.8V52.056H688.434V4.056H708.946L723.57 39.16Z" stroke="#F6007A" stroke-width="6" mask="url(#path-1-outside-1_119_53)"></path><path d="M800.391 53.112C794.759 53.112 789.788 52.0667 785.479 49.976C781.17 47.8853 777.82 44.952 775.431 41.176C773.063 37.3787 771.879 33.0053 771.879 28.056C771.879 23.1067 773.063 18.744 775.431 14.968C777.82 11.1707 781.17 8.22667 785.479 6.136C789.788 4.04533 794.759 3 800.391 3C806.023 3 810.994 4.04533 815.303 6.136C819.612 8.22667 822.951 11.1707 825.319 14.968C827.708 18.744 828.903 23.1067 828.903 28.056C828.903 33.0053 827.708 37.3787 825.319 41.176C822.951 44.952 819.612 47.8853 815.303 49.976C810.994 52.0667 806.023 53.112 800.391 53.112ZM800.391 41.24C803.463 41.24 806.13 40.7067 808.391 39.64C810.674 38.5733 812.423 37.048 813.639 35.064C814.876 33.08 815.495 30.744 815.495 28.056C815.495 25.368 814.876 23.032 813.639 21.048C812.423 19.064 810.674 17.5387 808.391 16.472C806.13 15.4053 803.463 14.872 800.391 14.872C797.319 14.872 794.642 15.4053 792.359 16.472C790.098 17.5387 788.348 19.064 787.111 21.048C785.895 23.032 785.287 25.368 785.287 28.056C785.287 30.744 785.895 33.08 787.111 35.064C788.348 37.048 790.098 38.5733 792.359 39.64C794.642 40.7067 797.319 41.24 800.391 41.24Z" stroke="#F6007A" stroke-width="6" mask="url(#path-1-outside-1_119_53)"></path><path d="M864.803 39.704L880.515 4.056H894.499L872.163 52.056H857.123L834.787 4.056H849.027L864.803 39.704Z" stroke="#F6007A" stroke-width="6" mask="url(#path-1-outside-1_119_53)"></path><path d="M953.932 52.056H939.788L935.788 42.808H910.988L906.988 52.056H892.812L914.668 4.056H932.108L953.932 52.056ZM923.372 14.168L915.596 32.152H931.18L923.372 14.168Z" stroke="#F6007A" stroke-width="6" mask="url(#path-1-outside-1_119_53)"></path><path d="M978.126 4.056V40.248H1008.08V52.056H964.846V4.056H978.126Z" stroke="#F6007A" stroke-width="6" mask="url(#path-1-outside-1_119_53)"></path></svg>