<svg xmlns="http://www.w3.org/2000/svg" width="542" height="138" viewBox="0 0 542 138" fill="none"><mask id="path-1-outside-1_130_50" maskUnits="userSpaceOnUse" x="-0.75" y="0" width="543" height="138" fill="black"><rect fill="white" x="-0.75" width="543" height="138"></rect><path d="M16.4593 5V47.112L10.5073 41.224H46.4113V53H3.21126V5H16.4593ZM67.8303 43.784V33.096H100.918V43.784H67.8303ZM93.3663 5L115.19 53H101.046L82.7423 10.632H86.5823L68.2143 53H54.0703L75.8943 5H93.3663ZM121.585 37.256H135.089C135.303 38.5787 135.921 39.7307 136.945 40.712C137.969 41.6933 139.335 42.4613 141.041 43.016C142.791 43.528 144.839 43.784 147.185 43.784C150.428 43.784 152.988 43.3787 154.865 42.568C156.743 41.7147 157.681 40.4773 157.681 38.856C157.681 37.6187 157.148 36.6587 156.081 35.976C155.015 35.2933 152.967 34.8027 149.937 34.504L140.977 33.672C134.364 33.0747 129.564 31.5813 126.577 29.192C123.591 26.76 122.097 23.496 122.097 19.4C122.097 16.072 123.057 13.256 124.977 10.952C126.94 8.648 129.671 6.92 133.169 5.768C136.711 4.57333 140.828 3.976 145.521 3.976C150.129 3.976 154.225 4.63733 157.809 5.96C161.393 7.24 164.231 9.07466 166.321 11.464C168.455 13.8533 169.607 16.6267 169.777 19.784H156.337C156.167 18.632 155.612 17.6507 154.673 16.84C153.777 15.9867 152.54 15.3467 150.961 14.92C149.383 14.4507 147.484 14.216 145.265 14.216C142.279 14.216 139.911 14.6213 138.161 15.432C136.412 16.2 135.537 17.352 135.537 18.888C135.537 19.9973 136.049 20.8933 137.073 21.576C138.14 22.2587 140.039 22.728 142.769 22.984L152.305 23.944C156.871 24.3707 160.519 25.1173 163.249 26.184C165.98 27.208 167.964 28.6373 169.201 30.472C170.439 32.3067 171.057 34.5893 171.057 37.32C171.057 40.6907 170.055 43.6347 168.049 46.152C166.044 48.6267 163.228 50.568 159.601 51.976C155.975 53.3413 151.751 54.024 146.929 54.024C141.98 54.024 137.607 53.3413 133.809 51.976C130.055 50.568 127.111 48.6053 124.977 46.088C122.844 43.528 121.713 40.584 121.585 37.256ZM224.935 24.2V33.8H189.799V24.2H224.935ZM198.823 29L195.687 48.264L190.311 42.248H227.047V53H182.439L186.087 29L182.439 5H226.727V15.752H190.311L195.687 9.736L198.823 29ZM250.276 25.992H267.748C269.881 25.992 271.545 25.5013 272.74 24.52C273.934 23.5387 274.532 22.1733 274.532 20.424C274.532 18.632 273.934 17.2667 272.74 16.328C271.545 15.3467 269.881 14.856 267.748 14.856H248.42L254.372 8.52V53H241.124V5H269.604C273.273 5 276.473 5.66133 279.204 6.984C281.934 8.264 284.068 10.056 285.604 12.36C287.14 14.6213 287.908 17.3093 287.908 20.424C287.908 23.4533 287.14 26.12 285.604 28.424C284.068 30.728 281.934 32.52 279.204 33.8C276.473 35.08 273.273 35.72 269.604 35.72H250.276V25.992ZM257.444 30.536H272.356L289.572 53H274.212L257.444 30.536ZM324.174 5H337.422V53H324.174V5ZM361.934 5H375.246V53H361.934V5ZM331.598 22.728H367.438V34.504H331.598V22.728ZM399.98 43.784V33.096H433.068V43.784H399.98ZM425.516 5L447.34 53H433.196L414.892 10.632H418.732L400.364 53H386.22L408.044 5H425.516ZM458.286 5H471.534V53H458.286V5ZM496.026 25.992H513.498C515.631 25.992 517.295 25.5013 518.49 24.52C519.684 23.5387 520.282 22.1733 520.282 20.424C520.282 18.632 519.684 17.2667 518.49 16.328C517.295 15.3467 515.631 14.856 513.498 14.856H494.17L500.122 8.52V53H486.874V5H515.354C519.023 5 522.223 5.66133 524.954 6.984C527.684 8.264 529.818 10.056 531.354 12.36C532.89 14.6213 533.658 17.3093 533.658 20.424C533.658 23.4533 532.89 26.12 531.354 28.424C529.818 30.728 527.684 32.52 524.954 33.8C522.223 35.08 519.023 35.72 515.354 35.72H496.026V25.992ZM503.194 30.536H518.106L535.322 53H519.962L503.194 30.536ZM59.7445 105.992H77.2165C79.3498 105.992 81.0138 105.501 82.2085 104.52C83.4032 103.539 84.0005 102.173 84.0005 100.424C84.0005 98.632 83.4032 97.2667 82.2085 96.328C81.0138 95.3467 79.3498 94.856 77.2165 94.856H57.8885L63.8405 88.52V133H50.5925V85H79.0725C82.7418 85 85.9418 85.6613 88.6725 86.984C91.4032 88.264 93.5365 90.056 95.0725 92.36C96.6085 94.6213 97.3765 97.3093 97.3765 100.424C97.3765 103.453 96.6085 106.12 95.0725 108.424C93.5365 110.728 91.4032 112.52 88.6725 113.8C85.9418 115.08 82.7418 115.72 79.0725 115.72H59.7445V105.992ZM66.9125 110.536H81.8245L99.0405 133H83.6805L66.9125 110.536ZM152.392 104.2V113.8H117.256V104.2H152.392ZM126.28 109L123.144 128.264L117.768 122.248H154.504V133H109.896L113.544 109L109.896 85H154.184V95.752H117.768L123.144 89.736L126.28 109ZM238.724 85V133H226.116V89.736L228.932 90.056L210.372 133H196.932L178.308 90.184L181.188 89.864V133H168.58V85H189.06L206.276 126.216H201.156L218.244 85H238.724ZM280.473 134.024C274.798 134.024 269.806 132.979 265.497 130.888C261.23 128.797 257.902 125.875 255.513 122.12C253.166 118.365 251.993 113.992 251.993 109C251.993 104.008 253.166 99.6347 255.513 95.88C257.902 92.1253 261.23 89.2027 265.497 87.112C269.806 85.0213 274.798 83.976 280.473 83.976C286.19 83.976 291.182 85.0213 295.449 87.112C299.716 89.2027 303.044 92.1253 305.433 95.88C307.822 99.6347 309.017 104.008 309.017 109C309.017 113.992 307.822 118.365 305.433 122.12C303.044 125.875 299.716 128.797 295.449 130.888C291.182 132.979 286.19 134.024 280.473 134.024ZM280.473 122.184C283.588 122.184 286.276 121.651 288.537 120.584C290.798 119.517 292.526 118.003 293.721 116.04C294.958 114.077 295.577 111.731 295.577 109C295.577 106.269 294.958 103.923 293.721 101.96C292.526 99.9973 290.798 98.4827 288.537 97.416C286.276 96.3493 283.588 95.816 280.473 95.816C277.401 95.816 274.734 96.3493 272.473 97.416C270.212 98.4827 268.462 99.9973 267.225 101.96C265.988 103.923 265.369 106.269 265.369 109C265.369 111.731 265.988 114.077 267.225 116.04C268.462 118.003 270.212 119.517 272.473 120.584C274.734 121.651 277.401 122.184 280.473 122.184ZM347.734 127.048H342.102L360.598 85H374.614L352.278 133H337.238L314.902 85H329.11L347.734 127.048ZM386.686 123.784V113.096H419.774V123.784H386.686ZM412.222 85L434.046 133H419.902L401.598 90.632H405.438L387.07 133H372.926L394.75 85H412.222ZM458.241 85V127.112L452.289 121.224H488.193V133H444.993V85H458.241Z"></path></mask><path d="M16.4593 5V47.112L10.5073 41.224H46.4113V53H3.21126V5H16.4593ZM67.8303 43.784V33.096H100.918V43.784H67.8303ZM93.3663 5L115.19 53H101.046L82.7423 10.632H86.5823L68.2143 53H54.0703L75.8943 5H93.3663ZM121.585 37.256H135.089C135.303 38.5787 135.921 39.7307 136.945 40.712C137.969 41.6933 139.335 42.4613 141.041 43.016C142.791 43.528 144.839 43.784 147.185 43.784C150.428 43.784 152.988 43.3787 154.865 42.568C156.743 41.7147 157.681 40.4773 157.681 38.856C157.681 37.6187 157.148 36.6587 156.081 35.976C155.015 35.2933 152.967 34.8027 149.937 34.504L140.977 33.672C134.364 33.0747 129.564 31.5813 126.577 29.192C123.591 26.76 122.097 23.496 122.097 19.4C122.097 16.072 123.057 13.256 124.977 10.952C126.94 8.648 129.671 6.92 133.169 5.768C136.711 4.57333 140.828 3.976 145.521 3.976C150.129 3.976 154.225 4.63733 157.809 5.96C161.393 7.24 164.231 9.07466 166.321 11.464C168.455 13.8533 169.607 16.6267 169.777 19.784H156.337C156.167 18.632 155.612 17.6507 154.673 16.84C153.777 15.9867 152.54 15.3467 150.961 14.92C149.383 14.4507 147.484 14.216 145.265 14.216C142.279 14.216 139.911 14.6213 138.161 15.432C136.412 16.2 135.537 17.352 135.537 18.888C135.537 19.9973 136.049 20.8933 137.073 21.576C138.14 22.2587 140.039 22.728 142.769 22.984L152.305 23.944C156.871 24.3707 160.519 25.1173 163.249 26.184C165.98 27.208 167.964 28.6373 169.201 30.472C170.439 32.3067 171.057 34.5893 171.057 37.32C171.057 40.6907 170.055 43.6347 168.049 46.152C166.044 48.6267 163.228 50.568 159.601 51.976C155.975 53.3413 151.751 54.024 146.929 54.024C141.98 54.024 137.607 53.3413 133.809 51.976C130.055 50.568 127.111 48.6053 124.977 46.088C122.844 43.528 121.713 40.584 121.585 37.256ZM224.935 24.2V33.8H189.799V24.2H224.935ZM198.823 29L195.687 48.264L190.311 42.248H227.047V53H182.439L186.087 29L182.439 5H226.727V15.752H190.311L195.687 9.736L198.823 29ZM250.276 25.992H267.748C269.881 25.992 271.545 25.5013 272.74 24.52C273.934 23.5387 274.532 22.1733 274.532 20.424C274.532 18.632 273.934 17.2667 272.74 16.328C271.545 15.3467 269.881 14.856 267.748 14.856H248.42L254.372 8.52V53H241.124V5H269.604C273.273 5 276.473 5.66133 279.204 6.984C281.934 8.264 284.068 10.056 285.604 12.36C287.14 14.6213 287.908 17.3093 287.908 20.424C287.908 23.4533 287.14 26.12 285.604 28.424C284.068 30.728 281.934 32.52 279.204 33.8C276.473 35.08 273.273 35.72 269.604 35.72H250.276V25.992ZM257.444 30.536H272.356L289.572 53H274.212L257.444 30.536ZM324.174 5H337.422V53H324.174V5ZM361.934 5H375.246V53H361.934V5ZM331.598 22.728H367.438V34.504H331.598V22.728ZM399.98 43.784V33.096H433.068V43.784H399.98ZM425.516 5L447.34 53H433.196L414.892 10.632H418.732L400.364 53H386.22L408.044 5H425.516ZM458.286 5H471.534V53H458.286V5ZM496.026 25.992H513.498C515.631 25.992 517.295 25.5013 518.49 24.52C519.684 23.5387 520.282 22.1733 520.282 20.424C520.282 18.632 519.684 17.2667 518.49 16.328C517.295 15.3467 515.631 14.856 513.498 14.856H494.17L500.122 8.52V53H486.874V5H515.354C519.023 5 522.223 5.66133 524.954 6.984C527.684 8.264 529.818 10.056 531.354 12.36C532.89 14.6213 533.658 17.3093 533.658 20.424C533.658 23.4533 532.89 26.12 531.354 28.424C529.818 30.728 527.684 32.52 524.954 33.8C522.223 35.08 519.023 35.72 515.354 35.72H496.026V25.992ZM503.194 30.536H518.106L535.322 53H519.962L503.194 30.536ZM59.7445 105.992H77.2165C79.3498 105.992 81.0138 105.501 82.2085 104.52C83.4032 103.539 84.0005 102.173 84.0005 100.424C84.0005 98.632 83.4032 97.2667 82.2085 96.328C81.0138 95.3467 79.3498 94.856 77.2165 94.856H57.8885L63.8405 88.52V133H50.5925V85H79.0725C82.7418 85 85.9418 85.6613 88.6725 86.984C91.4032 88.264 93.5365 90.056 95.0725 92.36C96.6085 94.6213 97.3765 97.3093 97.3765 100.424C97.3765 103.453 96.6085 106.12 95.0725 108.424C93.5365 110.728 91.4032 112.52 88.6725 113.8C85.9418 115.08 82.7418 115.72 79.0725 115.72H59.7445V105.992ZM66.9125 110.536H81.8245L99.0405 133H83.6805L66.9125 110.536ZM152.392 104.2V113.8H117.256V104.2H152.392ZM126.28 109L123.144 128.264L117.768 122.248H154.504V133H109.896L113.544 109L109.896 85H154.184V95.752H117.768L123.144 89.736L126.28 109ZM238.724 85V133H226.116V89.736L228.932 90.056L210.372 133H196.932L178.308 90.184L181.188 89.864V133H168.58V85H189.06L206.276 126.216H201.156L218.244 85H238.724ZM280.473 134.024C274.798 134.024 269.806 132.979 265.497 130.888C261.23 128.797 257.902 125.875 255.513 122.12C253.166 118.365 251.993 113.992 251.993 109C251.993 104.008 253.166 99.6347 255.513 95.88C257.902 92.1253 261.23 89.2027 265.497 87.112C269.806 85.0213 274.798 83.976 280.473 83.976C286.19 83.976 291.182 85.0213 295.449 87.112C299.716 89.2027 303.044 92.1253 305.433 95.88C307.822 99.6347 309.017 104.008 309.017 109C309.017 113.992 307.822 118.365 305.433 122.12C303.044 125.875 299.716 128.797 295.449 130.888C291.182 132.979 286.19 134.024 280.473 134.024ZM280.473 122.184C283.588 122.184 286.276 121.651 288.537 120.584C290.798 119.517 292.526 118.003 293.721 116.04C294.958 114.077 295.577 111.731 295.577 109C295.577 106.269 294.958 103.923 293.721 101.96C292.526 99.9973 290.798 98.4827 288.537 97.416C286.276 96.3493 283.588 95.816 280.473 95.816C277.401 95.816 274.734 96.3493 272.473 97.416C270.212 98.4827 268.462 99.9973 267.225 101.96C265.988 103.923 265.369 106.269 265.369 109C265.369 111.731 265.988 114.077 267.225 116.04C268.462 118.003 270.212 119.517 272.473 120.584C274.734 121.651 277.401 122.184 280.473 122.184ZM347.734 127.048H342.102L360.598 85H374.614L352.278 133H337.238L314.902 85H329.11L347.734 127.048ZM386.686 123.784V113.096H419.774V123.784H386.686ZM412.222 85L434.046 133H419.902L401.598 90.632H405.438L387.07 133H372.926L394.75 85H412.222ZM458.241 85V127.112L452.289 121.224H488.193V133H444.993V85H458.241Z" fill="#111111"></path><path d="M16.4593 5H19.4593V2H16.4593V5ZM16.4593 47.112L14.3494 49.2448L19.4593 54.2996V47.112H16.4593ZM10.5073 41.224V38.224H3.20889L8.39744 43.3568L10.5073 41.224ZM46.4113 41.224H49.4113V38.224H46.4113V41.224ZM46.4113 53V56H49.4113V53H46.4113ZM3.21126 53H0.211262V56H3.21126V53ZM3.21126 5V2H0.211262V5H3.21126ZM16.4593 5H13.4593V47.112H16.4593H19.4593V5H16.4593ZM16.4593 47.112L18.5691 44.9792L12.6171 39.0912L10.5073 41.224L8.39744 43.3568L14.3494 49.2448L16.4593 47.112ZM10.5073 41.224V44.224H46.4113V41.224V38.224H10.5073V41.224ZM46.4113 41.224H43.4113V53H46.4113H49.4113V41.224H46.4113ZM46.4113 53V50H3.21126V53V56H46.4113V53ZM3.21126 53H6.21126V5H3.21126H0.211262V53H3.21126ZM3.21126 5V8H16.4593V5V2H3.21126V5ZM67.8303 43.784H64.8303V46.784H67.8303V43.784ZM67.8303 33.096V30.096H64.8303V33.096H67.8303ZM100.918 33.096H103.918V30.096H100.918V33.096ZM100.918 43.784V46.784H103.918V43.784H100.918ZM93.3663 5L96.0972 3.75831L95.2978 2H93.3663V5ZM115.19 53V56H119.85L117.921 51.7583L115.19 53ZM101.046 53L98.2923 54.1898L99.0743 56H101.046V53ZM82.7423 10.632V7.632H78.1782L79.9883 11.8218L82.7423 10.632ZM86.5823 10.632L89.3347 11.8253L91.1527 7.632H86.5823V10.632ZM68.2143 53V56H70.1835L70.9667 54.1933L68.2143 53ZM54.0703 53L51.3393 51.7583L49.4107 56H54.0703V53ZM75.8943 5V2H73.9627L73.1633 3.75831L75.8943 5ZM67.8303 43.784H70.8303V33.096H67.8303H64.8303V43.784H67.8303ZM67.8303 33.096V36.096H100.918V33.096V30.096H67.8303V33.096ZM100.918 33.096H97.9183V43.784H100.918H103.918V33.096H100.918ZM100.918 43.784V40.784H67.8303V43.784V46.784H100.918V43.784ZM93.3663 5L90.6353 6.24168L112.459 54.2417L115.19 53L117.921 51.7583L96.0972 3.75831L93.3663 5ZM115.19 53V50H101.046V53V56H115.19V53ZM101.046 53L103.8 51.8102L85.4962 9.44221L82.7423 10.632L79.9883 11.8218L98.2923 54.1898L101.046 53ZM82.7423 10.632V13.632H86.5823V10.632V7.632H82.7423V10.632ZM86.5823 10.632L83.8298 9.43871L65.4618 51.8067L68.2143 53L70.9667 54.1933L89.3347 11.8253L86.5823 10.632ZM68.2143 53V50H54.0703V53V56H68.2143V53ZM54.0703 53L56.8012 54.2417L78.6252 6.24168L75.8943 5L73.1633 3.75831L51.3393 51.7583L54.0703 53ZM75.8943 5V8H93.3663V5V2H75.8943V5ZM121.585 37.256V34.256H118.468L118.587 37.3713L121.585 37.256ZM135.089 37.256L138.051 36.7783L137.644 34.256H135.089V37.256ZM136.945 40.712L139.021 38.546L139.021 38.546L136.945 40.712ZM141.041 43.016L140.114 45.8691L140.156 45.8828L140.199 45.8952L141.041 43.016ZM154.865 42.568L156.055 45.3222L156.081 45.3109L156.107 45.2991L154.865 42.568ZM156.081 35.976L157.698 33.4492L157.698 33.4492L156.081 35.976ZM149.937 34.504L150.232 31.5185L150.223 31.5176L150.215 31.5169L149.937 34.504ZM140.977 33.672L141.255 30.6848L141.247 30.6842L140.977 33.672ZM126.577 29.192L124.683 31.5183L124.693 31.5265L124.703 31.5346L126.577 29.192ZM124.977 10.952L122.694 9.0066L122.683 9.01897L122.673 9.03145L124.977 10.952ZM133.169 5.768L134.108 8.6175L134.118 8.61409L134.128 8.6106L133.169 5.768ZM157.809 5.96L156.771 8.77446L156.785 8.77992L156.8 8.78523L157.809 5.96ZM166.321 11.464L164.064 13.4395L164.073 13.4508L164.083 13.462L166.321 11.464ZM169.777 19.784V22.784H172.944L172.773 19.6221L169.777 19.784ZM156.337 19.784L153.37 20.2236L153.749 22.784H156.337V19.784ZM154.673 16.84L152.604 19.0124L152.657 19.0628L152.712 19.1105L154.673 16.84ZM150.961 14.92L150.106 17.7956L150.142 17.8063L150.179 17.8161L150.961 14.92ZM138.161 15.432L139.367 18.1789L139.395 18.1667L139.423 18.1539L138.161 15.432ZM137.073 21.576L135.409 24.0721L135.432 24.0877L135.456 24.1028L137.073 21.576ZM142.769 22.984L143.07 19.9991L143.06 19.9981L143.049 19.9971L142.769 22.984ZM152.305 23.944L152.005 26.9289L152.015 26.93L152.026 26.931L152.305 23.944ZM163.249 26.184L162.158 28.9784L162.177 28.9858L162.196 28.993L163.249 26.184ZM169.201 30.472L171.688 28.7946L171.688 28.7946L169.201 30.472ZM168.049 46.152L170.38 48.0407L170.388 48.031L170.396 48.0212L168.049 46.152ZM159.601 51.976L160.658 54.7836L160.673 54.7782L160.687 54.7726L159.601 51.976ZM133.809 51.976L132.756 54.785L132.775 54.7922L132.794 54.7991L133.809 51.976ZM124.977 46.088L122.673 48.0086L122.681 48.0181L122.689 48.0276L124.977 46.088ZM121.585 37.256V40.256H135.089V37.256V34.256H121.585V37.256ZM135.089 37.256L132.128 37.7337C132.451 39.7397 133.404 41.4734 134.87 42.878L136.945 40.712L139.021 38.546C138.439 37.9879 138.154 37.4177 138.051 36.7783L135.089 37.256ZM136.945 40.712L134.87 42.878C136.294 44.2435 138.088 45.2108 140.114 45.8691L141.041 43.016L141.969 40.1629C140.581 39.7119 139.644 39.1432 139.021 38.546L136.945 40.712ZM141.041 43.016L140.199 45.8952C142.287 46.5065 144.631 46.784 147.185 46.784V43.784V40.784C145.046 40.784 143.294 40.5495 141.884 40.1368L141.041 43.016ZM147.185 43.784V46.784C150.624 46.784 153.646 46.3622 156.055 45.3222L154.865 42.568L153.676 39.8138C152.33 40.3952 150.232 40.784 147.185 40.784V43.784ZM154.865 42.568L156.107 45.2991C157.355 44.7315 158.515 43.937 159.367 42.8132C160.251 41.6488 160.681 40.2906 160.681 38.856H157.681H154.681C154.681 39.0428 154.643 39.1139 154.587 39.1868C154.501 39.3003 154.252 39.5512 153.624 39.8369L154.865 42.568ZM157.681 38.856H160.681C160.681 36.5669 159.602 34.6676 157.698 33.4492L156.081 35.976L154.464 38.5028C154.557 38.5625 154.608 38.6084 154.632 38.6332C154.644 38.6458 154.651 38.6543 154.655 38.6587C154.658 38.663 154.659 38.6649 154.659 38.6649C154.659 38.6649 154.659 38.6655 154.66 38.6676C154.661 38.6698 154.663 38.6761 154.666 38.6876C154.671 38.71 154.681 38.7628 154.681 38.856H157.681ZM156.081 35.976L157.698 33.4492C156.757 32.847 155.608 32.4574 154.444 32.1786C153.243 31.8907 151.828 31.6759 150.232 31.5185L149.937 34.504L149.643 37.4895C151.076 37.6308 152.2 37.8106 153.046 38.0134C153.931 38.2253 154.338 38.4223 154.464 38.5028L156.081 35.976ZM149.937 34.504L150.215 31.5169L141.255 30.6848L140.977 33.672L140.7 36.6591L149.66 37.4911L149.937 34.504ZM140.977 33.672L141.247 30.6842C134.839 30.1054 130.75 28.6886 128.451 26.8494L126.577 29.192L124.703 31.5346C128.378 34.4741 133.888 36.0439 140.707 36.6598L140.977 33.672ZM126.577 29.192L128.472 26.8657C126.234 25.0436 125.097 22.6595 125.097 19.4H122.097H119.097C119.097 24.3325 120.947 28.4764 124.683 31.5183L126.577 29.192ZM122.097 19.4H125.097C125.097 16.6917 125.861 14.5775 127.282 12.8726L124.977 10.952L122.673 9.03145C120.253 11.9345 119.097 15.4523 119.097 19.4H122.097ZM124.977 10.952L127.261 12.8974C128.796 11.0951 131.018 9.63473 134.108 8.6175L133.169 5.768L132.231 2.91849C128.323 4.20527 125.084 6.20089 122.694 9.0066L124.977 10.952ZM133.169 5.768L134.128 8.6106C137.293 7.54291 141.074 6.976 145.521 6.976V3.976V0.975998C140.582 0.975998 136.128 1.60375 132.21 2.92539L133.169 5.768ZM145.521 3.976V6.976C149.846 6.976 153.58 7.5969 156.771 8.77446L157.809 5.96L158.848 3.14554C154.871 1.67776 150.413 0.975998 145.521 0.975998V3.976ZM157.809 5.96L156.8 8.78523C159.998 9.92726 162.371 11.5051 164.064 13.4395L166.321 11.464L168.579 9.48848C166.09 6.64426 162.789 4.55273 158.818 3.13477L157.809 5.96ZM166.321 11.464L164.083 13.462C165.769 15.3503 166.648 17.4785 166.782 19.9459L169.777 19.784L172.773 19.6221C172.565 15.7748 171.14 12.3563 168.559 9.46595L166.321 11.464ZM169.777 19.784V16.784H156.337V19.784V22.784H169.777V19.784ZM156.337 19.784L159.305 19.3443C159.022 17.4326 158.079 15.817 156.634 14.5695L154.673 16.84L152.712 19.1105C153.145 19.4843 153.312 19.8314 153.37 20.2236L156.337 19.784ZM154.673 16.84L156.742 14.6676C155.387 13.3766 153.655 12.5405 151.744 12.0239L150.961 14.92L150.179 17.8161C151.425 18.1528 152.168 18.5967 152.604 19.0124L154.673 16.84ZM150.961 14.92L151.816 12.0444C149.883 11.4696 147.68 11.216 145.265 11.216V14.216V17.216C147.288 17.216 148.882 17.4317 150.106 17.7956L150.961 14.92ZM145.265 14.216V11.216C142.058 11.216 139.202 11.6433 136.9 12.7101L138.161 15.432L139.423 18.1539C140.619 17.5993 142.499 17.216 145.265 17.216V14.216ZM138.161 15.432L136.955 12.6851C135.758 13.2106 134.633 13.9655 133.804 15.0579C132.945 16.1891 132.537 17.5081 132.537 18.888H135.537H138.537C138.537 18.792 138.55 18.7476 138.554 18.7363C138.557 18.7269 138.562 18.7132 138.583 18.6861C138.628 18.6265 138.815 18.4214 139.367 18.1789L138.161 15.432ZM135.537 18.888H132.537C132.537 21.123 133.658 22.9047 135.409 24.0721L137.073 21.576L138.737 19.0798C138.539 18.9475 138.511 18.8765 138.526 18.9036C138.532 18.9143 138.538 18.9281 138.54 18.9378C138.542 18.9465 138.537 18.9329 138.537 18.888H135.537ZM137.073 21.576L135.456 24.1028C137.177 25.2043 139.714 25.7107 142.489 25.9709L142.769 22.984L143.049 19.9971C140.363 19.7453 139.103 19.3131 138.69 19.0492L137.073 21.576ZM142.769 22.984L142.469 25.9689L152.005 26.9289L152.305 23.944L152.606 20.9591L143.07 19.9991L142.769 22.984ZM152.305 23.944L152.026 26.931C156.451 27.3445 159.791 28.0539 162.158 28.9784L163.249 26.184L164.341 23.3896C161.246 22.1808 157.29 21.3968 152.584 20.957L152.305 23.944ZM163.249 26.184L162.196 28.993C164.527 29.867 165.921 30.9738 166.714 32.1494L169.201 30.472L171.688 28.7946C170.007 26.3008 167.433 24.549 164.303 23.375L163.249 26.184ZM169.201 30.472L166.714 32.1494C167.546 33.3834 168.057 35.0462 168.057 37.32H171.057H174.057C174.057 34.1324 173.331 31.23 171.688 28.7946L169.201 30.472ZM171.057 37.32H168.057C168.057 40.0462 167.264 42.323 165.703 44.2828L168.049 46.152L170.396 48.0212C172.845 44.9463 174.057 41.3351 174.057 37.32H171.057ZM168.049 46.152L165.718 44.2632C164.108 46.2512 161.762 47.9188 158.516 49.1794L159.601 51.976L160.687 54.7726C164.693 53.2172 167.98 51.0022 170.38 48.0407L168.049 46.152ZM159.601 51.976L158.544 49.1684C155.327 50.3797 151.474 51.024 146.929 51.024V54.024V57.024C152.027 57.024 156.622 56.303 160.658 54.7836L159.601 51.976ZM146.929 54.024V51.024C142.25 51.024 138.232 50.3781 134.824 49.1529L133.809 51.976L132.794 54.7991C136.981 56.3046 141.71 57.024 146.929 57.024V54.024ZM133.809 51.976L134.863 49.167C131.485 47.9003 129.004 46.1995 127.266 44.1484L124.977 46.088L122.689 48.0276C125.217 51.0111 128.625 53.2357 132.756 54.785L133.809 51.976ZM124.977 46.088L127.282 44.1674C125.572 42.1159 124.686 39.8065 124.583 37.1407L121.585 37.256L118.587 37.3713C118.741 41.3615 120.116 44.9401 122.673 48.0086L124.977 46.088ZM224.935 24.2H227.935V21.2H224.935V24.2ZM224.935 33.8V36.8H227.935V33.8H224.935ZM189.799 33.8H186.799V36.8H189.799V33.8ZM189.799 24.2V21.2H186.799V24.2H189.799ZM198.823 29L201.784 29.482L201.863 29L201.784 28.518L198.823 29ZM195.687 48.264L193.45 50.263L197.638 54.9497L198.648 48.746L195.687 48.264ZM190.311 42.248V39.248H183.607L188.074 44.247L190.311 42.248ZM227.047 42.248H230.047V39.248H227.047V42.248ZM227.047 53V56H230.047V53H227.047ZM182.439 53L179.473 52.5492L178.949 56H182.439V53ZM186.087 29L189.053 29.4508L189.122 29L189.053 28.5492L186.087 29ZM182.439 5V2H178.949L179.473 5.45082L182.439 5ZM226.727 5H229.727V2H226.727V5ZM226.727 15.752V18.752H229.727V15.752H226.727ZM190.311 15.752L188.074 13.753L183.607 18.752H190.311V15.752ZM195.687 9.736L198.648 9.25397L197.638 3.05032L193.45 7.737L195.687 9.736ZM224.935 24.2H221.935V33.8H224.935H227.935V24.2H224.935ZM224.935 33.8V30.8H189.799V33.8V36.8H224.935V33.8ZM189.799 33.8H192.799V24.2H189.799H186.799V33.8H189.799ZM189.799 24.2V27.2H224.935V24.2V21.2H189.799V24.2ZM198.823 29L195.862 28.518L192.726 47.782L195.687 48.264L198.648 48.746L201.784 29.482L198.823 29ZM195.687 48.264L197.924 46.265L192.548 40.249L190.311 42.248L188.074 44.247L193.45 50.263L195.687 48.264ZM190.311 42.248V45.248H227.047V42.248V39.248H190.311V42.248ZM227.047 42.248H224.047V53H227.047H230.047V42.248H227.047ZM227.047 53V50H182.439V53V56H227.047V53ZM182.439 53L185.405 53.4508L189.053 29.4508L186.087 29L183.121 28.5492L179.473 52.5492L182.439 53ZM186.087 29L189.053 28.5492L185.405 4.54917L182.439 5L179.473 5.45082L183.121 29.4508L186.087 29ZM182.439 5V8H226.727V5V2H182.439V5ZM226.727 5H223.727V15.752H226.727H229.727V5H226.727ZM226.727 15.752V12.752H190.311V15.752V18.752H226.727V15.752ZM190.311 15.752L192.548 17.751L197.924 11.735L195.687 9.736L193.45 7.737L188.074 13.753L190.311 15.752ZM195.687 9.736L192.726 10.218L195.862 29.482L198.823 29L201.784 28.518L198.648 9.25397L195.687 9.736ZM250.276 25.992V22.992H247.276V25.992H250.276ZM272.74 16.328L270.836 18.6462L270.861 18.6668L270.886 18.687L272.74 16.328ZM248.42 14.856L246.233 12.802L241.486 17.856H248.42V14.856ZM254.372 8.52H257.372V0.944808L252.185 6.46597L254.372 8.52ZM254.372 53V56H257.372V53H254.372ZM241.124 53H238.124V56H241.124V53ZM241.124 5V2H238.124V5H241.124ZM279.204 6.984L277.896 9.68394L277.913 9.69227L277.93 9.70037L279.204 6.984ZM285.604 12.36L283.108 14.0241L283.115 14.0349L283.122 14.0456L285.604 12.36ZM285.604 28.424L288.1 30.0881L288.1 30.0881L285.604 28.424ZM250.276 35.72H247.276V38.72H250.276V35.72ZM257.444 30.536V27.536H251.461L255.04 32.3305L257.444 30.536ZM272.356 30.536L274.737 28.7111L273.836 27.536H272.356V30.536ZM289.572 53V56H295.651L291.953 51.1751L289.572 53ZM274.212 53L271.808 54.7945L272.707 56H274.212V53ZM250.276 25.992V28.992H267.748V25.992V22.992H250.276V25.992ZM267.748 25.992V28.992C270.314 28.992 272.74 28.402 274.644 26.8382L272.74 24.52L270.836 22.2018C270.35 22.6007 269.448 22.992 267.748 22.992V25.992ZM272.74 24.52L274.644 26.8382C276.629 25.2077 277.532 22.9382 277.532 20.424H274.532H271.532C271.532 21.4085 271.24 21.8697 270.836 22.2018L272.74 24.52ZM274.532 20.424H277.532C277.532 17.8966 276.646 15.5818 274.593 13.969L272.74 16.328L270.886 18.687C271.223 18.9515 271.532 19.3674 271.532 20.424H274.532ZM272.74 16.328L274.644 14.0098C272.74 12.446 270.314 11.856 267.748 11.856V14.856V17.856C269.448 17.856 270.35 18.2473 270.836 18.6462L272.74 16.328ZM267.748 14.856V11.856H248.42V14.856V17.856H267.748V14.856ZM248.42 14.856L250.606 16.91L256.558 10.574L254.372 8.52L252.185 6.46597L246.233 12.802L248.42 14.856ZM254.372 8.52H251.372V53H254.372H257.372V8.52H254.372ZM254.372 53V50H241.124V53V56H254.372V53ZM241.124 53H244.124V5H241.124H238.124V53H241.124ZM241.124 5V8H269.604V5V2H241.124V5ZM269.604 5V8C272.914 8 275.649 8.59579 277.896 9.68394L279.204 6.984L280.512 4.28405C277.297 2.72687 273.633 2 269.604 2V5ZM279.204 6.984L277.93 9.70037C280.211 10.7693 281.902 12.2162 283.108 14.0241L285.604 12.36L288.1 10.6959C286.233 7.8958 283.658 5.75871 280.477 4.26762L279.204 6.984ZM285.604 12.36L283.122 14.0456C284.275 15.7426 284.908 17.8239 284.908 20.424H287.908H290.908C290.908 16.7948 290.005 13.5 288.085 10.6743L285.604 12.36ZM287.908 20.424H284.908C284.908 22.9191 284.284 24.9949 283.108 26.7599L285.604 28.424L288.1 30.0881C289.995 27.2451 290.908 23.9875 290.908 20.424H287.908ZM285.604 28.424L283.108 26.7599C281.902 28.5678 280.211 30.0147 277.93 31.0836L279.204 33.8L280.477 36.5164C283.658 35.0253 286.233 32.8882 288.1 30.0881L285.604 28.424ZM279.204 33.8L277.93 31.0836C275.675 32.1408 272.927 32.72 269.604 32.72V35.72V38.72C273.62 38.72 277.271 38.0192 280.477 36.5164L279.204 33.8ZM269.604 35.72V32.72H250.276V35.72V38.72H269.604V35.72ZM250.276 35.72H253.276V25.992H250.276H247.276V35.72H250.276ZM257.444 30.536V33.536H272.356V30.536V27.536H257.444V30.536ZM272.356 30.536L269.975 32.3609L287.191 54.8249L289.572 53L291.953 51.1751L274.737 28.7111L272.356 30.536ZM289.572 53V50H274.212V53V56H289.572V53ZM274.212 53L276.616 51.2055L259.848 28.7415L257.444 30.536L255.04 32.3305L271.808 54.7945L274.212 53ZM324.174 5V2H321.174V5H324.174ZM337.422 5H340.422V2H337.422V5ZM337.422 53V56H340.422V53H337.422ZM324.174 53H321.174V56H324.174V53ZM361.934 5V2H358.934V5H361.934ZM375.246 5H378.246V2H375.246V5ZM375.246 53V56H378.246V53H375.246ZM361.934 53H358.934V56H361.934V53ZM331.598 22.728V19.728H328.598V22.728H331.598ZM367.438 22.728H370.438V19.728H367.438V22.728ZM367.438 34.504V37.504H370.438V34.504H367.438ZM331.598 34.504H328.598V37.504H331.598V34.504ZM324.174 5V8H337.422V5V2H324.174V5ZM337.422 5H334.422V53H337.422H340.422V5H337.422ZM337.422 53V50H324.174V53V56H337.422V53ZM324.174 53H327.174V5H324.174H321.174V53H324.174ZM361.934 5V8H375.246V5V2H361.934V5ZM375.246 5H372.246V53H375.246H378.246V5H375.246ZM375.246 53V50H361.934V53V56H375.246V53ZM361.934 53H364.934V5H361.934H358.934V53H361.934ZM331.598 22.728V25.728H367.438V22.728V19.728H331.598V22.728ZM367.438 22.728H364.438V34.504H367.438H370.438V22.728H367.438ZM367.438 34.504V31.504H331.598V34.504V37.504H367.438V34.504ZM331.598 34.504H334.598V22.728H331.598H328.598V34.504H331.598ZM399.98 43.784H396.98V46.784H399.98V43.784ZM399.98 33.096V30.096H396.98V33.096H399.98ZM433.068 33.096H436.068V30.096H433.068V33.096ZM433.068 43.784V46.784H436.068V43.784H433.068ZM425.516 5L428.247 3.75831L427.448 2H425.516V5ZM447.34 53V56H452L450.071 51.7583L447.34 53ZM433.196 53L430.442 54.1898L431.224 56H433.196V53ZM414.892 10.632V7.632H410.328L412.138 11.8218L414.892 10.632ZM418.732 10.632L421.485 11.8253L423.303 7.632H418.732V10.632ZM400.364 53V56H402.333L403.117 54.1933L400.364 53ZM386.22 53L383.489 51.7583L381.561 56H386.22V53ZM408.044 5V2H406.113L405.313 3.75831L408.044 5ZM399.98 43.784H402.98V33.096H399.98H396.98V43.784H399.98ZM399.98 33.096V36.096H433.068V33.096V30.096H399.98V33.096ZM433.068 33.096H430.068V43.784H433.068H436.068V33.096H433.068ZM433.068 43.784V40.784H399.98V43.784V46.784H433.068V43.784ZM425.516 5L422.785 6.24168L444.609 54.2417L447.34 53L450.071 51.7583L428.247 3.75831L425.516 5ZM447.34 53V50H433.196V53V56H447.34V53ZM433.196 53L435.95 51.8102L417.646 9.44221L414.892 10.632L412.138 11.8218L430.442 54.1898L433.196 53ZM414.892 10.632V13.632H418.732V10.632V7.632H414.892V10.632ZM418.732 10.632L415.98 9.43871L397.612 51.8067L400.364 53L403.117 54.1933L421.485 11.8253L418.732 10.632ZM400.364 53V50H386.22V53V56H400.364V53ZM386.22 53L388.951 54.2417L410.775 6.24168L408.044 5L405.313 3.75831L383.489 51.7583L386.22 53ZM408.044 5V8H425.516V5V2H408.044V5ZM458.286 5V2H455.286V5H458.286ZM471.534 5H474.534V2H471.534V5ZM471.534 53V56H474.534V53H471.534ZM458.286 53H455.286V56H458.286V53ZM458.286 5V8H471.534V5V2H458.286V5ZM471.534 5H468.534V53H471.534H474.534V5H471.534ZM471.534 53V50H458.286V53V56H471.534V53ZM458.286 53H461.286V5H458.286H455.286V53H458.286ZM496.026 25.992V22.992H493.026V25.992H496.026ZM518.49 16.328L516.586 18.6462L516.611 18.6668L516.636 18.687L518.49 16.328ZM494.17 14.856L491.983 12.802L487.236 17.856H494.17V14.856ZM500.122 8.52H503.122V0.944808L497.935 6.46597L500.122 8.52ZM500.122 53V56H503.122V53H500.122ZM486.874 53H483.874V56H486.874V53ZM486.874 5V2H483.874V5H486.874ZM524.954 6.984L523.646 9.68394L523.663 9.69227L523.68 9.70037L524.954 6.984ZM531.354 12.36L528.858 14.0241L528.865 14.0349L528.872 14.0456L531.354 12.36ZM531.354 28.424L533.85 30.0881L533.85 30.0881L531.354 28.424ZM496.026 35.72H493.026V38.72H496.026V35.72ZM503.194 30.536V27.536H497.211L500.79 32.3305L503.194 30.536ZM518.106 30.536L520.487 28.7111L519.586 27.536H518.106V30.536ZM535.322 53V56H541.401L537.703 51.1751L535.322 53ZM519.962 53L517.558 54.7945L518.457 56H519.962V53ZM496.026 25.992V28.992H513.498V25.992V22.992H496.026V25.992ZM513.498 25.992V28.992C516.064 28.992 518.49 28.402 520.394 26.8382L518.49 24.52L516.586 22.2018C516.1 22.6007 515.198 22.992 513.498 22.992V25.992ZM518.49 24.52L520.394 26.8382C522.379 25.2077 523.282 22.9382 523.282 20.424H520.282H517.282C517.282 21.4085 516.99 21.8697 516.586 22.2018L518.49 24.52ZM520.282 20.424H523.282C523.282 17.8966 522.396 15.5818 520.343 13.969L518.49 16.328L516.636 18.687C516.973 18.9515 517.282 19.3674 517.282 20.424H520.282ZM518.49 16.328L520.394 14.0098C518.49 12.446 516.064 11.856 513.498 11.856V14.856V17.856C515.198 17.856 516.1 18.2473 516.586 18.6462L518.49 16.328ZM513.498 14.856V11.856H494.17V14.856V17.856H513.498V14.856ZM494.17 14.856L496.356 16.91L502.308 10.574L500.122 8.52L497.935 6.46597L491.983 12.802L494.17 14.856ZM500.122 8.52H497.122V53H500.122H503.122V8.52H500.122ZM500.122 53V50H486.874V53V56H500.122V53ZM486.874 53H489.874V5H486.874H483.874V53H486.874ZM486.874 5V8H515.354V5V2H486.874V5ZM515.354 5V8C518.664 8 521.399 8.59579 523.646 9.68394L524.954 6.984L526.262 4.28405C523.047 2.72687 519.383 2 515.354 2V5ZM524.954 6.984L523.68 9.70037C525.961 10.7693 527.652 12.2162 528.858 14.0241L531.354 12.36L533.85 10.6959C531.983 7.8958 529.408 5.75871 526.227 4.26762L524.954 6.984ZM531.354 12.36L528.872 14.0456C530.025 15.7426 530.658 17.8239 530.658 20.424H533.658H536.658C536.658 16.7948 535.755 13.5 533.835 10.6743L531.354 12.36ZM533.658 20.424H530.658C530.658 22.9191 530.034 24.9949 528.858 26.7599L531.354 28.424L533.85 30.0881C535.745 27.2451 536.658 23.9875 536.658 20.424H533.658ZM531.354 28.424L528.858 26.7599C527.652 28.5678 525.961 30.0147 523.68 31.0836L524.954 33.8L526.227 36.5164C529.408 35.0253 531.983 32.8882 533.85 30.0881L531.354 28.424ZM524.954 33.8L523.68 31.0836C521.425 32.1408 518.677 32.72 515.354 32.72V35.72V38.72C519.37 38.72 523.021 38.0192 526.227 36.5164L524.954 33.8ZM515.354 35.72V32.72H496.026V35.72V38.72H515.354V35.72ZM496.026 35.72H499.026V25.992H496.026H493.026V35.72H496.026ZM503.194 30.536V33.536H518.106V30.536V27.536H503.194V30.536ZM518.106 30.536L515.725 32.3609L532.941 54.8249L535.322 53L537.703 51.1751L520.487 28.7111L518.106 30.536ZM535.322 53V50H519.962V53V56H535.322V53ZM519.962 53L522.366 51.2055L505.598 28.7415L503.194 30.536L500.79 32.3305L517.558 54.7945L519.962 53ZM59.7445 105.992V102.992H56.7445V105.992H59.7445ZM82.2085 96.328L80.3043 98.6462L80.3294 98.6668L80.355 98.687L82.2085 96.328ZM57.8885 94.856L55.702 92.802L50.9542 97.856H57.8885V94.856ZM63.8405 88.52H66.8405V80.9448L61.654 86.466L63.8405 88.52ZM63.8405 133V136H66.8405V133H63.8405ZM50.5925 133H47.5925V136H50.5925V133ZM50.5925 85V82H47.5925V85H50.5925ZM88.6725 86.984L87.3647 89.6839L87.3819 89.6923L87.3992 89.7004L88.6725 86.984ZM95.0725 92.36L92.5764 94.0241L92.5836 94.0349L92.5909 94.0456L95.0725 92.36ZM95.0725 108.424L97.5687 110.088L97.5687 110.088L95.0725 108.424ZM59.7445 115.72H56.7445V118.72H59.7445V115.72ZM66.9125 110.536V107.536H60.9296L64.5084 112.331L66.9125 110.536ZM81.8245 110.536L84.2057 108.711L83.3051 107.536H81.8245V110.536ZM99.0405 133V136H105.119L101.422 131.175L99.0405 133ZM83.6805 133L81.2764 134.795L82.1762 136H83.6805V133ZM59.7445 105.992V108.992H77.2165V105.992V102.992H59.7445V105.992ZM77.2165 105.992V108.992C79.7826 108.992 82.209 108.402 84.1127 106.838L82.2085 104.52L80.3043 102.202C79.8187 102.601 78.9171 102.992 77.2165 102.992V105.992ZM82.2085 104.52L84.1127 106.838C86.0977 105.208 87.0005 102.938 87.0005 100.424H84.0005H81.0005C81.0005 101.409 80.7087 101.87 80.3043 102.202L82.2085 104.52ZM84.0005 100.424H87.0005C87.0005 97.8966 86.1146 95.5818 84.062 93.969L82.2085 96.328L80.355 98.687C80.6917 98.9515 81.0005 99.3674 81.0005 100.424H84.0005ZM82.2085 96.328L84.1127 94.0098C82.209 92.446 79.7826 91.856 77.2165 91.856V94.856V97.856C78.9171 97.856 79.8187 98.2473 80.3043 98.6462L82.2085 96.328ZM77.2165 94.856V91.856H57.8885V94.856V97.856H77.2165V94.856ZM57.8885 94.856L60.075 96.91L66.027 90.574L63.8405 88.52L61.654 86.466L55.702 92.802L57.8885 94.856ZM63.8405 88.52H60.8405V133H63.8405H66.8405V88.52H63.8405ZM63.8405 133V130H50.5925V133V136H63.8405V133ZM50.5925 133H53.5925V85H50.5925H47.5925V133H50.5925ZM50.5925 85V88H79.0725V85V82H50.5925V85ZM79.0725 85V88C82.3823 88 85.1182 88.5958 87.3647 89.6839L88.6725 86.984L89.9803 84.2841C86.7655 82.7269 83.1014 82 79.0725 82V85ZM88.6725 86.984L87.3992 89.7004C89.6795 90.7693 91.3711 92.2162 92.5764 94.0241L95.0725 92.36L97.5687 90.6959C95.7019 87.8958 93.1268 85.7587 89.9458 84.2676L88.6725 86.984ZM95.0725 92.36L92.5909 94.0456C93.7435 95.7426 94.3765 97.8239 94.3765 100.424H97.3765H100.377C100.377 96.7948 99.4735 93.5 97.5542 90.6743L95.0725 92.36ZM97.3765 100.424H94.3765C94.3765 102.919 93.753 104.995 92.5764 106.76L95.0725 108.424L97.5687 110.088C99.464 107.245 100.377 103.988 100.377 100.424H97.3765ZM95.0725 108.424L92.5764 106.76C91.3711 108.568 89.6795 110.015 87.3992 111.084L88.6725 113.8L89.9458 116.516C93.1268 115.025 95.7019 112.888 97.5687 110.088L95.0725 108.424ZM88.6725 113.8L87.3992 111.084C85.1439 112.141 82.3953 112.72 79.0725 112.72V115.72V118.72C83.0884 118.72 86.7398 118.019 89.9458 116.516L88.6725 113.8ZM79.0725 115.72V112.72H59.7445V115.72V118.72H79.0725V115.72ZM59.7445 115.72H62.7445V105.992H59.7445H56.7445V115.72H59.7445ZM66.9125 110.536V113.536H81.8245V110.536V107.536H66.9125V110.536ZM81.8245 110.536L79.4434 112.361L96.6594 134.825L99.0405 133L101.422 131.175L84.2057 108.711L81.8245 110.536ZM99.0405 133V130H83.6805V133V136H99.0405V133ZM83.6805 133L86.0846 131.205L69.3166 108.741L66.9125 110.536L64.5084 112.331L81.2764 134.795L83.6805 133ZM152.392 104.2H155.392V101.2H152.392V104.2ZM152.392 113.8V116.8H155.392V113.8H152.392ZM117.256 113.8H114.256V116.8H117.256V113.8ZM117.256 104.2V101.2H114.256V104.2H117.256ZM126.28 109L129.241 109.482L129.319 109L129.241 108.518L126.28 109ZM123.144 128.264L120.907 130.263L125.095 134.95L126.105 128.746L123.144 128.264ZM117.768 122.248V119.248H111.063L115.531 124.247L117.768 122.248ZM154.504 122.248H157.504V119.248H154.504V122.248ZM154.504 133V136H157.504V133H154.504ZM109.896 133L106.93 132.549L106.405 136H109.896V133ZM113.544 109L116.509 109.451L116.578 109L116.509 108.549L113.544 109ZM109.896 85V82H106.405L106.93 85.4508L109.896 85ZM154.184 85H157.184V82H154.184V85ZM154.184 95.752V98.752H157.184V95.752H154.184ZM117.768 95.752L115.531 93.753L111.063 98.752H117.768V95.752ZM123.144 89.736L126.105 89.254L125.095 83.0503L120.907 87.737L123.144 89.736ZM152.392 104.2H149.392V113.8H152.392H155.392V104.2H152.392ZM152.392 113.8V110.8H117.256V113.8V116.8H152.392V113.8ZM117.256 113.8H120.256V104.2H117.256H114.256V113.8H117.256ZM117.256 104.2V107.2H152.392V104.2V101.2H117.256V104.2ZM126.28 109L123.318 108.518L120.182 127.782L123.144 128.264L126.105 128.746L129.241 109.482L126.28 109ZM123.144 128.264L125.38 126.265L120.004 120.249L117.768 122.248L115.531 124.247L120.907 130.263L123.144 128.264ZM117.768 122.248V125.248H154.504V122.248V119.248H117.768V122.248ZM154.504 122.248H151.504V133H154.504H157.504V122.248H154.504ZM154.504 133V130H109.896V133V136H154.504V133ZM109.896 133L112.861 133.451L116.509 109.451L113.544 109L110.578 108.549L106.93 132.549L109.896 133ZM113.544 109L116.509 108.549L112.861 84.5492L109.896 85L106.93 85.4508L110.578 109.451L113.544 109ZM109.896 85V88H154.184V85V82H109.896V85ZM154.184 85H151.184V95.752H154.184H157.184V85H154.184ZM154.184 95.752V92.752H117.768V95.752V98.752H154.184V95.752ZM117.768 95.752L120.004 97.751L125.38 91.735L123.144 89.736L120.907 87.737L115.531 93.753L117.768 95.752ZM123.144 89.736L120.182 90.218L123.318 109.482L126.28 109L129.241 108.518L126.105 89.254L123.144 89.736ZM238.724 85H241.724V82H238.724V85ZM238.724 133V136H241.724V133H238.724ZM226.116 133H223.116V136H226.116V133ZM226.116 89.736L226.455 86.7552L223.116 86.3758V89.736H226.116ZM228.932 90.056L231.686 91.2462L233.291 87.532L229.271 87.0752L228.932 90.056ZM210.372 133V136H212.344L213.126 134.19L210.372 133ZM196.932 133L194.181 134.197L194.965 136H196.932V133ZM178.308 90.184L177.977 87.2023L173.935 87.6514L175.557 91.3806L178.308 90.184ZM181.188 89.864H184.188V86.5122L180.857 86.8823L181.188 89.864ZM181.188 133V136H184.188V133H181.188ZM168.58 133H165.58V136H168.58V133ZM168.58 85V82H165.58V85H168.58ZM189.06 85L191.828 83.8437L191.058 82H189.06V85ZM206.276 126.216V129.216H210.78L209.044 125.06L206.276 126.216ZM201.156 126.216L198.385 125.067L196.665 129.216H201.156V126.216ZM218.244 85V82H216.24L215.473 83.851L218.244 85ZM238.724 85H235.724V133H238.724H241.724V85H238.724ZM238.724 133V130H226.116V133V136H238.724V133ZM226.116 133H229.116V89.736H226.116H223.116V133H226.116ZM226.116 89.736L225.777 92.7168L228.593 93.0368L228.932 90.056L229.271 87.0752L226.455 86.7552L226.116 89.736ZM228.932 90.056L226.178 88.8658L207.618 131.81L210.372 133L213.126 134.19L231.686 91.2462L228.932 90.056ZM210.372 133V130H196.932V133V136H210.372V133ZM196.932 133L199.683 131.803L181.059 88.9874L178.308 90.184L175.557 91.3806L194.181 134.197L196.932 133ZM178.308 90.184L178.639 93.1656L181.519 92.8456L181.188 89.864L180.857 86.8823L177.977 87.2023L178.308 90.184ZM181.188 89.864H178.188V133H181.188H184.188V89.864H181.188ZM181.188 133V130H168.58V133V136H181.188V133ZM168.58 133H171.58V85H168.58H165.58V133H168.58ZM168.58 85V88H189.06V85V82H168.58V85ZM189.06 85L186.292 86.1563L203.508 127.372L206.276 126.216L209.044 125.06L191.828 83.8437L189.06 85ZM206.276 126.216V123.216H201.156V126.216V129.216H206.276V126.216ZM201.156 126.216L203.927 127.365L221.015 86.149L218.244 85L215.473 83.851L198.385 125.067L201.156 126.216ZM218.244 85V88H238.724V85V82H218.244V85ZM265.497 130.888L264.177 133.582L264.188 133.587L265.497 130.888ZM255.513 122.12L252.969 123.71L252.975 123.72L252.982 123.731L255.513 122.12ZM255.513 95.88L252.982 94.2694L252.975 94.2797L252.969 94.29L255.513 95.88ZM265.497 87.112L264.188 84.4129L264.177 84.418L265.497 87.112ZM295.449 87.112L294.129 89.806L294.129 89.806L295.449 87.112ZM305.433 95.88L307.964 94.2694L307.964 94.2694L305.433 95.88ZM305.433 122.12L307.964 123.731L307.964 123.731L305.433 122.12ZM295.449 130.888L294.129 128.194L294.129 128.194L295.449 130.888ZM288.537 120.584L289.817 123.297L289.817 123.297L288.537 120.584ZM293.721 116.04L291.183 114.44L291.171 114.46L291.158 114.48L293.721 116.04ZM293.721 101.96L291.158 103.52L291.171 103.54L291.183 103.56L293.721 101.96ZM288.537 97.416L289.817 94.7027L289.817 94.7027L288.537 97.416ZM272.473 97.416L271.193 94.7027L271.193 94.7027L272.473 97.416ZM267.225 101.96L264.687 100.36L264.687 100.36L267.225 101.96ZM267.225 116.04L264.687 117.64L264.687 117.64L267.225 116.04ZM272.473 120.584L271.193 123.297L271.193 123.297L272.473 120.584ZM280.473 134.024V131.024C275.169 131.024 270.639 130.048 266.806 128.189L265.497 130.888L264.188 133.587C268.974 135.909 274.428 137.024 280.473 137.024V134.024ZM265.497 130.888L266.817 128.194C263.011 126.329 260.117 123.767 258.044 120.509L255.513 122.12L252.982 123.731C255.688 127.983 259.45 131.266 264.177 133.582L265.497 130.888ZM255.513 122.12L258.057 120.53C256.045 117.311 254.993 113.503 254.993 109H251.993H248.993C248.993 114.481 250.288 119.42 252.969 123.71L255.513 122.12ZM251.993 109H254.993C254.993 104.497 256.045 100.689 258.057 97.47L255.513 95.88L252.969 94.29C250.288 98.5803 248.993 103.519 248.993 109H251.993ZM255.513 95.88L258.044 97.4906C260.117 94.2333 263.011 91.6709 266.817 89.806L265.497 87.112L264.177 84.418C259.45 86.7345 255.688 90.0174 252.982 94.2694L255.513 95.88ZM265.497 87.112L266.806 89.8111C270.639 87.9518 275.169 86.976 280.473 86.976V83.976V80.976C274.428 80.976 268.974 82.0909 264.188 84.4129L265.497 87.112ZM280.473 83.976V86.976C285.825 86.976 290.348 87.9535 294.129 89.806L295.449 87.112L296.769 84.418C292.016 82.0892 286.556 80.976 280.473 80.976V83.976ZM295.449 87.112L294.129 89.806C297.935 91.6709 300.829 94.2333 302.902 97.4906L305.433 95.88L307.964 94.2694C305.258 90.0174 301.496 86.7345 296.769 84.418L295.449 87.112ZM305.433 95.88L302.902 97.4906C304.949 100.707 306.017 104.507 306.017 109H309.017H312.017C312.017 103.509 310.696 98.5624 307.964 94.2694L305.433 95.88ZM309.017 109H306.017C306.017 113.493 304.949 117.293 302.902 120.509L305.433 122.12L307.964 123.731C310.696 119.438 312.017 114.491 312.017 109H309.017ZM305.433 122.12L302.902 120.509C300.829 123.767 297.935 126.329 294.129 128.194L295.449 130.888L296.769 133.582C301.496 131.266 305.258 127.983 307.964 123.731L305.433 122.12ZM295.449 130.888L294.129 128.194C290.348 130.046 285.825 131.024 280.473 131.024V134.024V137.024C286.556 137.024 292.016 135.911 296.769 133.582L295.449 130.888ZM280.473 122.184V125.184C283.924 125.184 287.069 124.593 289.817 123.297L288.537 120.584L287.257 117.871C285.482 118.708 283.251 119.184 280.473 119.184V122.184ZM288.537 120.584L289.817 123.297C292.561 122.003 294.757 120.109 296.284 117.6L293.721 116.04L291.158 114.48C290.296 115.897 289.036 117.032 287.257 117.871L288.537 120.584ZM293.721 116.04L296.259 117.64C297.848 115.119 298.577 112.195 298.577 109H295.577H292.577C292.577 111.266 292.069 113.036 291.183 114.44L293.721 116.04ZM295.577 109H298.577C298.577 105.805 297.848 102.881 296.259 100.36L293.721 101.96L291.183 103.56C292.069 104.964 292.577 106.734 292.577 109H295.577ZM293.721 101.96L296.284 100.4C294.757 97.8915 292.561 95.9969 289.817 94.7027L288.537 97.416L287.257 100.129C289.036 100.968 290.296 102.103 291.158 103.52L293.721 101.96ZM288.537 97.416L289.817 94.7027C287.069 93.4067 283.924 92.816 280.473 92.816V95.816V98.816C283.251 98.816 285.482 99.2919 287.257 100.129L288.537 97.416ZM280.473 95.816V92.816C277.057 92.816 273.936 93.4091 271.193 94.7027L272.473 97.416L273.753 100.129C275.533 99.2895 277.745 98.816 280.473 98.816V95.816ZM272.473 97.416L271.193 94.7027C268.457 95.9934 266.253 97.8764 264.687 100.36L267.225 101.96L269.763 103.56C270.672 102.118 271.966 100.972 273.753 100.129L272.473 97.416ZM267.225 101.96L264.687 100.36C263.098 102.881 262.369 105.805 262.369 109H265.369H268.369C268.369 106.734 268.877 104.964 269.763 103.56L267.225 101.96ZM265.369 109H262.369C262.369 112.195 263.098 115.119 264.687 117.64L267.225 116.04L269.763 114.44C268.877 113.036 268.369 111.266 268.369 109H265.369ZM267.225 116.04L264.687 117.64C266.253 120.124 268.457 122.007 271.193 123.297L272.473 120.584L273.753 117.871C271.966 117.028 270.672 115.882 269.763 114.44L267.225 116.04ZM272.473 120.584L271.193 123.297C273.936 124.591 277.057 125.184 280.473 125.184V122.184V119.184C277.745 119.184 275.533 118.71 273.753 117.871L272.473 120.584ZM347.734 127.048V130.048H352.343L350.477 125.833L347.734 127.048ZM342.102 127.048L339.355 125.84L337.504 130.048H342.102V127.048ZM360.598 85V82H358.64L357.851 83.7921L360.598 85ZM374.614 85L377.333 86.2657L379.318 82H374.614V85ZM352.278 133V136H354.19L354.997 134.266L352.278 133ZM337.238 133L334.518 134.266L335.325 136H337.238V133ZM314.902 85V82H310.197L312.182 86.2657L314.902 85ZM329.11 85L331.853 83.7851L331.062 82H329.11V85ZM347.734 127.048V124.048H342.102V127.048V130.048H347.734V127.048ZM342.102 127.048L344.848 128.256L363.344 86.2079L360.598 85L357.851 83.7921L339.355 125.84L342.102 127.048ZM360.598 85V88H374.614V85V82H360.598V85ZM374.614 85L371.894 83.7343L349.558 131.734L352.278 133L354.997 134.266L377.333 86.2657L374.614 85ZM352.278 133V130H337.238V133V136H352.278V133ZM337.238 133L339.957 131.734L317.621 83.7343L314.902 85L312.182 86.2657L334.518 134.266L337.238 133ZM314.902 85V88H329.11V85V82H314.902V85ZM329.11 85L326.367 86.2149L344.991 128.263L347.734 127.048L350.477 125.833L331.853 83.7851L329.11 85ZM386.686 123.784H383.686V126.784H386.686V123.784ZM386.686 113.096V110.096H383.686V113.096H386.686ZM419.774 113.096H422.774V110.096H419.774V113.096ZM419.774 123.784V126.784H422.774V123.784H419.774ZM412.222 85L414.953 83.7583L414.154 82H412.222V85ZM434.046 133V136H438.706L436.777 131.758L434.046 133ZM419.902 133L417.149 134.19L417.931 136H419.902V133ZM401.598 90.632V87.632H397.034L398.845 91.8218L401.598 90.632ZM405.438 90.632L408.191 91.8253L410.009 87.632H405.438V90.632ZM387.07 133V136H389.04L389.823 134.193L387.07 133ZM372.926 133L370.196 131.758L368.267 136H372.926V133ZM394.75 85V82H392.819L392.02 83.7583L394.75 85ZM386.686 123.784H389.686V113.096H386.686H383.686V123.784H386.686ZM386.686 113.096V116.096H419.774V113.096V110.096H386.686V113.096ZM419.774 113.096H416.774V123.784H419.774H422.774V113.096H419.774ZM419.774 123.784V120.784H386.686V123.784V126.784H419.774V123.784ZM412.222 85L409.492 86.2417L431.316 134.242L434.046 133L436.777 131.758L414.953 83.7583L412.222 85ZM434.046 133V130H419.902V133V136H434.046V133ZM419.902 133L422.656 131.81L404.352 89.4422L401.598 90.632L398.845 91.8218L417.149 134.19L419.902 133ZM401.598 90.632V93.632H405.438V90.632V87.632H401.598V90.632ZM405.438 90.632L402.686 89.4387L384.318 131.807L387.07 133L389.823 134.193L408.191 91.8253L405.438 90.632ZM387.07 133V130H372.926V133V136H387.07V133ZM372.926 133L375.657 134.242L397.481 86.2417L394.75 85L392.02 83.7583L370.196 131.758L372.926 133ZM394.75 85V88H412.222V85V82H394.75V85ZM458.241 85H461.241V82H458.241V85ZM458.241 127.112L456.131 129.245L461.241 134.3V127.112H458.241ZM452.289 121.224V118.224H444.99L450.179 123.357L452.289 121.224ZM488.193 121.224H491.193V118.224H488.193V121.224ZM488.193 133V136H491.193V133H488.193ZM444.993 133H441.993V136H444.993V133ZM444.993 85V82H441.993V85H444.993ZM458.241 85H455.241V127.112H458.241H461.241V85H458.241ZM458.241 127.112L460.35 124.979L454.398 119.091L452.289 121.224L450.179 123.357L456.131 129.245L458.241 127.112ZM452.289 121.224V124.224H488.193V121.224V118.224H452.289V121.224ZM488.193 121.224H485.193V133H488.193H491.193V121.224H488.193ZM488.193 133V130H444.993V133V136H488.193V133ZM444.993 133H447.993V85H444.993H441.993V133H444.993ZM444.993 85V88H458.241V85V82H444.993V85Z" fill="#F6007A" mask="url(#path-1-outside-1_130_50)"></path></svg>