<svg xmlns="http://www.w3.org/2000/svg" width="624" height="80" viewBox="0 0 624 80" fill="none"><mask id="path-1-outside-1_5043_604" maskUnits="userSpaceOnUse" x="27" y="10" width="572" height="59" fill="black"><rect fill="white" x="27" y="10" width="572" height="59"></rect><path d="M64.9295 40.512L66.0175 38.016C69.7295 38.1013 72.7802 38.6773 75.1695 39.744C77.6015 40.768 79.4148 42.2187 80.6095 44.096C81.8042 45.9307 82.4015 48.064 82.4015 50.496C82.4015 53.0987 81.8042 55.424 80.6095 57.472C79.4148 59.4773 77.6228 61.0773 75.2335 62.272C72.8868 63.424 69.9428 64 66.4015 64H30.9455L34.6575 39.36L30.9455 16H65.1215C69.5588 16 73.0148 17.0453 75.4895 19.136C77.9642 21.184 79.2015 24.0427 79.2015 27.712C79.2015 29.7173 78.7322 31.6373 77.7935 33.472C76.8548 35.3067 75.3402 36.864 73.2495 38.144C71.2015 39.3813 68.4282 40.1707 64.9295 40.512ZM44.0655 60.928L38.9455 54.72H62.8175C64.7375 54.72 66.2308 54.2507 67.2975 53.312C68.3642 52.3733 68.8975 51.072 68.8975 49.408C68.8975 47.744 68.3215 46.4213 67.1695 45.44C66.0175 44.416 64.3108 43.904 62.0495 43.904H42.3375V34.816H60.2575C61.7935 34.816 63.0735 34.368 64.0975 33.472C65.1642 32.5333 65.6975 31.2747 65.6975 29.696C65.6975 28.416 65.2495 27.3707 64.3535 26.56C63.4575 25.7067 62.1775 25.28 60.5135 25.28H39.0095L44.0655 19.072L47.3295 39.36L44.0655 60.928ZM115.674 65.024C111.237 65.024 107.269 64.2133 103.77 62.592C100.314 60.9707 97.5833 58.7093 95.578 55.808C93.5727 52.864 92.57 49.4507 92.57 45.568C92.57 41.7707 93.53 38.4427 95.45 35.584C97.37 32.6827 99.994 30.4213 103.322 28.8C106.693 27.1787 110.49 26.368 114.714 26.368C119.109 26.368 122.842 27.328 125.914 29.248C129.029 31.1253 131.418 33.792 133.082 37.248C134.789 40.704 135.642 44.7787 135.642 49.472H103.13V41.6H128.282L123.994 44.352C123.823 42.4747 123.354 40.896 122.586 39.616C121.818 38.2933 120.794 37.2907 119.514 36.608C118.277 35.9253 116.783 35.584 115.034 35.584C113.114 35.584 111.471 35.968 110.106 36.736C108.741 37.504 107.674 38.5707 106.906 39.936C106.138 41.2587 105.754 42.816 105.754 44.608C105.754 46.912 106.266 48.8747 107.29 50.496C108.357 52.0747 109.893 53.2907 111.898 54.144C113.946 54.9973 116.442 55.424 119.386 55.424C122.074 55.424 124.741 55.0827 127.386 54.4C130.074 53.6747 132.506 52.672 134.682 51.392V59.712C132.165 61.4187 129.285 62.7413 126.042 63.68C122.842 64.576 119.386 65.024 115.674 65.024ZM173.118 23.424C170.259 23.424 168.254 23.936 167.102 24.96C165.993 25.9413 165.438 27.5413 165.438 29.76V64H152.382V30.4C152.382 26.8587 153.107 23.8507 154.558 21.376C156.009 18.8587 158.142 16.96 160.958 15.68C163.817 14.3573 167.337 13.696 171.518 13.696C173.395 13.696 175.059 13.824 176.51 14.08C178.003 14.336 179.582 14.6987 181.246 15.168V24.768C179.966 24.2987 178.643 23.9573 177.278 23.744C175.955 23.5307 174.569 23.424 173.118 23.424ZM144.958 40.128V30.464H180.35V40.128H144.958ZM211.856 65.024C207.163 65.024 203.067 64.2347 199.568 62.656C196.07 61.0347 193.339 58.7733 191.376 55.872C189.414 52.928 188.432 49.5573 188.432 45.76C188.432 41.8773 189.414 38.4853 191.376 35.584C193.339 32.6827 196.07 30.4213 199.568 28.8C203.067 27.1787 207.163 26.368 211.856 26.368C216.507 26.368 220.582 27.1787 224.08 28.8C227.622 30.4213 230.374 32.6827 232.336 35.584C234.299 38.4853 235.28 41.8773 235.28 45.76C235.28 49.5573 234.299 52.928 232.336 55.872C230.374 58.7733 227.622 61.0347 224.08 62.656C220.582 64.2347 216.507 65.024 211.856 65.024ZM211.856 55.36C213.99 55.36 215.803 54.976 217.296 54.208C218.832 53.44 220.006 52.3307 220.816 50.88C221.627 49.4293 222.032 47.7227 222.032 45.76C222.032 43.712 221.627 41.984 220.816 40.576C220.006 39.1253 218.832 38.016 217.296 37.248C215.803 36.48 213.99 36.096 211.856 36.096C209.723 36.096 207.888 36.48 206.352 37.248C204.816 38.016 203.643 39.1253 202.832 40.576C202.022 41.984 201.616 43.6907 201.616 45.696C201.616 47.7013 202.022 49.4293 202.832 50.88C203.643 52.3307 204.816 53.44 206.352 54.208C207.888 54.976 209.723 55.36 211.856 55.36ZM245.206 27.456H258.518L260.694 40.512V64H247.638V39.744L245.206 27.456ZM277.846 26.88V38.016C276.566 37.76 275.35 37.5893 274.198 37.504C273.089 37.376 272.065 37.312 271.126 37.312C269.249 37.312 267.521 37.696 265.942 38.464C264.363 39.1893 263.083 40.4053 262.102 42.112C261.163 43.8187 260.694 46.1013 260.694 48.96L258.198 45.888C258.539 43.2427 259.051 40.768 259.734 38.464C260.417 36.1173 261.334 34.048 262.486 32.256C263.681 30.4213 265.153 28.992 266.902 27.968C268.651 26.9013 270.785 26.368 273.302 26.368C274.027 26.368 274.774 26.4107 275.542 26.496C276.31 26.5813 277.078 26.7093 277.846 26.88ZM309.149 65.024C304.712 65.024 300.744 64.2133 297.245 62.592C293.789 60.9707 291.058 58.7093 289.053 55.808C287.048 52.864 286.045 49.4507 286.045 45.568C286.045 41.7707 287.005 38.4427 288.925 35.584C290.845 32.6827 293.469 30.4213 296.797 28.8C300.168 27.1787 303.965 26.368 308.189 26.368C312.584 26.368 316.317 27.328 319.389 29.248C322.504 31.1253 324.893 33.792 326.557 37.248C328.264 40.704 329.117 44.7787 329.117 49.472H296.605V41.6H321.757L317.469 44.352C317.298 42.4747 316.829 40.896 316.061 39.616C315.293 38.2933 314.269 37.2907 312.989 36.608C311.752 35.9253 310.258 35.584 308.509 35.584C306.589 35.584 304.946 35.968 303.581 36.736C302.216 37.504 301.149 38.5707 300.381 39.936C299.613 41.2587 299.229 42.816 299.229 44.608C299.229 46.912 299.741 48.8747 300.765 50.496C301.832 52.0747 303.368 53.2907 305.373 54.144C307.421 54.9973 309.917 55.424 312.861 55.424C315.549 55.424 318.216 55.0827 320.861 54.4C323.549 53.6747 325.981 52.672 328.157 51.392V59.712C325.64 61.4187 322.76 62.7413 319.517 63.68C316.317 64.576 312.861 65.024 309.149 65.024ZM356.341 14.272H366.069L348.149 65.728H338.421L356.341 14.272ZM381.624 54.784V44.096H414.712V54.784H381.624ZM407.16 16L428.984 64H414.84L396.536 21.632H400.376L382.008 64H367.864L389.688 16H407.16ZM460.881 22.912C458.364 22.912 456.55 23.3173 455.441 24.128C454.374 24.9387 453.841 26.24 453.841 28.032V64H440.721V30.272C440.721 26.7307 441.425 23.7227 442.833 21.248C444.241 18.7733 446.31 16.896 449.041 15.616C451.814 14.336 455.249 13.696 459.345 13.696C460.966 13.696 462.438 13.824 463.761 14.08C465.126 14.336 466.47 14.6987 467.793 15.168V23.808C466.726 23.5093 465.617 23.296 464.465 23.168C463.356 22.9973 462.161 22.912 460.881 22.912ZM433.297 39.424V29.376H467.281V39.424H433.297ZM463.697 39.424V29.376H471.377L476.817 18.112H484.241V28.864H499.601V38.912H484.241V47.552C484.241 50.1547 484.774 52.0107 485.841 53.12C486.908 54.1867 488.87 54.72 491.729 54.72C493.478 54.72 495.036 54.5707 496.401 54.272C497.809 53.9307 499.089 53.4827 500.241 52.928L500.305 62.912C498.94 63.424 497.212 63.872 495.121 64.256C493.073 64.6827 490.918 64.896 488.657 64.896C484.646 64.896 481.34 64.2773 478.737 63.04C476.177 61.8027 474.278 60.032 473.041 57.728C471.804 55.3813 471.185 52.6507 471.185 49.536V39.424H463.697ZM532.499 65.024C528.062 65.024 524.094 64.2133 520.595 62.592C517.139 60.9707 514.408 58.7093 512.403 55.808C510.398 52.864 509.395 49.4507 509.395 45.568C509.395 41.7707 510.355 38.4427 512.275 35.584C514.195 32.6827 516.819 30.4213 520.147 28.8C523.518 27.1787 527.315 26.368 531.539 26.368C535.934 26.368 539.667 27.328 542.739 29.248C545.854 31.1253 548.243 33.792 549.907 37.248C551.614 40.704 552.467 44.7787 552.467 49.472H519.955V41.6H545.107L540.819 44.352C540.648 42.4747 540.179 40.896 539.411 39.616C538.643 38.2933 537.619 37.2907 536.339 36.608C535.102 35.9253 533.608 35.584 531.859 35.584C529.939 35.584 528.296 35.968 526.931 36.736C525.566 37.504 524.499 38.5707 523.731 39.936C522.963 41.2587 522.579 42.816 522.579 44.608C522.579 46.912 523.091 48.8747 524.115 50.496C525.182 52.0747 526.718 53.2907 528.723 54.144C530.771 54.9973 533.267 55.424 536.211 55.424C538.899 55.424 541.566 55.0827 544.211 54.4C546.899 53.6747 549.331 52.672 551.507 51.392V59.712C548.99 61.4187 546.11 62.7413 542.867 63.68C539.667 64.576 536.211 65.024 532.499 65.024ZM562.544 27.456H575.856L578.032 40.512V64H564.976V39.744L562.544 27.456ZM595.184 26.88V38.016C593.904 37.76 592.688 37.5893 591.536 37.504C590.426 37.376 589.402 37.312 588.464 37.312C586.586 37.312 584.858 37.696 583.28 38.464C581.701 39.1893 580.421 40.4053 579.44 42.112C578.501 43.8187 578.032 46.1013 578.032 48.96L575.536 45.888C575.877 43.2427 576.389 40.768 577.072 38.464C577.754 36.1173 578.672 34.048 579.824 32.256C581.018 30.4213 582.49 28.992 584.24 27.968C585.989 26.9013 588.122 26.368 590.64 26.368C591.365 26.368 592.112 26.4107 592.88 26.496C593.648 26.5813 594.416 26.7093 595.184 26.88Z"></path></mask><path d="M64.9295 40.512L62.1794 39.3132L60.1393 43.9936L65.2208 43.4978L64.9295 40.512ZM66.0175 38.016L66.0864 35.0168L64.0724 34.9705L63.2674 36.8172L66.0175 38.016ZM75.1695 39.744L73.9465 42.4834L73.9758 42.4965L74.0053 42.5089L75.1695 39.744ZM80.6095 44.096L78.0785 45.7066L78.0869 45.7199L78.0955 45.733L80.6095 44.096ZM80.6095 57.472L83.1868 59.0074L83.1939 58.9955L83.2008 58.9836L80.6095 57.472ZM75.2335 62.272L76.5555 64.965L76.5653 64.9602L76.5751 64.9553L75.2335 62.272ZM30.9455 64L27.979 63.5531L27.4597 67H30.9455V64ZM34.6575 39.36L37.624 39.8069L37.6932 39.3478L37.6203 38.8892L34.6575 39.36ZM30.9455 16V13H27.4311L27.9827 16.4708L30.9455 16ZM75.4895 19.136L73.5534 21.4277L73.5651 21.4375L73.5768 21.4472L75.4895 19.136ZM73.2495 38.144L74.8008 40.7117L74.8084 40.7072L74.816 40.7026L73.2495 38.144ZM44.0655 60.928L41.7511 62.8368L46.0263 68.0205L47.0317 61.3769L44.0655 60.928ZM38.9455 54.72V51.72H32.5826L36.6311 56.6288L38.9455 54.72ZM67.2975 53.312L65.3156 51.0599L65.3156 51.0599L67.2975 53.312ZM67.1695 45.44L65.1764 47.6822L65.2 47.7032L65.2241 47.7237L67.1695 45.44ZM42.3375 43.904H39.3375V46.904H42.3375V43.904ZM42.3375 34.816V31.816H39.3375V34.816H42.3375ZM64.0975 33.472L66.073 35.7297L66.0794 35.7241L64.0975 33.472ZM64.3535 26.56L62.2845 28.7324L62.3123 28.7589L62.3408 28.7846L64.3535 26.56ZM39.0095 25.28L36.6834 23.3855L32.6971 28.28H39.0095V25.28ZM44.0655 19.072L47.0274 18.5955L45.9646 11.9895L41.7394 17.1775L44.0655 19.072ZM47.3295 39.36L50.2957 39.8089L50.3658 39.3458L50.2914 38.8835L47.3295 39.36ZM67.6796 41.7108L68.7676 39.2148L63.2674 36.8172L62.1794 39.3132L67.6796 41.7108ZM65.9486 41.0152C69.4167 41.0949 72.0393 41.632 73.9465 42.4834L76.3925 37.0046C73.521 35.7227 70.0423 35.1077 66.0864 35.0168L65.9486 41.0152ZM74.0053 42.5089C75.9818 43.3411 77.2687 44.434 78.0785 45.7066L83.1405 42.4854C81.561 40.0033 79.2212 38.1949 76.3337 36.9791L74.0053 42.5089ZM78.0955 45.733C78.9385 47.0275 79.4015 48.5785 79.4015 50.496H85.4015C85.4015 47.5495 84.6699 44.8338 83.1235 42.459L78.0955 45.733ZM79.4015 50.496C79.4015 52.6209 78.9195 54.4152 78.0182 55.9604L83.2008 58.9836C84.6888 56.4328 85.4015 53.5764 85.4015 50.496H79.4015ZM78.0322 55.9366C77.1718 57.3808 75.844 58.6126 73.8919 59.5887L76.5751 64.9553C79.4016 63.542 81.6578 61.5739 83.1868 59.0074L78.0322 55.9366ZM73.9115 59.579C72.0954 60.4705 69.6388 61 66.4015 61V67C70.2468 67 73.6783 66.3775 76.5555 64.965L73.9115 59.579ZM66.4015 61H30.9455V67H66.4015V61ZM33.912 64.4469L37.624 39.8069L31.691 38.9131L27.979 63.5531L33.912 64.4469ZM37.6203 38.8892L33.9083 15.5292L27.9827 16.4708L31.6947 39.8308L37.6203 38.8892ZM30.9455 19H65.1215V13H30.9455V19ZM65.1215 19C69.1117 19 71.7912 19.9388 73.5534 21.4277L77.4256 16.8443C74.2385 14.1518 70.0059 13 65.1215 13V19ZM73.5768 21.4472C75.26 22.8401 76.2015 24.7939 76.2015 27.712H82.2015C82.2015 23.2914 80.6684 19.5279 77.4022 16.8248L73.5768 21.4472ZM76.2015 27.712C76.2015 29.2288 75.8512 30.6817 75.1228 32.1056L80.4642 34.8384C81.6131 32.5929 82.2015 30.2059 82.2015 27.712H76.2015ZM75.1228 32.1056C74.4796 33.3627 73.393 34.5386 71.683 35.5854L74.816 40.7026C77.2874 39.1894 79.2301 37.2506 80.4642 34.8384L75.1228 32.1056ZM71.6982 35.5763C70.1705 36.4992 67.8834 37.2096 64.6382 37.5262L65.2208 43.4978C68.9729 43.1318 72.2325 42.2635 74.8008 40.7117L71.6982 35.5763ZM46.3799 59.0192L41.2599 52.8112L36.6311 56.6288L41.7511 62.8368L46.3799 59.0192ZM38.9455 57.72H62.8175V51.72H38.9455V57.72ZM62.8175 57.72C65.2085 57.72 67.4978 57.1319 69.2794 55.5641L65.3156 51.0599C64.9638 51.3694 64.2665 51.72 62.8175 51.72V57.72ZM69.2794 55.5641C71.106 53.9567 71.8975 51.7717 71.8975 49.408H65.8975C65.8975 50.3723 65.6224 50.7899 65.3156 51.0599L69.2794 55.5641ZM71.8975 49.408C71.8975 46.9638 71.0077 44.7687 69.1149 43.1563L65.2241 47.7237C65.6353 48.074 65.8975 48.5242 65.8975 49.408H71.8975ZM69.1626 43.1978C67.2535 41.5008 64.7093 40.904 62.0495 40.904V46.904C63.9124 46.904 64.7815 47.3312 65.1764 47.6822L69.1626 43.1978ZM62.0495 40.904H42.3375V46.904H62.0495V40.904ZM45.3375 43.904V34.816H39.3375V43.904H45.3375ZM42.3375 37.816H60.2575V31.816H42.3375V37.816ZM60.2575 37.816C62.4201 37.816 64.4312 37.1663 66.073 35.7297L62.122 31.2143C61.7158 31.5697 61.1669 31.816 60.2575 31.816V37.816ZM66.0794 35.7241C67.8696 34.1488 68.6975 32.0297 68.6975 29.696H62.6975C62.6975 30.5196 62.4588 30.9179 62.1156 31.2199L66.0794 35.7241ZM68.6975 29.696C68.6975 27.625 67.9317 25.7518 66.3662 24.3354L62.3408 28.7846C62.5673 28.9895 62.6975 29.207 62.6975 29.696H68.6975ZM66.4225 24.3876C64.7989 22.8413 62.6763 22.28 60.5135 22.28V28.28C61.6787 28.28 62.1161 28.572 62.2845 28.7324L66.4225 24.3876ZM60.5135 22.28H39.0095V28.28H60.5135V22.28ZM41.3356 27.1745L46.3916 20.9665L41.7394 17.1775L36.6834 23.3855L41.3356 27.1745ZM41.1036 19.5485L44.3676 39.8365L50.2914 38.8835L47.0274 18.5955L41.1036 19.5485ZM44.3633 38.9111L41.0993 60.4791L47.0317 61.3769L50.2957 39.8089L44.3633 38.9111ZM103.77 62.592L102.496 65.308L102.509 65.3139L103.77 62.592ZM95.578 55.808L93.0986 57.4969L93.1043 57.5053L93.1101 57.5137L95.578 55.808ZM95.45 35.584L97.9404 37.2567L97.9461 37.2482L97.9518 37.2396L95.45 35.584ZM103.322 28.8L102.022 26.0965L102.015 26.0997L102.008 26.103L103.322 28.8ZM125.914 29.248L124.324 31.792L124.345 31.8048L124.365 31.8174L125.914 29.248ZM133.082 37.248L130.379 38.5494L130.385 38.5629L130.392 38.5763L133.082 37.248ZM135.642 49.472V52.472H138.642V49.472H135.642ZM103.13 49.472H100.13V52.472H103.13V49.472ZM103.13 41.6V38.6H100.13V41.6H103.13ZM128.282 41.6L129.902 44.1248L138.511 38.6H128.282V41.6ZM123.994 44.352L121.006 44.6236L121.454 49.5469L125.614 46.8768L123.994 44.352ZM122.586 39.616L119.992 41.1224L120.002 41.141L120.014 41.1595L122.586 39.616ZM119.514 36.608L118.065 39.2347L118.083 39.245L118.102 39.2551L119.514 36.608ZM106.906 39.936L109.5 41.4424L109.511 41.4247L109.521 41.4068L106.906 39.936ZM107.29 50.496L104.754 52.098L104.778 52.1372L104.804 52.1756L107.29 50.496ZM111.898 54.144L110.723 56.9045L110.734 56.9089L110.744 56.9132L111.898 54.144ZM127.386 54.4L128.136 57.3048L128.152 57.3007L128.168 57.2964L127.386 54.4ZM134.682 51.392H137.682V46.1467L133.161 48.8062L134.682 51.392ZM134.682 59.712L136.365 62.1951L137.682 61.3026V59.712H134.682ZM126.042 63.68L126.851 66.5689L126.864 66.5653L126.876 66.5617L126.042 63.68ZM115.674 62.024C111.607 62.024 108.079 61.2825 105.031 59.8701L102.509 65.3139C106.458 67.1441 110.866 68.024 115.674 68.024V62.024ZM105.044 59.876C102.028 58.4608 99.725 56.5316 98.0459 54.1023L93.1101 57.5137C95.4417 60.8871 98.6005 63.4805 102.496 65.308L105.044 59.876ZM98.0574 54.1191C96.4219 51.718 95.57 48.9049 95.57 45.568H89.57C89.57 49.9964 90.7235 54.01 93.0986 57.4969L98.0574 54.1191ZM95.57 45.568C95.57 42.3027 96.3865 39.5704 97.9404 37.2567L92.9596 33.9113C90.6736 37.315 89.57 41.2386 89.57 45.568H95.57ZM97.9518 37.2396C99.5569 34.8141 101.758 32.8992 104.636 31.497L102.008 26.103C98.2303 27.9435 95.1831 30.5512 92.9482 33.9284L97.9518 37.2396ZM104.622 31.5035C107.538 30.1012 110.882 29.368 114.714 29.368V23.368C110.098 23.368 105.848 24.2561 102.022 26.0965L104.622 31.5035ZM114.714 29.368C118.667 29.368 121.822 30.2279 124.324 31.792L127.504 26.704C123.862 24.4281 119.551 23.368 114.714 23.368V29.368ZM124.365 31.8174C126.952 33.3765 128.954 35.5891 130.379 38.5494L135.785 35.9466C133.882 31.9949 131.105 28.8742 127.463 26.6786L124.365 31.8174ZM130.392 38.5763C131.855 41.539 132.642 45.1407 132.642 49.472H138.642C138.642 44.4167 137.722 39.869 135.772 35.9197L130.392 38.5763ZM135.642 46.472H103.13V52.472H135.642V46.472ZM106.13 49.472V41.6H100.13V49.472H106.13ZM103.13 44.6H128.282V38.6H103.13V44.6ZM126.662 39.0752L122.374 41.8272L125.614 46.8768L129.902 44.1248L126.662 39.0752ZM126.982 44.0804C126.781 41.8681 126.212 39.8278 125.158 38.0725L120.014 41.1595C120.496 41.9642 120.866 43.0812 121.006 44.6236L126.982 44.0804ZM125.18 38.1096C124.148 36.3315 122.726 34.9209 120.926 33.9609L118.102 39.2551C118.862 39.6604 119.488 40.2552 119.992 41.1224L125.18 38.1096ZM120.963 33.9813C119.188 33.002 117.171 32.584 115.034 32.584V38.584C116.396 38.584 117.365 38.8486 118.065 39.2347L120.963 33.9813ZM115.034 32.584C112.714 32.584 110.54 33.0496 108.635 34.1213L111.577 39.3507C112.402 38.8864 113.514 38.584 115.034 38.584V32.584ZM108.635 34.1213C106.791 35.1586 105.329 36.621 104.291 38.4652L109.521 41.4068C110.019 40.5203 110.69 39.8494 111.577 39.3507L108.635 34.1213ZM104.312 38.4296C103.235 40.2831 102.754 42.3785 102.754 44.608H108.754C108.754 43.2535 109.041 42.2343 109.5 41.4424L104.312 38.4296ZM102.754 44.608C102.754 47.3638 103.371 49.9083 104.754 52.098L109.826 48.894C109.161 47.8411 108.754 46.4602 108.754 44.608H102.754ZM104.804 52.1756C106.239 54.2995 108.265 55.8582 110.723 56.9045L113.073 51.3835C111.521 50.7232 110.474 49.8498 109.776 48.8164L104.804 52.1756ZM110.744 56.9132C113.256 57.9599 116.169 58.424 119.386 58.424V52.424C116.715 52.424 114.636 52.0348 113.052 51.3748L110.744 56.9132ZM119.386 58.424C122.331 58.424 125.249 58.0496 128.136 57.3048L126.636 51.4952C124.232 52.1157 121.817 52.424 119.386 52.424V58.424ZM128.168 57.2964C131.089 56.5082 133.773 55.4071 136.203 53.9778L133.161 48.8062C131.239 49.9369 129.059 50.8411 126.604 51.5036L128.168 57.2964ZM131.682 51.392V59.712H137.682V51.392H131.682ZM132.999 57.2289C130.769 58.7407 128.181 59.9376 125.208 60.7983L126.876 66.5617C130.388 65.5451 133.561 64.0966 136.365 62.1951L132.999 57.2289ZM125.233 60.7911C122.325 61.6053 119.144 62.024 115.674 62.024V68.024C119.628 68.024 123.359 67.5467 126.851 66.5689L125.233 60.7911ZM167.102 24.96L169.09 27.207L169.095 27.2022L167.102 24.96ZM165.438 64V67H168.438V64H165.438ZM152.382 64H149.382V67H152.382V64ZM154.558 21.376L157.146 22.8932L157.152 22.8835L157.157 22.8739L154.558 21.376ZM160.958 15.68L162.199 18.4111L162.209 18.4069L162.218 18.4027L160.958 15.68ZM176.51 14.08L175.989 17.0343L175.996 17.0356L176.003 17.0369L176.51 14.08ZM181.246 15.168H184.246V12.8971L182.06 12.2807L181.246 15.168ZM181.246 24.768L180.213 27.5846L184.246 29.0633V24.768H181.246ZM177.278 23.744L176.8 26.7057L176.808 26.7069L176.815 26.708L177.278 23.744ZM144.958 40.128H141.958V43.128H144.958V40.128ZM144.958 30.464V27.464H141.958V30.464H144.958ZM180.35 30.464H183.35V27.464H180.35V30.464ZM180.35 40.128V43.128H183.35V40.128H180.35ZM173.118 20.424C170.081 20.424 167.118 20.9321 165.109 22.7178L169.095 27.2022C169.39 26.9399 170.438 26.424 173.118 26.424V20.424ZM165.114 22.713C163.097 24.4979 162.438 27.1134 162.438 29.76H168.438C168.438 27.9693 168.889 27.3847 169.09 27.207L165.114 22.713ZM162.438 29.76V64H168.438V29.76H162.438ZM165.438 61H152.382V67H165.438V61ZM155.382 64V30.4H149.382V64H155.382ZM155.382 30.4C155.382 27.2677 156.022 24.8112 157.146 22.8932L151.97 19.8588C150.193 22.8901 149.382 26.4496 149.382 30.4H155.382ZM157.157 22.8739C158.274 20.9353 159.915 19.4496 162.199 18.4111L159.717 12.9489C156.369 14.4704 153.743 16.782 151.959 19.8781L157.157 22.8739ZM162.218 18.4027C164.575 17.3122 167.636 16.696 171.518 16.696V10.696C167.037 10.696 163.059 11.4025 159.698 12.9573L162.218 18.4027ZM171.518 16.696C173.266 16.696 174.749 16.8157 175.989 17.0343L177.031 11.1256C175.369 10.8323 173.525 10.696 171.518 10.696V16.696ZM176.003 17.0369C177.38 17.2728 178.855 17.6107 180.432 18.0553L182.06 12.2807C180.309 11.7867 178.627 11.3992 177.017 11.1231L176.003 17.0369ZM178.246 15.168V24.768H184.246V15.168H178.246ZM182.279 21.9514C180.812 21.4134 179.298 21.0232 177.741 20.78L176.815 26.708C177.989 26.8914 179.12 27.1839 180.213 27.5846L182.279 21.9514ZM177.756 20.7823C176.263 20.5415 174.716 20.424 173.118 20.424V26.424C174.422 26.424 175.648 26.5199 176.8 26.7057L177.756 20.7823ZM147.958 40.128V30.464H141.958V40.128H147.958ZM144.958 33.464H180.35V27.464H144.958V33.464ZM177.35 30.464V40.128H183.35V30.464H177.35ZM180.35 37.128H144.958V43.128H180.35V37.128ZM199.568 62.656L198.307 65.3779L198.321 65.3843L198.335 65.3905L199.568 62.656ZM191.376 55.872L188.88 57.5361L188.886 57.5445L188.892 57.5529L191.376 55.872ZM191.376 35.584L188.892 33.9031L188.892 33.9031L191.376 35.584ZM224.08 28.8L222.819 31.522L222.832 31.5277L224.08 28.8ZM232.336 35.584L234.821 33.9031L234.821 33.9031L232.336 35.584ZM232.336 55.872L234.821 57.5529L234.827 57.5445L234.833 57.5361L232.336 55.872ZM224.08 62.656L225.314 65.3905L225.322 65.3871L225.329 65.3837L224.08 62.656ZM217.296 54.208L215.955 51.5247L215.94 51.5323L215.924 51.5401L217.296 54.208ZM220.816 50.88L218.198 49.4165L218.198 49.4165L220.816 50.88ZM220.816 40.576L218.198 42.0395L218.207 42.0562L218.217 42.0729L220.816 40.576ZM217.296 37.248L215.924 39.9159L215.94 39.9237L215.955 39.9313L217.296 37.248ZM206.352 37.248L205.011 34.5647L205.011 34.5647L206.352 37.248ZM202.832 40.576L205.432 42.0729L205.442 42.0562L205.451 42.0395L202.832 40.576ZM202.832 50.88L205.451 49.4165L205.451 49.4165L202.832 50.88ZM211.856 62.024C207.496 62.024 203.837 61.2907 200.802 59.9215L198.335 65.3905C202.297 67.1786 206.83 68.024 211.856 68.024V62.024ZM200.83 59.9341C197.775 58.5182 195.488 56.5959 193.861 54.1911L188.892 57.5529C191.19 60.9508 194.365 63.5511 198.307 65.3779L200.83 59.9341ZM193.873 54.2079C192.263 51.7932 191.432 49.0105 191.432 45.76H185.432C185.432 50.1041 186.565 54.0628 188.88 57.5361L193.873 54.2079ZM191.432 45.76C191.432 42.4089 192.27 39.6168 193.861 37.2649L188.892 33.9031C186.557 37.3539 185.432 41.3458 185.432 45.76H191.432ZM193.861 37.2649C195.488 34.8601 197.775 32.9378 200.83 31.5219L198.307 26.0781C194.365 27.9049 191.19 30.5052 188.892 33.9031L193.861 37.2649ZM200.83 31.5219C203.857 30.1191 207.506 29.368 211.856 29.368V23.368C206.82 23.368 202.277 24.2382 198.307 26.0781L200.83 31.5219ZM211.856 29.368C216.16 29.368 219.789 30.1176 222.819 31.5219L225.342 26.0781C221.375 24.2398 216.855 23.368 211.856 23.368V29.368ZM222.832 31.5277C225.93 32.9464 228.231 34.869 229.852 37.2649L234.821 33.9031C232.517 30.4963 229.313 27.8963 225.329 26.0723L222.832 31.5277ZM229.852 37.2649C231.443 39.6168 232.28 42.4089 232.28 45.76H238.28C238.28 41.3458 237.156 37.3539 234.821 33.9031L229.852 37.2649ZM232.28 45.76C232.28 49.0105 231.45 51.7932 229.84 54.2079L234.833 57.5361C237.148 54.0628 238.28 50.1041 238.28 45.76H232.28ZM229.852 54.1911C228.231 56.587 225.93 58.5096 222.832 59.9283L225.329 65.3837C229.313 63.5597 232.517 60.9597 234.821 57.5529L229.852 54.1911ZM222.847 59.9215C219.809 61.2922 216.17 62.024 211.856 62.024V68.024C216.844 68.024 221.355 67.1772 225.314 65.3905L222.847 59.9215ZM211.856 58.36C214.341 58.36 216.652 57.9132 218.669 56.8759L215.924 51.5401C214.955 52.0388 213.638 52.36 211.856 52.36V58.36ZM218.638 56.8913C220.694 55.8636 222.321 54.338 223.435 52.3435L218.198 49.4165C217.691 50.3233 216.971 51.0164 215.955 51.5247L218.638 56.8913ZM223.435 52.3435C224.538 50.3708 225.032 48.142 225.032 45.76H219.032C219.032 47.3033 218.717 48.4879 218.198 49.4165L223.435 52.3435ZM225.032 45.76C225.032 43.3215 224.549 41.0466 223.416 39.0791L218.217 42.0729C218.705 42.9214 219.032 44.1025 219.032 45.76H225.032ZM223.435 39.1125C222.321 37.118 220.694 35.5924 218.638 34.5647L215.955 39.9313C216.971 40.4396 217.691 41.1327 218.198 42.0395L223.435 39.1125ZM218.669 34.5801C216.652 33.5428 214.341 33.096 211.856 33.096V39.096C213.638 39.096 214.955 39.4171 215.924 39.9159L218.669 34.5801ZM211.856 33.096C209.368 33.096 207.052 33.5441 205.011 34.5647L207.694 39.9313C208.725 39.4159 210.078 39.096 211.856 39.096V33.096ZM205.011 34.5647C202.955 35.5924 201.328 37.118 200.214 39.1125L205.451 42.0395C205.958 41.1327 206.678 40.4396 207.694 39.9313L205.011 34.5647ZM200.233 39.0791C199.105 41.0377 198.616 43.2874 198.616 45.696H204.616C204.616 44.094 204.939 42.9303 205.432 42.0729L200.233 39.0791ZM198.616 45.696C198.616 48.1082 199.106 50.3616 200.214 52.3435L205.451 49.4165C204.937 48.497 204.616 47.2945 204.616 45.696H198.616ZM200.214 52.3435C201.328 54.338 202.955 55.8636 205.011 56.8913L207.694 51.5247C206.678 51.0164 205.958 50.3233 205.451 49.4165L200.214 52.3435ZM205.011 56.8913C207.052 57.9119 209.368 58.36 211.856 58.36V52.36C210.078 52.36 208.725 52.0401 207.694 51.5247L205.011 56.8913ZM245.206 27.456V24.456H241.554L242.263 28.0384L245.206 27.456ZM258.518 27.456L261.477 26.9628L261.059 24.456H258.518V27.456ZM260.694 40.512H263.694V40.2637L263.653 40.0188L260.694 40.512ZM260.694 64V67H263.694V64H260.694ZM247.638 64H244.638V67H247.638V64ZM247.638 39.744H250.638V39.45L250.581 39.1615L247.638 39.744ZM277.846 26.88H280.846V24.4735L278.497 23.9514L277.846 26.88ZM277.846 38.016L277.258 40.9577L280.846 41.6754V38.016H277.846ZM274.198 37.504L273.854 40.4842L273.915 40.4913L273.976 40.4958L274.198 37.504ZM265.942 38.464L267.195 41.19L267.225 41.1762L267.254 41.1617L265.942 38.464ZM262.102 42.112L259.501 40.6166L259.487 40.6413L259.473 40.6662L262.102 42.112ZM260.694 48.96L258.366 50.8518L263.694 57.4097V48.96H260.694ZM258.198 45.888L255.223 45.5041L255.058 46.7807L255.87 47.7798L258.198 45.888ZM259.734 38.464L262.61 39.3163L262.613 39.3091L262.615 39.302L259.734 38.464ZM262.486 32.256L259.972 30.619L259.967 30.6263L259.962 30.6337L262.486 32.256ZM266.902 27.968L268.418 30.557L268.441 30.5434L268.464 30.5294L266.902 27.968ZM245.206 30.456H258.518V24.456H245.206V30.456ZM255.559 27.9492L257.735 41.0052L263.653 40.0188L261.477 26.9628L255.559 27.9492ZM257.694 40.512V64H263.694V40.512H257.694ZM260.694 61H247.638V67H260.694V61ZM250.638 64V39.744H244.638V64H250.638ZM250.581 39.1615L248.149 26.8735L242.263 28.0384L244.695 40.3265L250.581 39.1615ZM274.846 26.88V38.016H280.846V26.88H274.846ZM278.434 35.0743C277.049 34.7971 275.709 34.6077 274.42 34.5122L273.976 40.4958C274.991 40.5709 276.083 40.7229 277.258 40.9577L278.434 35.0743ZM274.542 34.5238C273.339 34.385 272.199 34.312 271.126 34.312V40.312C271.931 40.312 272.838 40.367 273.854 40.4842L274.542 34.5238ZM271.126 34.312C268.826 34.312 266.645 34.7857 264.63 35.7663L267.254 41.1617C268.396 40.6063 269.671 40.312 271.126 40.312V34.312ZM264.69 35.738C262.471 36.7574 260.75 38.4445 259.501 40.6166L264.703 43.6074C265.416 42.3662 266.256 41.6213 267.195 41.19L264.69 35.738ZM259.473 40.6662C258.203 42.9751 257.694 45.8156 257.694 48.96H263.694C263.694 46.387 264.123 44.6622 264.731 43.5578L259.473 40.6662ZM263.022 47.0682L260.526 43.9962L255.87 47.7798L258.366 50.8518L263.022 47.0682ZM261.173 46.2719C261.496 43.768 261.978 41.4514 262.61 39.3163L256.858 37.6117C256.125 40.0846 255.582 42.7173 255.223 45.5041L261.173 46.2719ZM262.615 39.302C263.228 37.1926 264.035 35.3947 265.01 33.8783L259.962 30.6337C258.633 32.7013 257.605 35.042 256.853 37.626L262.615 39.302ZM265 33.893C265.961 32.417 267.102 31.3271 268.418 30.557L265.386 25.379C263.203 26.6569 261.4 28.4256 259.972 30.619L265 33.893ZM268.464 30.5294C269.646 29.8087 271.21 29.368 273.302 29.368V23.368C270.359 23.368 267.657 23.994 265.34 25.4066L268.464 30.5294ZM273.302 29.368C273.91 29.368 274.546 29.4038 275.211 29.4777L275.873 23.5143C275.002 23.4176 274.145 23.368 273.302 23.368V29.368ZM275.211 29.4777C275.869 29.5508 276.531 29.6609 277.195 29.8086L278.497 23.9514C277.625 23.7578 276.751 23.6118 275.873 23.5143L275.211 29.4777ZM297.245 62.592L295.971 65.308L295.984 65.3139L297.245 62.592ZM289.053 55.808L286.574 57.4969L286.579 57.5053L286.585 57.5137L289.053 55.808ZM288.925 35.584L291.415 37.2567L291.421 37.2482L291.427 37.2396L288.925 35.584ZM296.797 28.8L295.497 26.0965L295.49 26.0997L295.483 26.103L296.797 28.8ZM319.389 29.248L317.799 31.792L317.82 31.8048L317.84 31.8174L319.389 29.248ZM326.557 37.248L323.854 38.5494L323.86 38.5629L323.867 38.5763L326.557 37.248ZM329.117 49.472V52.472H332.117V49.472H329.117ZM296.605 49.472H293.605V52.472H296.605V49.472ZM296.605 41.6V38.6H293.605V41.6H296.605ZM321.757 41.6L323.377 44.1248L331.986 38.6H321.757V41.6ZM317.469 44.352L314.481 44.6236L314.929 49.5469L319.089 46.8768L317.469 44.352ZM316.061 39.616L313.467 41.1224L313.477 41.141L313.489 41.1595L316.061 39.616ZM312.989 36.608L311.54 39.2347L311.558 39.245L311.577 39.2551L312.989 36.608ZM300.381 39.936L302.975 41.4424L302.986 41.4247L302.996 41.4068L300.381 39.936ZM300.765 50.496L298.229 52.098L298.253 52.1372L298.279 52.1756L300.765 50.496ZM305.373 54.144L304.198 56.9045L304.209 56.9089L304.219 56.9132L305.373 54.144ZM320.861 54.4L321.611 57.3048L321.627 57.3007L321.643 57.2964L320.861 54.4ZM328.157 51.392H331.157V46.1467L326.636 48.8062L328.157 51.392ZM328.157 59.712L329.84 62.1951L331.157 61.3026V59.712H328.157ZM319.517 63.68L320.326 66.5689L320.339 66.5653L320.351 66.5617L319.517 63.68ZM309.149 62.024C305.082 62.024 301.554 61.2825 298.506 59.8701L295.984 65.3139C299.933 67.1441 304.341 68.024 309.149 68.024V62.024ZM298.519 59.876C295.503 58.4608 293.2 56.5316 291.521 54.1023L286.585 57.5137C288.917 60.8871 292.075 63.4805 295.971 65.308L298.519 59.876ZM291.532 54.1191C289.897 51.718 289.045 48.9049 289.045 45.568H283.045C283.045 49.9964 284.198 54.01 286.574 57.4969L291.532 54.1191ZM289.045 45.568C289.045 42.3027 289.861 39.5704 291.415 37.2567L286.435 33.9113C284.149 37.315 283.045 41.2386 283.045 45.568H289.045ZM291.427 37.2396C293.032 34.8141 295.233 32.8992 298.111 31.497L295.483 26.103C291.705 27.9435 288.658 30.5512 286.423 33.9284L291.427 37.2396ZM298.097 31.5035C301.013 30.1012 304.357 29.368 308.189 29.368V23.368C303.573 23.368 299.323 24.2561 295.497 26.0965L298.097 31.5035ZM308.189 29.368C312.142 29.368 315.297 30.2279 317.799 31.792L320.979 26.704C317.337 24.4281 313.026 23.368 308.189 23.368V29.368ZM317.84 31.8174C320.427 33.3765 322.429 35.5891 323.854 38.5494L329.26 35.9466C327.357 31.9949 324.58 28.8742 320.938 26.6786L317.84 31.8174ZM323.867 38.5763C325.33 41.539 326.117 45.1407 326.117 49.472H332.117C332.117 44.4167 331.197 39.869 329.247 35.9197L323.867 38.5763ZM329.117 46.472H296.605V52.472H329.117V46.472ZM299.605 49.472V41.6H293.605V49.472H299.605ZM296.605 44.6H321.757V38.6H296.605V44.6ZM320.137 39.0752L315.849 41.8272L319.089 46.8768L323.377 44.1248L320.137 39.0752ZM320.457 44.0804C320.256 41.8681 319.687 39.8278 318.633 38.0725L313.489 41.1595C313.971 41.9642 314.341 43.0812 314.481 44.6236L320.457 44.0804ZM318.655 38.1096C317.623 36.3315 316.201 34.9209 314.401 33.9609L311.577 39.2551C312.337 39.6604 312.963 40.2552 313.467 41.1224L318.655 38.1096ZM314.438 33.9813C312.663 33.002 310.646 32.584 308.509 32.584V38.584C309.871 38.584 310.84 38.8486 311.54 39.2347L314.438 33.9813ZM308.509 32.584C306.189 32.584 304.015 33.0496 302.11 34.1213L305.052 39.3507C305.877 38.8864 306.989 38.584 308.509 38.584V32.584ZM302.11 34.1213C300.266 35.1586 298.804 36.621 297.766 38.4652L302.996 41.4068C303.494 40.5203 304.165 39.8494 305.052 39.3507L302.11 34.1213ZM297.787 38.4296C296.71 40.2831 296.229 42.3785 296.229 44.608H302.229C302.229 43.2535 302.516 42.2343 302.975 41.4424L297.787 38.4296ZM296.229 44.608C296.229 47.3638 296.846 49.9083 298.229 52.098L303.301 48.894C302.636 47.8411 302.229 46.4602 302.229 44.608H296.229ZM298.279 52.1756C299.714 54.2995 301.74 55.8582 304.198 56.9045L306.548 51.3835C304.996 50.7232 303.949 49.8498 303.251 48.8164L298.279 52.1756ZM304.219 56.9132C306.731 57.9599 309.644 58.424 312.861 58.424V52.424C310.19 52.424 308.111 52.0348 306.527 51.3748L304.219 56.9132ZM312.861 58.424C315.806 58.424 318.724 58.0496 321.611 57.3048L320.111 51.4952C317.707 52.1157 315.292 52.424 312.861 52.424V58.424ZM321.643 57.2964C324.564 56.5082 327.248 55.4071 329.678 53.9778L326.636 48.8062C324.714 49.9369 322.534 50.8411 320.079 51.5036L321.643 57.2964ZM325.157 51.392V59.712H331.157V51.392H325.157ZM326.474 57.2289C324.244 58.7407 321.656 59.9376 318.683 60.7983L320.351 66.5617C323.863 65.5451 327.036 64.0966 329.84 62.1951L326.474 57.2289ZM318.708 60.7911C315.8 61.6053 312.619 62.024 309.149 62.024V68.024C313.103 68.024 316.834 67.5467 320.326 66.5689L318.708 60.7911ZM356.341 14.272V11.272H354.209L353.508 13.2853L356.341 14.272ZM366.069 14.272L368.902 15.2587L370.29 11.272H366.069V14.272ZM348.149 65.728V68.728H350.281L350.982 66.7147L348.149 65.728ZM338.421 65.728L335.588 64.7413L334.199 68.728H338.421V65.728ZM356.341 17.272H366.069V11.272H356.341V17.272ZM363.236 13.2853L345.316 64.7413L350.982 66.7147L368.902 15.2587L363.236 13.2853ZM348.149 62.728H338.421V68.728H348.149V62.728ZM341.254 66.7147L359.174 15.2587L353.508 13.2853L335.588 64.7413L341.254 66.7147ZM381.624 54.784H378.624V57.784H381.624V54.784ZM381.624 44.096V41.096H378.624V44.096H381.624ZM414.712 44.096H417.712V41.096H414.712V44.096ZM414.712 54.784V57.784H417.712V54.784H414.712ZM407.16 16L409.891 14.7583L409.092 13H407.16V16ZM428.984 64V67H433.644L431.715 62.7583L428.984 64ZM414.84 64L412.086 65.1898L412.868 67H414.84V64ZM396.536 21.632V18.632H391.972L393.782 22.8218L396.536 21.632ZM400.376 21.632L403.128 22.8253L404.946 18.632H400.376V21.632ZM382.008 64V67H383.977L384.76 65.1933L382.008 64ZM367.864 64L365.133 62.7583L363.204 67H367.864V64ZM389.688 16V13H387.756L386.957 14.7583L389.688 16ZM384.624 54.784V44.096H378.624V54.784H384.624ZM381.624 47.096H414.712V41.096H381.624V47.096ZM411.712 44.096V54.784H417.712V44.096H411.712ZM414.712 51.784H381.624V57.784H414.712V51.784ZM404.429 17.2417L426.253 65.2417L431.715 62.7583L409.891 14.7583L404.429 17.2417ZM428.984 61H414.84V67H428.984V61ZM417.594 62.8102L399.29 20.4422L393.782 22.8218L412.086 65.1898L417.594 62.8102ZM396.536 24.632H400.376V18.632H396.536V24.632ZM397.624 20.4387L379.256 62.8067L384.76 65.1933L403.128 22.8253L397.624 20.4387ZM382.008 61H367.864V67H382.008V61ZM370.595 65.2417L392.419 17.2417L386.957 14.7583L365.133 62.7583L370.595 65.2417ZM389.688 19H407.16V13H389.688V19ZM455.441 24.128L453.671 21.7058L453.648 21.7225L453.626 21.7395L455.441 24.128ZM453.841 64V67H456.841V64H453.841ZM440.721 64H437.721V67H440.721V64ZM442.833 21.248L440.226 19.7644L440.226 19.7644L442.833 21.248ZM449.041 15.616L447.784 12.8921L447.776 12.8958L447.768 12.8996L449.041 15.616ZM463.761 14.08L463.191 17.0253L463.2 17.027L463.208 17.0286L463.761 14.08ZM467.793 15.168H470.793V13.0492L468.796 12.3407L467.793 15.168ZM467.793 23.808L466.984 26.6969L470.793 27.7634V23.808H467.793ZM464.465 23.168L464.009 26.1331L464.071 26.1427L464.134 26.1497L464.465 23.168ZM433.297 39.424H430.297V42.424H433.297V39.424ZM433.297 29.376V26.376H430.297V29.376H433.297ZM467.281 29.376H470.281V26.376H467.281V29.376ZM467.281 39.424V42.424H470.281V39.424H467.281ZM463.697 39.424H460.697V42.424H463.697V39.424ZM463.697 29.376V26.376H460.697V29.376H463.697ZM471.377 29.376V32.376H473.26L474.078 30.6807L471.377 29.376ZM476.817 18.112V15.112H474.934L474.116 16.8073L476.817 18.112ZM484.241 18.112H487.241V15.112H484.241V18.112ZM484.241 28.864H481.241V31.864H484.241V28.864ZM499.601 28.864H502.601V25.864H499.601V28.864ZM499.601 38.912V41.912H502.601V38.912H499.601ZM484.241 38.912V35.912H481.241V38.912H484.241ZM485.841 53.12L483.679 55.1993L483.699 55.2205L483.72 55.2413L485.841 53.12ZM496.401 54.272L497.042 57.2027L497.075 57.1955L497.108 57.1875L496.401 54.272ZM500.241 52.928L503.241 52.9088L503.211 48.1686L498.94 50.225L500.241 52.928ZM500.305 62.912L501.358 65.721L503.318 64.986L503.305 62.8928L500.305 62.912ZM495.121 64.256L494.579 61.3054L494.544 61.3118L494.509 61.3191L495.121 64.256ZM478.737 63.04L477.432 65.741L477.44 65.7453L477.449 65.7494L478.737 63.04ZM473.041 57.728L470.387 59.1272L470.393 59.1373L470.398 59.1474L473.041 57.728ZM471.185 39.424H474.185V36.424H471.185V39.424ZM460.881 19.912C458.188 19.912 455.571 20.3174 453.671 21.7058L457.211 26.5502C457.53 26.3173 458.539 25.912 460.881 25.912V19.912ZM453.626 21.7395C451.577 23.2966 450.841 25.6445 450.841 28.032H456.841C456.841 26.8355 457.172 26.5807 457.256 26.5165L453.626 21.7395ZM450.841 28.032V64H456.841V28.032H450.841ZM453.841 61H440.721V67H453.841V61ZM443.721 64V30.272H437.721V64H443.721ZM443.721 30.272C443.721 27.1255 444.345 24.6564 445.441 22.7316L440.226 19.7644C438.505 22.789 437.721 26.3358 437.721 30.272H443.721ZM445.441 22.7316C446.523 20.8287 448.11 19.3657 450.314 18.3324L447.768 12.8996C444.511 14.4263 441.959 16.718 440.226 19.7644L445.441 22.7316ZM450.298 18.3399C452.567 17.2927 455.543 16.696 459.345 16.696V10.696C454.955 10.696 451.062 11.3793 447.784 12.8921L450.298 18.3399ZM459.345 16.696C460.812 16.696 462.089 16.8121 463.191 17.0253L464.331 11.1347C462.787 10.8359 461.12 10.696 459.345 10.696V16.696ZM463.208 17.0286C464.419 17.2556 465.612 17.5775 466.79 17.9953L468.796 12.3407C467.328 11.8198 465.834 11.4164 464.314 11.1314L463.208 17.0286ZM464.793 15.168V23.808H470.793V15.168H464.793ZM468.602 20.9191C467.372 20.5747 466.102 20.3315 464.796 20.1863L464.134 26.1497C465.132 26.2605 466.081 26.444 466.984 26.6969L468.602 20.9191ZM464.921 20.2029C463.642 20.006 462.293 19.912 460.881 19.912V25.912C462.029 25.912 463.07 25.9886 464.009 26.1331L464.921 20.2029ZM436.297 39.424V29.376H430.297V39.424H436.297ZM433.297 32.376H467.281V26.376H433.297V32.376ZM464.281 29.376V39.424H470.281V29.376H464.281ZM467.281 36.424H433.297V42.424H467.281V36.424ZM466.697 39.424V29.376H460.697V39.424H466.697ZM463.697 32.376H471.377V26.376H463.697V32.376ZM474.078 30.6807L479.518 19.4167L474.116 16.8073L468.676 28.0713L474.078 30.6807ZM476.817 21.112H484.241V15.112H476.817V21.112ZM481.241 18.112V28.864H487.241V18.112H481.241ZM484.241 31.864H499.601V25.864H484.241V31.864ZM496.601 28.864V38.912H502.601V28.864H496.601ZM499.601 35.912H484.241V41.912H499.601V35.912ZM481.241 38.912V47.552H487.241V38.912H481.241ZM481.241 47.552C481.241 50.4294 481.806 53.2523 483.679 55.1993L488.004 51.0407C487.742 50.7691 487.241 49.8799 487.241 47.552H481.241ZM483.72 55.2413C485.678 57.1996 488.709 57.72 491.729 57.72V51.72C489.031 51.72 488.137 51.1737 487.962 50.9987L483.72 55.2413ZM491.729 57.72C493.643 57.72 495.421 57.5572 497.042 57.2027L495.76 51.3413C494.65 51.5841 493.314 51.72 491.729 51.72V57.72ZM497.108 57.1875C498.694 56.8029 500.177 56.2884 501.542 55.631L498.94 50.225C498.001 50.6769 496.924 51.0584 495.694 51.3564L497.108 57.1875ZM497.241 52.9472L497.305 62.9312L503.305 62.8928L503.241 52.9088L497.241 52.9472ZM499.252 60.103C498.109 60.5316 496.567 60.9403 494.579 61.3054L495.663 67.2066C497.857 66.8037 499.771 66.3164 501.358 65.721L499.252 60.103ZM494.509 61.3191C492.678 61.7006 490.729 61.896 488.657 61.896V67.896C491.107 67.896 493.468 67.6648 495.733 67.1929L494.509 61.3191ZM488.657 61.896C484.928 61.896 482.1 61.3169 480.025 60.3306L477.449 65.7494C480.58 67.2378 484.365 67.896 488.657 67.896V61.896ZM480.043 60.339C478 59.3517 476.595 58.0058 475.684 56.3086L470.398 59.1474C471.961 62.0582 474.354 64.2536 477.432 65.741L480.043 60.339ZM475.695 56.3288C474.721 54.4828 474.185 52.2479 474.185 49.536H468.185C468.185 53.0534 468.886 56.2799 470.387 59.1272L475.695 56.3288ZM474.185 49.536V39.424H468.185V49.536H474.185ZM471.185 36.424H463.697V42.424H471.185V36.424ZM520.595 62.592L519.321 65.308L519.334 65.3139L520.595 62.592ZM512.403 55.808L509.924 57.4969L509.929 57.5053L509.935 57.5137L512.403 55.808ZM512.275 35.584L514.765 37.2567L514.771 37.2482L514.777 37.2396L512.275 35.584ZM520.147 28.8L518.847 26.0965L518.84 26.0997L518.833 26.103L520.147 28.8ZM542.739 29.248L541.149 31.792L541.17 31.8048L541.19 31.8174L542.739 29.248ZM549.907 37.248L547.204 38.5494L547.21 38.5629L547.217 38.5763L549.907 37.248ZM552.467 49.472V52.472H555.467V49.472H552.467ZM519.955 49.472H516.955V52.472H519.955V49.472ZM519.955 41.6V38.6H516.955V41.6H519.955ZM545.107 41.6L546.727 44.1248L555.336 38.6H545.107V41.6ZM540.819 44.352L537.831 44.6236L538.279 49.5469L542.439 46.8768L540.819 44.352ZM539.411 39.616L536.817 41.1224L536.827 41.141L536.839 41.1595L539.411 39.616ZM536.339 36.608L534.89 39.2347L534.908 39.245L534.927 39.2551L536.339 36.608ZM523.731 39.936L526.325 41.4424L526.336 41.4247L526.346 41.4068L523.731 39.936ZM524.115 50.496L521.579 52.098L521.603 52.1372L521.629 52.1756L524.115 50.496ZM528.723 54.144L527.548 56.9045L527.559 56.9089L527.569 56.9132L528.723 54.144ZM544.211 54.4L544.961 57.3048L544.977 57.3007L544.993 57.2964L544.211 54.4ZM551.507 51.392H554.507V46.1467L549.986 48.8062L551.507 51.392ZM551.507 59.712L553.19 62.1951L554.507 61.3026V59.712H551.507ZM542.867 63.68L543.676 66.5689L543.689 66.5653L543.701 66.5617L542.867 63.68ZM532.499 62.024C528.432 62.024 524.904 61.2825 521.856 59.8701L519.334 65.3139C523.283 67.1441 527.692 68.024 532.499 68.024V62.024ZM521.869 59.876C518.853 58.4608 516.55 56.5316 514.871 54.1023L509.935 57.5137C512.267 60.8871 515.425 63.4805 519.321 65.308L521.869 59.876ZM514.882 54.1191C513.247 51.718 512.395 48.9049 512.395 45.568H506.395C506.395 49.9964 507.548 54.01 509.924 57.4969L514.882 54.1191ZM512.395 45.568C512.395 42.3027 513.211 39.5704 514.765 37.2567L509.785 33.9113C507.499 37.315 506.395 41.2386 506.395 45.568H512.395ZM514.777 37.2396C516.382 34.8141 518.583 32.8992 521.461 31.497L518.833 26.103C515.055 27.9435 512.008 30.5512 509.773 33.9284L514.777 37.2396ZM521.447 31.5035C524.363 30.1012 527.707 29.368 531.539 29.368V23.368C526.923 23.368 522.673 24.2561 518.847 26.0965L521.447 31.5035ZM531.539 29.368C535.492 29.368 538.647 30.2279 541.149 31.792L544.329 26.704C540.687 24.4281 536.376 23.368 531.539 23.368V29.368ZM541.19 31.8174C543.777 33.3765 545.779 35.5891 547.204 38.5494L552.61 35.9466C550.707 31.9949 547.93 28.8742 544.288 26.6786L541.19 31.8174ZM547.217 38.5763C548.68 41.539 549.467 45.1407 549.467 49.472H555.467C555.467 44.4167 554.547 39.869 552.597 35.9197L547.217 38.5763ZM552.467 46.472H519.955V52.472H552.467V46.472ZM522.955 49.472V41.6H516.955V49.472H522.955ZM519.955 44.6H545.107V38.6H519.955V44.6ZM543.487 39.0752L539.199 41.8272L542.439 46.8768L546.727 44.1248L543.487 39.0752ZM543.807 44.0804C543.606 41.8681 543.037 39.8278 541.983 38.0725L536.839 41.1595C537.321 41.9642 537.691 43.0812 537.831 44.6236L543.807 44.0804ZM542.005 38.1096C540.973 36.3315 539.551 34.9209 537.751 33.9609L534.927 39.2551C535.687 39.6604 536.313 40.2552 536.817 41.1224L542.005 38.1096ZM537.788 33.9813C536.013 33.002 533.996 32.584 531.859 32.584V38.584C533.221 38.584 534.19 38.8486 534.89 39.2347L537.788 33.9813ZM531.859 32.584C529.539 32.584 527.365 33.0496 525.46 34.1213L528.402 39.3507C529.227 38.8864 530.339 38.584 531.859 38.584V32.584ZM525.46 34.1213C523.616 35.1586 522.154 36.621 521.116 38.4652L526.346 41.4068C526.844 40.5203 527.515 39.8494 528.402 39.3507L525.46 34.1213ZM521.137 38.4296C520.06 40.2831 519.579 42.3785 519.579 44.608H525.579C525.579 43.2535 525.866 42.2343 526.325 41.4424L521.137 38.4296ZM519.579 44.608C519.579 47.3638 520.196 49.9083 521.579 52.098L526.651 48.894C525.986 47.8411 525.579 46.4602 525.579 44.608H519.579ZM521.629 52.1756C523.064 54.2995 525.09 55.8582 527.548 56.9045L529.898 51.3835C528.346 50.7232 527.299 49.8498 526.601 48.8164L521.629 52.1756ZM527.569 56.9132C530.081 57.9599 532.994 58.424 536.211 58.424V52.424C533.54 52.424 531.461 52.0348 529.877 51.3748L527.569 56.9132ZM536.211 58.424C539.156 58.424 542.074 58.0496 544.961 57.3048L543.461 51.4952C541.057 52.1157 538.642 52.424 536.211 52.424V58.424ZM544.993 57.2964C547.914 56.5082 550.598 55.4071 553.028 53.9778L549.986 48.8062C548.064 49.9369 545.884 50.8411 543.429 51.5036L544.993 57.2964ZM548.507 51.392V59.712H554.507V51.392H548.507ZM549.824 57.2289C547.594 58.7407 545.006 59.9376 542.033 60.7983L543.701 66.5617C547.213 65.5451 550.386 64.0966 553.19 62.1951L549.824 57.2289ZM542.058 60.7911C539.15 61.6053 535.969 62.024 532.499 62.024V68.024C536.453 68.024 540.184 67.5467 543.676 66.5689L542.058 60.7911ZM562.544 27.456V24.456H558.892L559.601 28.0384L562.544 27.456ZM575.856 27.456L578.815 26.9628L578.397 24.456H575.856V27.456ZM578.032 40.512H581.032V40.2637L580.991 40.0188L578.032 40.512ZM578.032 64V67H581.032V64H578.032ZM564.976 64H561.976V67H564.976V64ZM564.976 39.744H567.976V39.45L567.918 39.1615L564.976 39.744ZM595.184 26.88H598.184V24.4735L595.834 23.9514L595.184 26.88ZM595.184 38.016L594.595 40.9577L598.184 41.6754V38.016H595.184ZM591.536 37.504L591.192 40.4842L591.253 40.4913L591.314 40.4958L591.536 37.504ZM583.28 38.464L584.532 41.19L584.562 41.1762L584.592 41.1617L583.28 38.464ZM579.44 42.112L576.839 40.6166L576.825 40.6413L576.811 40.6662L579.44 42.112ZM578.032 48.96L575.703 50.8518L581.032 57.4097V48.96H578.032ZM575.536 45.888L572.56 45.5041L572.395 46.7807L573.207 47.7798L575.536 45.888ZM577.072 38.464L579.948 39.3163L579.95 39.3091L579.952 39.302L577.072 38.464ZM579.824 32.256L577.31 30.619L577.305 30.6263L577.3 30.6337L579.824 32.256ZM584.24 27.968L585.755 30.557L585.778 30.5434L585.801 30.5294L584.24 27.968ZM562.544 30.456H575.856V24.456H562.544V30.456ZM572.896 27.9492L575.072 41.0052L580.991 40.0188L578.815 26.9628L572.896 27.9492ZM575.032 40.512V64H581.032V40.512H575.032ZM578.032 61H564.976V67H578.032V61ZM567.976 64V39.744H561.976V64H567.976ZM567.918 39.1615L565.486 26.8735L559.601 28.0384L562.033 40.3265L567.918 39.1615ZM592.184 26.88V38.016H598.184V26.88H592.184ZM595.772 35.0743C594.386 34.7971 593.047 34.6077 591.757 34.5122L591.314 40.4958C592.328 40.5709 593.421 40.7229 594.595 40.9577L595.772 35.0743ZM591.879 34.5238C590.677 34.385 589.536 34.312 588.464 34.312V40.312C589.268 40.312 590.176 40.367 591.192 40.4842L591.879 34.5238ZM588.464 34.312C586.164 34.312 583.983 34.7857 581.967 35.7663L584.592 41.1617C585.734 40.6063 587.009 40.312 588.464 40.312V34.312ZM582.027 35.738C579.808 36.7574 578.088 38.4445 576.839 40.6166L582.04 43.6074C582.754 42.3662 583.593 41.6213 584.532 41.19L582.027 35.738ZM576.811 40.6662C575.541 42.9751 575.032 45.8156 575.032 48.96H581.032C581.032 46.387 581.461 44.6622 582.068 43.5578L576.811 40.6662ZM580.36 47.0682L577.864 43.9962L573.207 47.7798L575.703 50.8518L580.36 47.0682ZM578.511 46.2719C578.834 43.768 579.315 41.4514 579.948 39.3163L574.195 37.6117C573.462 40.0846 572.92 42.7173 572.56 45.5041L578.511 46.2719ZM579.952 39.302C580.566 37.1926 581.372 35.3947 582.347 33.8783L577.3 30.6337C575.971 32.7013 574.943 35.042 574.191 37.626L579.952 39.302ZM582.337 33.893C583.299 32.417 584.44 31.3271 585.755 30.557L582.724 25.379C580.541 26.6569 578.738 28.4256 577.31 30.619L582.337 33.893ZM585.801 30.5294C586.983 29.8087 588.547 29.368 590.64 29.368V23.368C587.697 23.368 584.994 23.994 582.678 25.4066L585.801 30.5294ZM590.64 29.368C591.247 29.368 591.883 29.4038 592.548 29.4777L593.211 23.5143C592.34 23.4176 591.482 23.368 590.64 23.368V29.368ZM592.548 29.4777C593.207 29.5508 593.868 29.6609 594.533 29.8086L595.834 23.9514C594.963 23.7578 594.088 23.6118 593.211 23.5143L592.548 29.4777Z" fill="#F6007A" mask="url(#path-1-outside-1_5043_604)"></path></svg>