<svg xmlns="http://www.w3.org/2000/svg" width="350" height="160" viewBox="0 0 350 160" fill="none"><mask id="path-1-outside-1_5043_735" maskUnits="userSpaceOnUse" x="27" y="13" width="302" height="136" fill="black"><rect fill="white" x="27" y="13" width="302" height="136"></rect><path d="M44.0243 18V54.192H73.9763V66H30.7442V18H44.0243ZM144.035 66H129.891L125.891 56.752H101.091L97.0913 66H82.9152L104.771 18H122.211L144.035 66ZM113.475 28.112L105.699 46.096H121.283L113.475 28.112ZM165.214 50.256C165.513 52.2827 166.729 53.8827 168.862 55.056C170.996 56.208 173.812 56.784 177.31 56.784C180.596 56.784 183.156 56.3573 184.99 55.504C186.846 54.6507 187.774 53.4347 187.774 51.856C187.774 51.0027 187.54 50.2987 187.07 49.744C186.601 49.168 185.801 48.6987 184.67 48.336C183.561 47.9733 182.014 47.696 180.03 47.504L171.134 46.672C164.585 46.0747 159.796 44.6027 156.766 42.256C153.758 39.888 152.254 36.6027 152.254 32.4C152.254 29.136 153.214 26.352 155.134 24.048C157.054 21.7227 159.764 19.9627 163.262 18.768C166.782 17.552 170.91 16.944 175.646 16.944C180.212 16.944 184.297 17.6053 187.902 18.928C191.508 20.2507 194.356 22.1067 196.446 24.496C198.558 26.8853 199.721 29.648 199.934 32.784H186.43C186.196 31.056 185.108 29.7013 183.166 28.72C181.246 27.7173 178.654 27.216 175.39 27.216C172.361 27.216 169.982 27.6213 168.254 28.432C166.548 29.2427 165.694 30.3947 165.694 31.888C165.694 33.0613 166.228 33.9787 167.294 34.64C168.361 35.28 170.228 35.7387 172.894 36.016L182.462 36.944C187.006 37.3707 190.644 38.1067 193.374 39.152C196.105 40.1973 198.089 41.6267 199.326 43.44C200.564 45.2533 201.182 47.5467 201.182 50.32C201.182 53.648 200.18 56.5813 198.174 59.12C196.169 61.6373 193.342 63.5893 189.694 64.976C186.046 66.3627 181.833 67.056 177.054 67.056C172.126 67.056 167.764 66.3627 163.966 64.976C160.169 63.568 157.204 61.5947 155.07 59.056C152.937 56.5173 151.817 53.584 151.71 50.256H165.214ZM229.428 46.832L228.084 55.248H258.484V66H213.844L217.492 42L213.844 18H258.164V28.752H228.084L229.428 37.168H256.308V46.832H229.428ZM306.865 66L294.001 48.72H287.057V66H273.777V18H302.289C305.915 18 309.105 18.64 311.857 19.92C314.63 21.2 316.774 23.0133 318.289 25.36C319.825 27.6853 320.593 30.3733 320.593 33.424C320.593 35.8347 320.102 38.032 319.121 40.016C318.139 41.9787 316.731 43.6427 314.897 45.008C313.083 46.3733 310.939 47.3653 308.465 47.984L322.257 66H306.865ZM287.057 27.856V38.992H300.465C302.555 38.992 304.198 38.5013 305.393 37.52C306.587 36.5387 307.185 35.1733 307.185 33.424C307.185 31.6747 306.587 30.3093 305.393 29.328C304.219 28.3467 302.577 27.856 300.465 27.856H287.057ZM62.4773 98H112.365V109.808H94.0613V146H80.7813V109.808H62.4773V98ZM125.702 146V98H138.982V146H125.702ZM190.705 133.104L205.265 98H225.745V146H213.137V109.584L197.361 146H183.953L168.209 109.744V146H155.569V98H176.081L190.705 133.104ZM256.518 126.832L255.174 135.248H285.574V146H240.934L244.582 122L240.934 98H285.254V108.752H255.174L256.518 117.168H283.398V126.832H256.518Z"></path></mask><path d="M44.0243 18V54.192H73.9763V66H30.7442V18H44.0243ZM144.035 66H129.891L125.891 56.752H101.091L97.0913 66H82.9152L104.771 18H122.211L144.035 66ZM113.475 28.112L105.699 46.096H121.283L113.475 28.112ZM165.214 50.256C165.513 52.2827 166.729 53.8827 168.862 55.056C170.996 56.208 173.812 56.784 177.31 56.784C180.596 56.784 183.156 56.3573 184.99 55.504C186.846 54.6507 187.774 53.4347 187.774 51.856C187.774 51.0027 187.54 50.2987 187.07 49.744C186.601 49.168 185.801 48.6987 184.67 48.336C183.561 47.9733 182.014 47.696 180.03 47.504L171.134 46.672C164.585 46.0747 159.796 44.6027 156.766 42.256C153.758 39.888 152.254 36.6027 152.254 32.4C152.254 29.136 153.214 26.352 155.134 24.048C157.054 21.7227 159.764 19.9627 163.262 18.768C166.782 17.552 170.91 16.944 175.646 16.944C180.212 16.944 184.297 17.6053 187.902 18.928C191.508 20.2507 194.356 22.1067 196.446 24.496C198.558 26.8853 199.721 29.648 199.934 32.784H186.43C186.196 31.056 185.108 29.7013 183.166 28.72C181.246 27.7173 178.654 27.216 175.39 27.216C172.361 27.216 169.982 27.6213 168.254 28.432C166.548 29.2427 165.694 30.3947 165.694 31.888C165.694 33.0613 166.228 33.9787 167.294 34.64C168.361 35.28 170.228 35.7387 172.894 36.016L182.462 36.944C187.006 37.3707 190.644 38.1067 193.374 39.152C196.105 40.1973 198.089 41.6267 199.326 43.44C200.564 45.2533 201.182 47.5467 201.182 50.32C201.182 53.648 200.18 56.5813 198.174 59.12C196.169 61.6373 193.342 63.5893 189.694 64.976C186.046 66.3627 181.833 67.056 177.054 67.056C172.126 67.056 167.764 66.3627 163.966 64.976C160.169 63.568 157.204 61.5947 155.07 59.056C152.937 56.5173 151.817 53.584 151.71 50.256H165.214ZM229.428 46.832L228.084 55.248H258.484V66H213.844L217.492 42L213.844 18H258.164V28.752H228.084L229.428 37.168H256.308V46.832H229.428ZM306.865 66L294.001 48.72H287.057V66H273.777V18H302.289C305.915 18 309.105 18.64 311.857 19.92C314.63 21.2 316.774 23.0133 318.289 25.36C319.825 27.6853 320.593 30.3733 320.593 33.424C320.593 35.8347 320.102 38.032 319.121 40.016C318.139 41.9787 316.731 43.6427 314.897 45.008C313.083 46.3733 310.939 47.3653 308.465 47.984L322.257 66H306.865ZM287.057 27.856V38.992H300.465C302.555 38.992 304.198 38.5013 305.393 37.52C306.587 36.5387 307.185 35.1733 307.185 33.424C307.185 31.6747 306.587 30.3093 305.393 29.328C304.219 28.3467 302.577 27.856 300.465 27.856H287.057ZM62.4773 98H112.365V109.808H94.0613V146H80.7813V109.808H62.4773V98ZM125.702 146V98H138.982V146H125.702ZM190.705 133.104L205.265 98H225.745V146H213.137V109.584L197.361 146H183.953L168.209 109.744V146H155.569V98H176.081L190.705 133.104ZM256.518 126.832L255.174 135.248H285.574V146H240.934L244.582 122L240.934 98H285.254V108.752H255.174L256.518 117.168H283.398V126.832H256.518Z" fill="#111111"></path><path d="M44.0243 18H47.0243V15H44.0243V18ZM44.0243 54.192H41.0243V57.192H44.0243V54.192ZM73.9763 54.192H76.9763V51.192H73.9763V54.192ZM73.9763 66V69H76.9763V66H73.9763ZM30.7442 66H27.7442V69H30.7442V66ZM30.7442 18V15H27.7442V18H30.7442ZM41.0243 18V54.192H47.0243V18H41.0243ZM44.0243 57.192H73.9763V51.192H44.0243V57.192ZM70.9763 54.192V66H76.9763V54.192H70.9763ZM73.9763 63H30.7442V69H73.9763V63ZM33.7442 66V18H27.7442V66H33.7442ZM30.7442 21H44.0243V15H30.7442V21ZM144.035 66V69H148.695L146.766 64.7583L144.035 66ZM129.891 66L127.138 67.191L127.92 69H129.891V66ZM125.891 56.752L128.645 55.561L127.862 53.752H125.891V56.752ZM101.091 56.752V53.752H99.1202L98.3378 55.561L101.091 56.752ZM97.0913 66V69H99.0623L99.8447 67.191L97.0913 66ZM82.9152 66L80.185 64.7568L78.2529 69H82.9152V66ZM104.771 18V15H102.841L102.041 16.7568L104.771 18ZM122.211 18L124.942 16.7583L124.143 15H122.211V18ZM113.475 28.112L116.227 26.9173L113.47 20.566L110.722 26.9214L113.475 28.112ZM105.699 46.096L102.946 44.9054L101.134 49.096H105.699V46.096ZM121.283 46.096V49.096H125.856L124.035 44.9013L121.283 46.096ZM144.035 63H129.891V69H144.035V63ZM132.645 64.809L128.645 55.561L123.138 57.943L127.138 67.191L132.645 64.809ZM125.891 53.752H101.091V59.752H125.891V53.752ZM98.3378 55.561L94.3378 64.809L99.8447 67.191L103.845 57.943L98.3378 55.561ZM97.0913 63H82.9152V69H97.0913V63ZM85.6455 67.2432L107.502 19.2432L102.041 16.7568L80.185 64.7568L85.6455 67.2432ZM104.771 21H122.211V15H104.771V21ZM119.48 19.2417L141.304 67.2417L146.766 64.7583L124.942 16.7583L119.48 19.2417ZM110.722 26.9214L102.946 44.9054L108.453 47.2866L116.229 29.3026L110.722 26.9214ZM105.699 49.096H121.283V43.096H105.699V49.096ZM124.035 44.9013L116.227 26.9173L110.723 29.3067L118.531 47.2907L124.035 44.9013ZM165.214 50.256L168.182 49.8186L167.805 47.256H165.214V50.256ZM168.862 55.056L167.416 57.6846L167.427 57.6902L167.437 57.6957L168.862 55.056ZM184.99 55.504L183.737 52.7783L183.725 52.7838L184.99 55.504ZM187.07 49.744L184.745 51.639L184.762 51.6606L184.78 51.6818L187.07 49.744ZM184.67 48.336L183.738 51.1875L183.746 51.1901L183.754 51.1926L184.67 48.336ZM180.03 47.504L180.319 44.5179L180.31 44.517L180.03 47.504ZM171.134 46.672L171.414 43.685L171.407 43.6844L171.134 46.672ZM156.766 42.256L154.911 44.6132L154.92 44.6205L154.929 44.6276L156.766 42.256ZM155.134 24.048L157.439 25.9686L157.448 25.9581L155.134 24.048ZM163.262 18.768L164.232 21.6071L164.242 21.6036L163.262 18.768ZM196.446 24.496L194.189 26.4715L194.193 26.4772L194.198 26.4829L196.446 24.496ZM199.934 32.784V35.784H203.145L202.927 32.5804L199.934 32.784ZM186.43 32.784L183.458 33.1877L183.81 35.784H186.43V32.784ZM183.166 28.72L181.778 31.3792L181.795 31.3884L181.813 31.3974L183.166 28.72ZM168.254 28.432L166.98 25.716L166.974 25.7191L166.967 25.7222L168.254 28.432ZM167.294 34.64L165.713 37.1897L165.732 37.2012L165.751 37.2125L167.294 34.64ZM172.894 36.016L172.584 38.9999L172.594 39.001L172.605 39.002L172.894 36.016ZM182.462 36.944L182.173 39.93L182.182 39.9309L182.462 36.944ZM199.326 43.44L201.804 41.7491L201.804 41.7491L199.326 43.44ZM198.174 59.12L200.521 60.9892L200.528 60.9796L198.174 59.12ZM163.966 64.976L162.923 67.7889L162.93 67.7914L162.937 67.794L163.966 64.976ZM155.07 59.056L152.774 60.986L152.774 60.986L155.07 59.056ZM151.71 50.256V47.256H148.613L148.712 50.3521L151.71 50.256ZM162.246 50.6934C162.708 53.829 164.635 56.155 167.416 57.6846L170.308 52.4274C168.822 51.6103 168.317 50.7364 168.182 49.8186L162.246 50.6934ZM167.437 57.6957C170.159 59.1658 173.52 59.784 177.31 59.784V53.784C174.103 53.784 171.832 53.2502 170.288 52.4163L167.437 57.6957ZM177.31 59.784C180.792 59.784 183.853 59.3418 186.255 58.2242L183.725 52.7838C182.459 53.3729 180.399 53.784 177.31 53.784V59.784ZM186.243 58.2297C187.474 57.6641 188.619 56.8786 189.463 55.772C190.34 54.6234 190.774 53.2804 190.774 51.856H184.774C184.774 52.0103 184.745 52.0646 184.693 52.132C184.61 52.2414 184.363 52.4905 183.737 52.7783L186.243 58.2297ZM190.774 51.856C190.774 50.4233 190.366 48.9942 189.36 47.8062L184.78 51.6818C184.774 51.6747 184.767 51.6644 184.76 51.6525C184.753 51.6407 184.751 51.6342 184.752 51.6367C184.754 51.6408 184.774 51.7043 184.774 51.856H190.774ZM189.396 47.849C188.401 46.6278 186.968 45.9226 185.587 45.4794L183.754 51.1926C184.165 51.3244 184.435 51.4504 184.6 51.5476C184.765 51.6445 184.784 51.6874 184.745 51.639L189.396 47.849ZM185.602 45.4845C184.189 45.0223 182.392 44.7185 180.319 44.5179L179.741 50.49C181.637 50.6735 182.933 50.9244 183.738 51.1875L185.602 45.4845ZM180.31 44.517L171.414 43.685L170.855 49.659L179.751 50.491L180.31 44.517ZM171.407 43.6844C165.067 43.1061 160.961 41.7106 158.603 39.8843L154.929 44.6276C158.63 47.4947 164.103 49.0432 170.862 49.6596L171.407 43.6844ZM158.622 39.8988C156.414 38.1604 155.254 35.786 155.254 32.4H149.254C149.254 37.4193 151.103 41.6156 154.911 44.6132L158.622 39.8988ZM155.254 32.4C155.254 29.7713 156.009 27.6844 157.439 25.9685L152.83 22.1274C150.419 25.0196 149.254 28.5007 149.254 32.4H155.254ZM157.448 25.9581C158.942 24.1482 161.14 22.6629 164.232 21.607L162.293 15.9289C158.388 17.2624 155.166 19.2972 152.821 22.1379L157.448 25.9581ZM164.242 21.6036C167.374 20.5214 171.157 19.944 175.646 19.944V13.944C170.663 13.944 166.19 14.5826 162.283 15.9324L164.242 21.6036ZM175.646 19.944C179.924 19.944 183.651 20.5637 186.869 21.7444L188.936 16.1115C184.943 14.647 180.499 13.944 175.646 13.944V19.944ZM186.869 21.7444C190.101 22.93 192.492 24.5324 194.189 26.4715L198.704 22.5205C196.219 19.6809 192.915 17.5714 188.936 16.1115L186.869 21.7444ZM194.198 26.4829C195.879 28.3841 196.773 30.5223 196.941 32.9876L202.927 32.5804C202.668 28.7737 201.237 25.3866 198.694 22.5091L194.198 26.4829ZM199.934 29.784H186.43V35.784H199.934V29.784ZM189.403 32.3803C189.002 29.4298 187.096 27.3451 184.52 26.0426L181.813 31.3974C183.119 32.0576 183.389 32.6822 183.458 33.1877L189.403 32.3803ZM184.555 26.0608C182.044 24.7493 178.913 24.216 175.39 24.216V30.216C178.395 30.216 180.449 30.6854 181.778 31.3792L184.555 26.0608ZM175.39 24.216C172.151 24.216 169.273 24.6403 166.98 25.716L169.528 31.148C170.691 30.6023 172.571 30.216 175.39 30.216V24.216ZM166.967 25.7222C165.805 26.2739 164.722 27.041 163.924 28.1183C163.097 29.2336 162.694 30.527 162.694 31.888H168.694C168.694 31.8041 168.706 31.7647 168.709 31.753C168.713 31.7426 168.72 31.7239 168.745 31.6897C168.8 31.615 168.996 31.4007 169.541 31.1418L166.967 25.7222ZM162.694 31.888C162.694 34.1838 163.838 36.0272 165.713 37.1897L168.875 32.0903C168.777 32.0295 168.725 31.9835 168.701 31.9605C168.679 31.9389 168.68 31.9344 168.688 31.9481C168.691 31.954 168.695 31.9608 168.697 31.9676C168.699 31.9709 168.7 31.9736 168.7 31.9756C168.701 31.9776 168.701 31.9786 168.701 31.9784C168.701 31.9783 168.699 31.972 168.698 31.958C168.696 31.9439 168.694 31.9209 168.694 31.888H162.694ZM165.751 37.2125C167.426 38.2176 169.871 38.7178 172.584 38.9999L173.205 33.0321C170.584 32.7595 169.296 32.3424 168.838 32.0675L165.751 37.2125ZM172.605 39.002L182.173 39.93L182.752 33.958L173.184 33.03L172.605 39.002ZM182.182 39.9309C186.588 40.3446 189.926 41.0443 192.302 41.9537L194.447 36.3503C191.361 35.169 187.424 34.3967 182.743 33.9571L182.182 39.9309ZM192.302 41.9537C194.648 42.852 196.053 43.9654 196.848 45.1309L201.804 41.7491C200.125 39.2879 197.562 37.5427 194.447 36.3503L192.302 41.9537ZM196.848 45.1309C197.666 46.329 198.182 47.991 198.182 50.32H204.182C204.182 47.1023 203.461 44.1776 201.804 41.7491L196.848 45.1309ZM198.182 50.32C198.182 52.9941 197.394 55.2675 195.82 57.2604L200.528 60.9796C202.965 57.8951 204.182 54.3019 204.182 50.32H198.182ZM195.828 57.2508C194.222 59.266 191.88 60.9356 188.628 62.1718L190.76 67.7802C194.804 66.243 198.115 64.0087 200.521 60.9892L195.828 57.2508ZM188.628 62.1718C185.388 63.4036 181.548 64.056 177.054 64.056V70.056C182.118 70.056 186.705 69.3218 190.76 67.7802L188.628 62.1718ZM177.054 64.056C172.403 64.056 168.4 63.4012 164.995 62.158L162.937 67.794C167.128 69.3242 171.85 70.056 177.054 70.056V64.056ZM165.009 62.1631C161.592 60.8961 159.099 59.1875 157.367 57.126L152.774 60.986C155.308 64.0019 158.746 66.2399 162.923 67.7889L165.009 62.1631ZM157.367 57.126C155.669 55.1049 154.794 52.8182 154.709 50.1599L148.712 50.3521C148.84 54.3498 150.205 57.9298 152.774 60.986L157.367 57.126ZM151.71 53.256H165.214V47.256H151.71V53.256ZM229.428 46.832V43.832H226.869L226.466 46.3589L229.428 46.832ZM228.084 55.248L225.122 54.7749L224.567 58.248H228.084V55.248ZM258.484 55.248H261.484V52.248H258.484V55.248ZM258.484 66V69H261.484V66H258.484ZM213.844 66L210.878 65.5492L210.354 69H213.844V66ZM217.492 42L220.458 42.4508L220.527 42L220.458 41.5492L217.492 42ZM213.844 18V15H210.354L210.878 18.4508L213.844 18ZM258.164 18H261.164V15H258.164V18ZM258.164 28.752V31.752H261.164V28.752H258.164ZM228.084 28.752V25.752H224.567L225.122 29.2251L228.084 28.752ZM229.428 37.168L226.466 37.6411L226.869 40.168H229.428V37.168ZM256.308 37.168H259.308V34.168H256.308V37.168ZM256.308 46.832V49.832H259.308V46.832H256.308ZM226.466 46.3589L225.122 54.7749L231.047 55.7211L232.391 47.3051L226.466 46.3589ZM228.084 58.248H258.484V52.248H228.084V58.248ZM255.484 55.248V66H261.484V55.248H255.484ZM258.484 63H213.844V69H258.484V63ZM216.81 66.4508L220.458 42.4508L214.526 41.5492L210.878 65.5492L216.81 66.4508ZM220.458 41.5492L216.81 17.5492L210.878 18.4508L214.526 42.4508L220.458 41.5492ZM213.844 21H258.164V15H213.844V21ZM255.164 18V28.752H261.164V18H255.164ZM258.164 25.752H228.084V31.752H258.164V25.752ZM225.122 29.2251L226.466 37.6411L232.391 36.6949L231.047 28.2789L225.122 29.2251ZM229.428 40.168H256.308V34.168H229.428V40.168ZM253.308 37.168V46.832H259.308V37.168H253.308ZM256.308 43.832H229.428V49.832H256.308V43.832ZM306.865 66L304.458 67.7914L305.358 69H306.865V66ZM294.001 48.72L296.407 46.9286L295.507 45.72H294.001V48.72ZM287.057 48.72V45.72H284.057V48.72H287.057ZM287.057 66V69H290.057V66H287.057ZM273.777 66H270.777V69H273.777V66ZM273.777 18V15H270.777V18H273.777ZM311.857 19.92L310.592 22.6402L310.6 22.6439L311.857 19.92ZM318.289 25.36L315.768 26.9869L315.777 27.0002L315.786 27.0135L318.289 25.36ZM319.121 40.016L321.804 41.3577L321.81 41.3461L319.121 40.016ZM314.897 45.008L313.106 42.6013L313.099 42.6063L313.092 42.6114L314.897 45.008ZM308.465 47.984L307.737 45.0736L303.306 46.1812L306.083 49.8076L308.465 47.984ZM322.257 66V69H328.332L324.639 64.1764L322.257 66ZM287.057 27.856V24.856H284.057V27.856H287.057ZM287.057 38.992H284.057V41.992H287.057V38.992ZM305.393 29.328L303.468 31.6292L303.478 31.6377L303.489 31.6462L305.393 29.328ZM309.271 64.2086L296.407 46.9286L291.594 50.5114L304.458 67.7914L309.271 64.2086ZM294.001 45.72H287.057V51.72H294.001V45.72ZM284.057 48.72V66H290.057V48.72H284.057ZM287.057 63H273.777V69H287.057V63ZM276.777 66V18H270.777V66H276.777ZM273.777 21H302.289V15H273.777V21ZM302.289 21C305.562 21 308.306 21.5769 310.592 22.6402L313.122 17.1998C309.904 15.7031 306.268 15 302.289 15V21ZM310.6 22.6439C312.906 23.7086 314.591 25.1627 315.768 26.9869L320.809 23.7331C318.957 20.8639 316.354 18.6914 313.114 17.1961L310.6 22.6439ZM315.786 27.0135C316.967 28.802 317.593 30.9033 317.593 33.424H323.593C323.593 29.8434 322.683 26.5687 320.792 23.7065L315.786 27.0135ZM317.593 33.424C317.593 35.4151 317.191 37.1514 316.432 38.6859L321.81 41.3461C323.013 38.9126 323.593 36.2542 323.593 33.424H317.593ZM316.437 38.6744C315.675 40.1992 314.58 41.5041 313.106 42.6013L316.688 47.4147C318.883 45.7813 320.604 43.7582 321.804 41.3576L316.437 38.6744ZM313.092 42.6114C311.637 43.7069 309.87 44.5403 307.737 45.0736L309.192 50.8944C312.009 50.1904 314.53 49.0398 316.701 47.4046L313.092 42.6114ZM306.083 49.8076L319.875 67.8236L324.639 64.1764L310.847 46.1604L306.083 49.8076ZM322.257 63H306.865V69H322.257V63ZM284.057 27.856V38.992H290.057V27.856H284.057ZM287.057 41.992H300.465V35.992H287.057V41.992ZM300.465 41.992C303.005 41.992 305.403 41.394 307.297 39.8382L303.489 35.2018C302.993 35.6087 302.105 35.992 300.465 35.992V41.992ZM307.297 39.8382C309.282 38.2077 310.185 35.9382 310.185 33.424H304.185C304.185 34.4085 303.893 34.8697 303.489 35.2018L307.297 39.8382ZM310.185 33.424C310.185 30.9098 309.282 28.6403 307.297 27.0098L303.489 31.6462C303.893 31.9783 304.185 32.4395 304.185 33.424H310.185ZM307.317 27.0268C305.43 25.4484 303.014 24.856 300.465 24.856V30.856C302.139 30.856 303.009 31.2449 303.468 31.6292L307.317 27.0268ZM300.465 24.856H287.057V30.856H300.465V24.856ZM62.4773 98V95H59.4773V98H62.4773ZM112.365 98H115.365V95H112.365V98ZM112.365 109.808V112.808H115.365V109.808H112.365ZM94.0613 109.808V106.808H91.0613V109.808H94.0613ZM94.0613 146V149H97.0613V146H94.0613ZM80.7813 146H77.7813V149H80.7813V146ZM80.7813 109.808H83.7813V106.808H80.7813V109.808ZM62.4773 109.808H59.4773V112.808H62.4773V109.808ZM62.4773 101H112.365V95H62.4773V101ZM109.365 98V109.808H115.365V98H109.365ZM112.365 106.808H94.0613V112.808H112.365V106.808ZM91.0613 109.808V146H97.0613V109.808H91.0613ZM94.0613 143H80.7813V149H94.0613V143ZM83.7813 146V109.808H77.7813V146H83.7813ZM80.7813 106.808H62.4773V112.808H80.7813V106.808ZM65.4773 109.808V98H59.4773V109.808H65.4773ZM125.702 146H122.702V149H125.702V146ZM125.702 98V95H122.702V98H125.702ZM138.982 98H141.982V95H138.982V98ZM138.982 146V149H141.982V146H138.982ZM128.702 146V98H122.702V146H128.702ZM125.702 101H138.982V95H125.702V101ZM135.982 98V146H141.982V98H135.982ZM138.982 143H125.702V149H138.982V143ZM190.705 133.104L187.936 134.258L190.711 140.92L193.476 134.253L190.705 133.104ZM205.265 98V95H203.262L202.494 96.8506L205.265 98ZM225.745 98H228.745V95H225.745V98ZM225.745 146V149H228.745V146H225.745ZM213.137 146H210.137V149H213.137V146ZM213.137 109.584H216.137L210.384 108.391L213.137 109.584ZM197.361 146V149H199.331L200.114 147.193L197.361 146ZM183.953 146L181.201 147.195L181.985 149H183.953V146ZM168.209 109.744L170.961 108.549L165.209 109.744H168.209ZM168.209 146V149H171.209V146H168.209ZM155.569 146H152.569V149H155.569V146ZM155.569 98V95H152.569V98H155.569ZM176.081 98L178.851 96.8463L178.081 95H176.081V98ZM193.476 134.253L208.036 99.1494L202.494 96.8506L187.934 131.955L193.476 134.253ZM205.265 101H225.745V95H205.265V101ZM222.745 98V146H228.745V98H222.745ZM225.745 143H213.137V149H225.745V143ZM216.137 146V109.584H210.137V146H216.137ZM210.384 108.391L194.608 144.807L200.114 147.193L215.89 110.777L210.384 108.391ZM197.361 143H183.953V149H197.361V143ZM186.705 144.805L170.961 108.549L165.457 110.939L181.201 147.195L186.705 144.805ZM165.209 109.744V146H171.209V109.744H165.209ZM168.209 143H155.569V149H168.209V143ZM158.569 146V98H152.569V146H158.569ZM155.569 101H176.081V95H155.569V101ZM173.312 99.1537L187.936 134.258L193.475 131.95L178.851 96.8463L173.312 99.1537ZM256.518 126.832V123.832H253.959L253.556 126.359L256.518 126.832ZM255.174 135.248L252.212 134.775L251.657 138.248H255.174V135.248ZM285.574 135.248H288.574V132.248H285.574V135.248ZM285.574 146V149H288.574V146H285.574ZM240.934 146L237.968 145.549L237.444 149H240.934V146ZM244.582 122L247.548 122.451L247.617 122L247.548 121.549L244.582 122ZM240.934 98V95H237.444L237.968 98.4508L240.934 98ZM285.254 98H288.254V95H285.254V98ZM285.254 108.752V111.752H288.254V108.752H285.254ZM255.174 108.752V105.752H251.657L252.212 109.225L255.174 108.752ZM256.518 117.168L253.556 117.641L253.959 120.168H256.518V117.168ZM283.398 117.168H286.398V114.168H283.398V117.168ZM283.398 126.832V129.832H286.398V126.832H283.398ZM253.556 126.359L252.212 134.775L258.137 135.721L259.481 127.305L253.556 126.359ZM255.174 138.248H285.574V132.248H255.174V138.248ZM282.574 135.248V146H288.574V135.248H282.574ZM285.574 143H240.934V149H285.574V143ZM243.9 146.451L247.548 122.451L241.616 121.549L237.968 145.549L243.9 146.451ZM247.548 121.549L243.9 97.5492L237.968 98.4508L241.616 122.451L247.548 121.549ZM240.934 101H285.254V95H240.934V101ZM282.254 98V108.752H288.254V98H282.254ZM285.254 105.752H255.174V111.752H285.254V105.752ZM252.212 109.225L253.556 117.641L259.481 116.695L258.137 108.279L252.212 109.225ZM256.518 120.168H283.398V114.168H256.518V120.168ZM280.398 117.168V126.832H286.398V117.168H280.398ZM283.398 123.832H256.518V129.832H283.398V123.832Z" fill="#F6007A" mask="url(#path-1-outside-1_5043_735)"></path></svg>