<svg xmlns="http://www.w3.org/2000/svg" width="707" height="95" viewBox="0 0 707 95" fill="none"><mask id="path-1-outside-1_5043_499" maskUnits="userSpaceOnUse" x="16" y="15" width="676" height="70" fill="black"><rect fill="white" x="16" y="15" width="676" height="70"></rect><path d="M36.5741 20V65.24H74.0141V80H19.9741V20H36.5741ZM159.988 80H142.308L137.308 68.44H106.308L101.308 80H83.5878L110.908 20H132.708L159.988 80ZM121.788 32.64L112.068 55.12H131.548L121.788 32.64ZM184.862 60.32C185.235 62.8533 186.755 64.8533 189.422 66.32C192.088 67.76 195.608 68.48 199.982 68.48C204.088 68.48 207.288 67.9467 209.582 66.88C211.902 65.8133 213.062 64.2933 213.062 62.32C213.062 61.2533 212.768 60.3733 212.182 59.68C211.595 58.96 210.595 58.3733 209.182 57.92C207.795 57.4667 205.862 57.12 203.382 56.88L192.262 55.84C184.075 55.0933 178.088 53.2533 174.302 50.32C170.542 47.36 168.662 43.2533 168.662 38C168.662 33.92 169.862 30.44 172.262 27.56C174.662 24.6533 178.048 22.4533 182.422 20.96C186.822 19.44 191.982 18.68 197.902 18.68C203.608 18.68 208.715 19.5067 213.222 21.16C217.728 22.8133 221.288 25.1333 223.902 28.12C226.542 31.1067 227.995 34.56 228.262 38.48H211.382C211.088 36.32 209.728 34.6267 207.302 33.4C204.902 32.1467 201.662 31.52 197.582 31.52C193.795 31.52 190.822 32.0267 188.662 33.04C186.528 34.0533 185.462 35.4933 185.462 37.36C185.462 38.8267 186.128 39.9733 187.462 40.8C188.795 41.6 191.128 42.1733 194.462 42.52L206.422 43.68C212.102 44.2133 216.648 45.1333 220.062 46.44C223.475 47.7467 225.955 49.5333 227.502 51.8C229.048 54.0667 229.822 56.9333 229.822 60.4C229.822 64.56 228.568 68.2267 226.062 71.4C223.555 74.5467 220.022 76.9867 215.462 78.72C210.902 80.4533 205.635 81.32 199.662 81.32C193.502 81.32 188.048 80.4533 183.302 78.72C178.555 76.96 174.848 74.4933 172.182 71.32C169.515 68.1467 168.115 64.48 167.982 60.32H184.862ZM263.529 56.04L261.849 66.56H299.849V80H244.049L248.609 50L244.049 20H299.449V33.44H261.849L263.529 43.96H297.129V56.04H263.529ZM358.725 80L342.645 58.4H333.965V80H317.365V20H353.005C357.538 20 361.525 20.8 364.965 22.4C368.431 24 371.111 26.2667 373.005 29.2C374.925 32.1067 375.885 35.4667 375.885 39.28C375.885 42.2933 375.271 45.04 374.045 47.52C372.818 49.9733 371.058 52.0533 368.765 53.76C366.498 55.4667 363.818 56.7067 360.725 57.48L377.965 80H358.725ZM333.965 32.32V46.24H350.725C353.338 46.24 355.391 45.6267 356.885 44.4C358.378 43.1733 359.125 41.4667 359.125 39.28C359.125 37.0933 358.378 35.3867 356.885 34.16C355.418 32.9333 353.365 32.32 350.725 32.32H333.965ZM414.559 20H476.919V34.76H454.039V80H437.439V34.76H414.559V20ZM491.99 80V20H508.59V80H491.99ZM571.644 63.88L589.844 20H615.444V80H599.684V34.48L579.964 80H563.204L543.524 34.68V80H527.724V20H553.364L571.644 63.88ZM652.31 56.04L650.63 66.56H688.63V80H632.83L637.39 50L632.83 20H688.23V33.44H650.63L652.31 43.96H685.91V56.04H652.31Z"></path></mask><path d="M36.5741 20V65.24H74.0141V80H19.9741V20H36.5741ZM159.988 80H142.308L137.308 68.44H106.308L101.308 80H83.5878L110.908 20H132.708L159.988 80ZM121.788 32.64L112.068 55.12H131.548L121.788 32.64ZM184.862 60.32C185.235 62.8533 186.755 64.8533 189.422 66.32C192.088 67.76 195.608 68.48 199.982 68.48C204.088 68.48 207.288 67.9467 209.582 66.88C211.902 65.8133 213.062 64.2933 213.062 62.32C213.062 61.2533 212.768 60.3733 212.182 59.68C211.595 58.96 210.595 58.3733 209.182 57.92C207.795 57.4667 205.862 57.12 203.382 56.88L192.262 55.84C184.075 55.0933 178.088 53.2533 174.302 50.32C170.542 47.36 168.662 43.2533 168.662 38C168.662 33.92 169.862 30.44 172.262 27.56C174.662 24.6533 178.048 22.4533 182.422 20.96C186.822 19.44 191.982 18.68 197.902 18.68C203.608 18.68 208.715 19.5067 213.222 21.16C217.728 22.8133 221.288 25.1333 223.902 28.12C226.542 31.1067 227.995 34.56 228.262 38.48H211.382C211.088 36.32 209.728 34.6267 207.302 33.4C204.902 32.1467 201.662 31.52 197.582 31.52C193.795 31.52 190.822 32.0267 188.662 33.04C186.528 34.0533 185.462 35.4933 185.462 37.36C185.462 38.8267 186.128 39.9733 187.462 40.8C188.795 41.6 191.128 42.1733 194.462 42.52L206.422 43.68C212.102 44.2133 216.648 45.1333 220.062 46.44C223.475 47.7467 225.955 49.5333 227.502 51.8C229.048 54.0667 229.822 56.9333 229.822 60.4C229.822 64.56 228.568 68.2267 226.062 71.4C223.555 74.5467 220.022 76.9867 215.462 78.72C210.902 80.4533 205.635 81.32 199.662 81.32C193.502 81.32 188.048 80.4533 183.302 78.72C178.555 76.96 174.848 74.4933 172.182 71.32C169.515 68.1467 168.115 64.48 167.982 60.32H184.862ZM263.529 56.04L261.849 66.56H299.849V80H244.049L248.609 50L244.049 20H299.449V33.44H261.849L263.529 43.96H297.129V56.04H263.529ZM358.725 80L342.645 58.4H333.965V80H317.365V20H353.005C357.538 20 361.525 20.8 364.965 22.4C368.431 24 371.111 26.2667 373.005 29.2C374.925 32.1067 375.885 35.4667 375.885 39.28C375.885 42.2933 375.271 45.04 374.045 47.52C372.818 49.9733 371.058 52.0533 368.765 53.76C366.498 55.4667 363.818 56.7067 360.725 57.48L377.965 80H358.725ZM333.965 32.32V46.24H350.725C353.338 46.24 355.391 45.6267 356.885 44.4C358.378 43.1733 359.125 41.4667 359.125 39.28C359.125 37.0933 358.378 35.3867 356.885 34.16C355.418 32.9333 353.365 32.32 350.725 32.32H333.965ZM414.559 20H476.919V34.76H454.039V80H437.439V34.76H414.559V20ZM491.99 80V20H508.59V80H491.99ZM571.644 63.88L589.844 20H615.444V80H599.684V34.48L579.964 80H563.204L543.524 34.68V80H527.724V20H553.364L571.644 63.88ZM652.31 56.04L650.63 66.56H688.63V80H632.83L637.39 50L632.83 20H688.23V33.44H650.63L652.31 43.96H685.91V56.04H652.31Z" fill="#111111"></path><path d="M36.5741 20H39.5741V17H36.5741V20ZM36.5741 65.24H33.5741V68.24H36.5741V65.24ZM74.0141 65.24H77.0141V62.24H74.0141V65.24ZM74.0141 80V83H77.0141V80H74.0141ZM19.9741 80H16.9741V83H19.9741V80ZM19.9741 20V17H16.9741V20H19.9741ZM33.5741 20V65.24H39.5741V20H33.5741ZM36.5741 68.24H74.0141V62.24H36.5741V68.24ZM71.0141 65.24V80H77.0141V65.24H71.0141ZM74.0141 77H19.9741V83H74.0141V77ZM22.9741 80V20H16.9741V80H22.9741ZM19.9741 23H36.5741V17H19.9741V23ZM159.988 80V83H164.647L162.719 78.7583L159.988 80ZM142.308 80L139.554 81.191L140.337 83H142.308V80ZM137.308 68.44L140.061 67.249L139.279 65.44H137.308V68.44ZM106.308 68.44V65.44H104.337L103.554 67.249L106.308 68.44ZM101.308 80V83H103.279L104.061 81.191L101.308 80ZM83.5878 80L80.8575 78.7568L78.9255 83H83.5878V80ZM110.908 20V17H108.977L108.178 18.7568L110.908 20ZM132.708 20L135.439 18.7583L134.639 17H132.708V20ZM121.788 32.64L124.54 31.4453L121.782 25.094L119.034 31.4494L121.788 32.64ZM112.068 55.12L109.314 53.9294L107.502 58.12H112.068V55.12ZM131.548 55.12V58.12H136.121L134.3 53.9253L131.548 55.12ZM159.988 77H142.308V83H159.988V77ZM145.061 78.809L140.061 67.249L134.554 69.631L139.554 81.191L145.061 78.809ZM137.308 65.44H106.308V71.44H137.308V65.44ZM103.554 67.249L98.5543 78.809L104.061 81.191L109.061 69.631L103.554 67.249ZM101.308 77H83.5878V83H101.308V77ZM86.3181 81.2432L113.638 21.2432L108.178 18.7568L80.8575 78.7568L86.3181 81.2432ZM110.908 23H132.708V17H110.908V23ZM129.977 21.2417L157.257 81.2417L162.719 78.7583L135.439 18.7583L129.977 21.2417ZM119.034 31.4494L109.314 53.9294L114.821 56.3106L124.541 33.8306L119.034 31.4494ZM112.068 58.12H131.548V52.12H112.068V58.12ZM134.3 53.9253L124.54 31.4453L119.036 33.8347L128.796 56.3147L134.3 53.9253ZM184.862 60.32L187.83 59.8826L187.452 57.32H184.862V60.32ZM189.422 66.32L187.976 68.9486L187.986 68.9542L187.996 68.9597L189.422 66.32ZM209.582 66.88L208.328 64.1543L208.316 64.1598L209.582 66.88ZM212.182 59.68L209.856 61.575L209.873 61.5966L209.891 61.6178L212.182 59.68ZM209.182 57.92L208.249 60.7715L208.257 60.7741L208.265 60.7766L209.182 57.92ZM203.382 56.88L203.671 53.8939L203.661 53.893L203.382 56.88ZM192.262 55.84L192.541 52.853L192.534 52.8524L192.262 55.84ZM174.302 50.32L172.446 52.6772L172.455 52.6845L172.464 52.6916L174.302 50.32ZM172.262 27.56L174.566 29.4806L174.575 29.4701L172.262 27.56ZM182.422 20.96L183.391 23.7991L183.401 23.7956L182.422 20.96ZM223.902 28.12L221.644 30.0955L221.649 30.1012L221.654 30.1069L223.902 28.12ZM228.262 38.48V41.48H231.473L231.255 38.2764L228.262 38.48ZM211.382 38.48L208.409 38.8837L208.761 41.48H211.382V38.48ZM207.302 33.4L205.913 36.0592L205.93 36.0684L205.948 36.0774L207.302 33.4ZM188.662 33.04L187.387 30.324L187.381 30.3271L187.374 30.3302L188.662 33.04ZM187.462 40.8L185.881 43.3497L185.899 43.3612L185.918 43.3725L187.462 40.8ZM194.462 42.52L194.151 45.5039L194.162 45.505L194.172 45.506L194.462 42.52ZM206.422 43.68L206.132 46.666L206.141 46.6669L206.422 43.68ZM227.502 51.8L229.98 50.1091L229.98 50.1091L227.502 51.8ZM226.062 71.4L228.408 73.2692L228.416 73.2596L226.062 71.4ZM183.302 78.72L182.259 81.5329L182.266 81.5354L182.273 81.538L183.302 78.72ZM172.182 71.32L169.885 73.25L169.885 73.25L172.182 71.32ZM167.982 60.32V57.32H164.884L164.983 60.4161L167.982 60.32ZM181.894 60.7574C182.43 64.3996 184.661 67.1257 187.976 68.9486L190.867 63.6914C188.848 62.581 188.039 61.307 187.83 59.8826L181.894 60.7574ZM187.996 68.9597C191.252 70.7178 195.317 71.48 199.982 71.48V65.48C195.9 65.48 192.925 64.8022 190.847 63.6803L187.996 68.9597ZM199.982 71.48C204.285 71.48 207.985 70.9311 210.847 69.6002L208.316 64.1598C206.591 64.9622 203.892 65.48 199.982 65.48V71.48ZM210.835 69.6057C212.297 68.9335 213.616 68.0186 214.576 66.76C215.569 65.4594 216.062 63.9417 216.062 62.32H210.062C210.062 62.6716 209.974 62.9006 209.807 63.12C209.607 63.3814 209.186 63.7599 208.328 64.1543L210.835 69.6057ZM216.062 62.32C216.062 60.6739 215.594 59.0689 214.472 57.7422L209.891 61.6178C209.942 61.6778 210.062 61.8327 210.062 62.32H216.062ZM214.507 57.785C213.395 56.4198 211.762 55.5973 210.098 55.0634L208.265 60.7766C209.427 61.1494 209.795 61.5002 209.856 61.575L214.507 57.785ZM210.114 55.0685C208.423 54.5156 206.239 54.1425 203.671 53.8939L203.093 59.866C205.484 60.0975 207.167 60.4177 208.249 60.7715L210.114 55.0685ZM203.661 53.893L192.541 52.853L191.982 58.827L203.102 59.867L203.661 53.893ZM192.534 52.8524C184.557 52.1248 179.254 50.3613 176.139 47.9483L172.464 52.6916C176.923 56.1454 183.593 58.0619 191.989 58.8276L192.534 52.8524ZM176.157 47.9628C173.197 45.6324 171.662 42.4367 171.662 38H165.662C165.662 44.07 167.886 49.0876 172.446 52.6772L176.157 47.9628ZM171.662 38C171.662 34.5553 172.656 31.7724 174.566 29.4805L169.957 25.6394C167.067 29.1076 165.662 33.2847 165.662 38H171.662ZM174.575 29.4701C176.549 27.0788 179.424 25.1535 183.391 23.799L181.452 18.1209C176.672 19.7531 172.774 22.2278 169.948 25.6499L174.575 29.4701ZM183.401 23.7956C187.414 22.4094 192.229 21.68 197.902 21.68V15.68C191.734 15.68 186.229 16.4706 181.442 18.1244L183.401 23.7956ZM197.902 21.68C203.321 21.68 208.069 22.465 212.188 23.9764L214.255 18.3435C209.361 16.5483 203.896 15.68 197.902 15.68V21.68ZM212.188 23.9764C216.321 25.4926 219.424 27.5591 221.644 30.0955L226.159 26.1445C223.152 22.7076 219.135 20.134 214.255 18.3435L212.188 23.9764ZM221.654 30.1069C223.862 32.6054 225.047 35.4343 225.268 38.6836L231.255 38.2764C230.942 33.6857 229.221 29.6079 226.149 26.1331L221.654 30.1069ZM228.262 35.48H211.382V41.48H228.262V35.48ZM214.354 38.0763C213.895 34.6938 211.717 32.2704 208.655 30.7226L205.948 36.0774C207.74 36.9829 208.282 37.9462 208.409 38.8837L214.354 38.0763ZM208.69 30.7408C205.699 29.1786 201.92 28.52 197.582 28.52V34.52C201.403 34.52 204.104 35.1147 205.913 36.0592L208.69 30.7408ZM197.582 28.52C193.585 28.52 190.112 29.0457 187.387 30.324L189.936 35.756C191.531 35.0077 194.005 34.52 197.582 34.52V28.52ZM187.374 30.3302C185.999 30.9833 184.756 31.873 183.851 33.0943C182.918 34.3536 182.462 35.8123 182.462 37.36H188.462C188.462 37.041 188.538 36.8464 188.672 36.6657C188.834 36.447 189.19 36.11 189.949 35.7498L187.374 30.3302ZM182.462 37.36C182.462 39.9492 183.739 42.0219 185.881 43.3497L189.042 38.2503C188.517 37.9248 188.462 37.7042 188.462 37.36H182.462ZM185.918 43.3725C187.86 44.5376 190.772 45.1525 194.151 45.5039L194.772 39.5361C191.484 39.1942 189.73 38.6624 189.005 38.2275L185.918 43.3725ZM194.172 45.506L206.132 46.666L206.711 40.694L194.751 39.534L194.172 45.506ZM206.141 46.6669C211.684 47.1873 215.931 48.0709 218.989 49.2417L221.134 43.6383C217.366 42.1957 212.52 41.2394 206.702 40.6931L206.141 46.6669ZM218.989 49.2417C222.018 50.4013 223.919 51.8721 225.023 53.4909L229.98 50.1091C227.991 47.1946 224.932 45.092 221.134 43.6383L218.989 49.2417ZM225.023 53.4909C226.15 55.1424 226.822 57.3777 226.822 60.4H232.822C232.822 56.489 231.946 52.991 229.98 50.1091L225.023 53.4909ZM226.822 60.4C226.822 63.9061 225.783 66.9129 223.707 69.5404L228.416 73.2596C231.353 69.5405 232.822 65.2139 232.822 60.4H226.822ZM223.715 69.5308C221.608 72.1753 218.56 74.333 214.396 75.9158L216.528 81.5242C221.484 79.6404 225.501 76.918 228.408 73.2692L223.715 69.5308ZM214.396 75.9158C210.243 77.4942 205.35 78.32 199.662 78.32V84.32C205.92 84.32 211.56 83.4124 216.528 81.5242L214.396 75.9158ZM199.662 78.32C193.778 78.32 188.684 77.4918 184.331 75.902L182.273 81.538C187.412 83.4148 193.225 84.32 199.662 84.32V78.32ZM184.345 75.9071C179.978 74.2881 176.744 72.0861 174.478 69.39L169.885 73.25C172.952 76.9005 177.132 79.6319 182.259 81.5329L184.345 75.9071ZM174.478 69.39C172.247 66.7342 171.092 63.7142 170.98 60.2239L164.983 60.4161C165.138 65.2458 166.783 69.5591 169.885 73.25L174.478 69.39ZM167.982 63.32H184.862V57.32H167.982V63.32ZM263.529 56.04V53.04H260.97L260.567 55.5669L263.529 56.04ZM261.849 66.56L258.887 66.0869L258.332 69.56H261.849V66.56ZM299.849 66.56H302.849V63.56H299.849V66.56ZM299.849 80V83H302.849V80H299.849ZM244.049 80L241.083 79.5492L240.559 83H244.049V80ZM248.609 50L251.575 50.4508L251.644 50L251.575 49.5492L248.609 50ZM244.049 20V17H240.559L241.083 20.4508L244.049 20ZM299.449 20H302.449V17H299.449V20ZM299.449 33.44V36.44H302.449V33.44H299.449ZM261.849 33.44V30.44H258.332L258.887 33.9131L261.849 33.44ZM263.529 43.96L260.567 44.4331L260.97 46.96H263.529V43.96ZM297.129 43.96H300.129V40.96H297.129V43.96ZM297.129 56.04V59.04H300.129V56.04H297.129ZM260.567 55.5669L258.887 66.0869L264.812 67.0331L266.492 56.5131L260.567 55.5669ZM261.849 69.56H299.849V63.56H261.849V69.56ZM296.849 66.56V80H302.849V66.56H296.849ZM299.849 77H244.049V83H299.849V77ZM247.015 80.4508L251.575 50.4508L245.643 49.5492L241.083 79.5492L247.015 80.4508ZM251.575 49.5492L247.015 19.5492L241.083 20.4508L245.643 50.4508L251.575 49.5492ZM244.049 23H299.449V17H244.049V23ZM296.449 20V33.44H302.449V20H296.449ZM299.449 30.44H261.849V36.44H299.449V30.44ZM258.887 33.9131L260.567 44.4331L266.492 43.4869L264.812 32.9669L258.887 33.9131ZM263.529 46.96H297.129V40.96H263.529V46.96ZM294.129 43.96V56.04H300.129V43.96H294.129ZM297.129 53.04H263.529V59.04H297.129V53.04ZM358.725 80L356.318 81.7914L357.218 83H358.725V80ZM342.645 58.4L345.051 56.6086L344.151 55.4H342.645V58.4ZM333.965 58.4V55.4H330.965V58.4H333.965ZM333.965 80V83H336.965V80H333.965ZM317.365 80H314.365V83H317.365V80ZM317.365 20V17H314.365V20H317.365ZM364.965 22.4L363.699 25.1202L363.708 25.1239L364.965 22.4ZM373.005 29.2L370.484 30.8269L370.493 30.8402L370.501 30.8535L373.005 29.2ZM374.045 47.52L376.728 48.8617L376.734 48.8501L374.045 47.52ZM368.765 53.76L366.974 51.3533L366.967 51.3583L366.96 51.3634L368.765 53.76ZM360.725 57.48L359.997 54.5696L355.566 55.6772L358.343 59.3036L360.725 57.48ZM377.965 80V83H384.039L380.347 78.1764L377.965 80ZM333.965 32.32V29.32H330.965V32.32H333.965ZM333.965 46.24H330.965V49.24H333.965V46.24ZM356.885 34.16L354.96 36.4612L354.97 36.4697L354.98 36.4782L356.885 34.16ZM361.131 78.2086L345.051 56.6086L340.238 60.1914L356.318 81.7914L361.131 78.2086ZM342.645 55.4H333.965V61.4H342.645V55.4ZM330.965 58.4V80H336.965V58.4H330.965ZM333.965 77H317.365V83H333.965V77ZM320.365 80V20H314.365V80H320.365ZM317.365 23H353.005V17H317.365V23ZM353.005 23C357.185 23 360.726 23.7369 363.699 25.1202L366.23 19.6798C362.324 17.8631 357.891 17 353.005 17V23ZM363.708 25.1239C366.708 26.5086 368.928 28.416 370.484 30.8269L375.525 27.5731C373.295 24.1173 370.155 21.4914 366.222 19.6761L363.708 25.1239ZM370.501 30.8535C372.067 33.2233 372.885 35.9966 372.885 39.28H378.885C378.885 34.9367 377.782 30.99 375.508 27.5465L370.501 30.8535ZM372.885 39.28C372.885 41.8738 372.36 44.1594 371.356 46.1899L376.734 48.8501C378.183 45.9206 378.885 42.7129 378.885 39.28H372.885ZM371.361 46.1784C370.354 48.1938 368.907 49.9147 366.974 51.3533L370.556 56.1667C373.209 54.1919 375.282 51.7528 376.728 48.8616L371.361 46.1784ZM366.96 51.3634C365.052 52.8002 362.749 53.8816 359.997 54.5696L361.452 60.3904C364.887 59.5317 367.944 58.1331 370.569 56.1566L366.96 51.3634ZM358.343 59.3036L375.583 81.8236L380.347 78.1764L363.107 55.6564L358.343 59.3036ZM377.965 77H358.725V83H377.965V77ZM330.965 32.32V46.24H336.965V32.32H330.965ZM333.965 49.24H350.725V43.24H333.965V49.24ZM350.725 49.24C353.788 49.24 356.596 48.5193 358.789 46.7182L354.98 42.0818C354.186 42.734 352.888 43.24 350.725 43.24V49.24ZM358.789 46.7182C361.073 44.8423 362.125 42.2315 362.125 39.28H356.125C356.125 40.7018 355.684 41.5043 354.98 42.0818L358.789 46.7182ZM362.125 39.28C362.125 36.3285 361.073 33.7177 358.789 31.8418L354.98 36.4782C355.684 37.0557 356.125 37.8582 356.125 39.28H362.125ZM358.809 31.8588C356.629 30.0351 353.802 29.32 350.725 29.32V35.32C352.927 35.32 354.207 35.8316 354.96 36.4612L358.809 31.8588ZM350.725 29.32H333.965V35.32H350.725V29.32ZM414.559 20V17H411.559V20H414.559ZM476.919 20H479.919V17H476.919V20ZM476.919 34.76V37.76H479.919V34.76H476.919ZM454.039 34.76V31.76H451.039V34.76H454.039ZM454.039 80V83H457.039V80H454.039ZM437.439 80H434.439V83H437.439V80ZM437.439 34.76H440.439V31.76H437.439V34.76ZM414.559 34.76H411.559V37.76H414.559V34.76ZM414.559 23H476.919V17H414.559V23ZM473.919 20V34.76H479.919V20H473.919ZM476.919 31.76H454.039V37.76H476.919V31.76ZM451.039 34.76V80H457.039V34.76H451.039ZM454.039 77H437.439V83H454.039V77ZM440.439 80V34.76H434.439V80H440.439ZM437.439 31.76H414.559V37.76H437.439V31.76ZM417.559 34.76V20H411.559V34.76H417.559ZM491.99 80H488.99V83H491.99V80ZM491.99 20V17H488.99V20H491.99ZM508.59 20H511.59V17H508.59V20ZM508.59 80V83H511.59V80H508.59ZM494.99 80V20H488.99V80H494.99ZM491.99 23H508.59V17H491.99V23ZM505.59 20V80H511.59V20H505.59ZM508.59 77H491.99V83H508.59V77ZM571.644 63.88L568.875 65.0337L571.65 71.6958L574.415 65.0294L571.644 63.88ZM589.844 20V17H587.841L587.073 18.8506L589.844 20ZM615.444 20H618.444V17H615.444V20ZM615.444 80V83H618.444V80H615.444ZM599.684 80H596.684V83H599.684V80ZM599.684 34.48H602.684L596.931 33.2874L599.684 34.48ZM579.964 80V83H581.934L582.717 81.1926L579.964 80ZM563.204 80L560.452 81.1949L561.236 83H563.204V80ZM543.524 34.68L546.276 33.4851L540.524 34.68H543.524ZM543.524 80V83H546.524V80H543.524ZM527.724 80H524.724V83H527.724V80ZM527.724 20V17H524.724V20H527.724ZM553.364 20L556.133 18.8463L555.364 17H553.364V20ZM574.415 65.0294L592.615 21.1494L587.073 18.8506L568.873 62.7306L574.415 65.0294ZM589.844 23H615.444V17H589.844V23ZM612.444 20V80H618.444V20H612.444ZM615.444 77H599.684V83H615.444V77ZM602.684 80V34.48H596.684V80H602.684ZM596.931 33.2874L577.211 78.8074L582.717 81.1926L602.437 35.6726L596.931 33.2874ZM579.964 77H563.204V83H579.964V77ZM565.956 78.8051L546.276 33.4851L540.772 35.8749L560.452 81.1949L565.956 78.8051ZM540.524 34.68V80H546.524V34.68H540.524ZM543.524 77H527.724V83H543.524V77ZM530.724 80V20H524.724V80H530.724ZM527.724 23H553.364V17H527.724V23ZM550.595 21.1537L568.875 65.0337L574.413 62.7263L556.133 18.8463L550.595 21.1537ZM652.31 56.04V53.04H649.751L649.348 55.5669L652.31 56.04ZM650.63 66.56L647.668 66.0869L647.113 69.56H650.63V66.56ZM688.63 66.56H691.63V63.56H688.63V66.56ZM688.63 80V83H691.63V80H688.63ZM632.83 80L629.864 79.5492L629.34 83H632.83V80ZM637.39 50L640.356 50.4508L640.425 50L640.356 49.5492L637.39 50ZM632.83 20V17H629.34L629.864 20.4508L632.83 20ZM688.23 20H691.23V17H688.23V20ZM688.23 33.44V36.44H691.23V33.44H688.23ZM650.63 33.44V30.44H647.113L647.668 33.9131L650.63 33.44ZM652.31 43.96L649.348 44.4331L649.751 46.96H652.31V43.96ZM685.91 43.96H688.91V40.96H685.91V43.96ZM685.91 56.04V59.04H688.91V56.04H685.91ZM649.348 55.5669L647.668 66.0869L653.593 67.0331L655.273 56.5131L649.348 55.5669ZM650.63 69.56H688.63V63.56H650.63V69.56ZM685.63 66.56V80H691.63V66.56H685.63ZM688.63 77H632.83V83H688.63V77ZM635.796 80.4508L640.356 50.4508L634.424 49.5492L629.864 79.5492L635.796 80.4508ZM640.356 49.5492L635.796 19.5492L629.864 20.4508L634.424 50.4508L640.356 49.5492ZM632.83 23H688.23V17H632.83V23ZM685.23 20V33.44H691.23V20H685.23ZM688.23 30.44H650.63V36.44H688.23V30.44ZM647.668 33.9131L649.348 44.4331L655.273 43.4869L653.593 32.9669L647.668 33.9131ZM652.31 46.96H685.91V40.96H652.31V46.96ZM682.91 43.96V56.04H688.91V43.96H682.91ZM685.91 53.04H652.31V59.04H685.91V53.04Z" fill="#F6007A" mask="url(#path-1-outside-1_5043_499)"></path></svg>