<svg xmlns="http://www.w3.org/2000/svg" width="120" height="120" viewBox="0 0 120 120" fill="none"><path d="M60.0355 0.104492C48.2064 0.104492 36.6428 3.61229 26.807 10.1843C16.9713 16.7563 9.30529 26.0974 4.77839 37.0263C0.251502 47.9552 -0.93294 59.981 1.37485 71.583C3.68263 83.185 9.37901 93.8423 17.7436 102.207C26.1082 110.571 36.7653 116.268 48.3674 118.575C59.9692 120.883 71.995 119.699 82.9241 115.172C93.8527 110.645 103.194 102.979 109.766 93.1435C116.338 83.3076 119.846 71.744 119.846 59.9147C119.846 44.052 113.544 28.8391 102.328 17.6225C91.1115 6.40591 75.8983 0.104492 60.0355 0.104492ZM91.8507 63.738L40.5846 89.3709C39.9331 89.6964 39.2092 89.8504 38.4817 89.8175C37.7542 89.7845 37.0471 89.5658 36.4277 89.183C35.8083 88.7997 35.2971 88.2645 34.9428 87.6286C34.5883 86.9921 34.4025 86.2757 34.4028 85.5476V34.2817C34.4032 33.5538 34.5896 32.838 34.9443 32.2023C35.299 31.5667 35.8103 31.0321 36.4295 30.6496C37.0488 30.2669 37.7556 30.0489 38.4828 30.0162C39.21 29.9834 39.9334 30.137 40.5846 30.4624L91.8507 56.0954C92.5591 56.4504 93.155 56.9957 93.5712 57.6701C93.9879 58.345 94.2082 59.1218 94.2082 59.9147C94.2082 60.7071 93.9879 61.4843 93.5712 62.1587C93.155 62.8331 92.5591 63.379 91.8507 63.7339V63.738Z" fill="url(#paint0_linear_5043_596)"></path><defs><linearGradient id="paint0_linear_5043_596" x1="60.0356" y1="0.104492" x2="60.0356" y2="119.725" gradientUnits="userSpaceOnUse"><stop stop-color="#F6007A"></stop><stop offset="1" stop-color="#B309CE"></stop></linearGradient></defs></svg>