<svg xmlns="http://www.w3.org/2000/svg" width="312" height="88" viewBox="0 0 312 88" fill="none"><mask id="path-1-outside-1_5043_571" maskUnits="userSpaceOnUse" x="15" y="10" width="284" height="61" fill="black"><rect fill="white" x="15" y="10" width="284" height="61"></rect><path d="M45.642 18C49.6313 18 53.0873 18.6827 56.01 20.048C58.9327 21.4133 61.1727 23.344 62.73 25.84C64.2873 28.336 65.066 31.2373 65.066 34.544C65.066 37.8507 64.2873 40.752 62.73 43.248C61.1727 45.744 58.9327 47.6747 56.01 49.04C53.0873 50.4053 49.6313 51.088 45.642 51.088H31.978V66H18.698V18H45.642ZM44.874 40.464C47.0073 40.464 48.6713 39.9413 49.866 38.896C51.0607 37.8507 51.658 36.4 51.658 34.544C51.658 32.688 51.0607 31.2373 49.866 30.192C48.6713 29.1467 47.0073 28.624 44.874 28.624H31.978V40.464H44.874ZM102.727 28.368C104.135 28.368 105.639 28.5387 107.239 28.88V40.048C104.85 39.5573 102.631 39.312 100.583 39.312C97.4683 39.312 94.951 40.2507 93.031 42.128C91.111 44.0053 90.151 46.9493 90.151 50.96V66H77.063V41.744L74.663 29.424H87.975L89.575 39.056C92.0497 31.9307 96.4337 28.368 102.727 28.368ZM118.229 66V28.88L124.757 30.16L131.317 28.88V66H118.229ZM124.757 25.904C123.242 25.904 121.909 25.648 120.757 25.136C119.605 24.6027 118.709 23.856 118.069 22.896C117.429 21.936 117.109 20.816 117.109 19.536C117.109 18.256 117.429 17.1467 118.069 16.208C118.709 15.248 119.605 14.512 120.757 14C121.909 13.4667 123.242 13.2 124.757 13.2C126.271 13.2 127.605 13.4667 128.757 14C129.909 14.512 130.794 15.248 131.413 16.208C132.053 17.1467 132.373 18.256 132.373 19.536C132.373 20.816 132.053 21.936 131.413 22.896C130.794 23.856 129.909 24.6027 128.757 25.136C127.605 25.648 126.271 25.904 124.757 25.904ZM188.493 50.576C188.13 53.8187 186.936 56.688 184.909 59.184C182.882 61.68 180.226 63.6213 176.941 65.008C173.656 66.3733 170.008 67.056 165.997 67.056C161.538 67.056 157.581 66.2453 154.125 64.624C150.69 63.0027 148.013 60.7307 146.093 57.808C144.194 54.864 143.245 51.504 143.245 47.728C143.245 43.952 144.194 40.6027 146.093 37.68C148.013 34.736 150.69 32.4533 154.125 30.832C157.581 29.1893 161.538 28.368 165.997 28.368C170.008 28.368 173.656 29.0613 176.941 30.448C180.226 31.8133 182.882 33.7547 184.909 36.272C186.936 38.768 188.13 41.6373 188.493 44.88H175.501C175.053 42.7253 173.976 41.0613 172.269 39.888C170.562 38.6933 168.472 38.096 165.997 38.096C164.056 38.096 162.36 38.4693 160.909 39.216C159.48 39.9627 158.37 41.0613 157.581 42.512C156.813 43.9627 156.429 45.7013 156.429 47.728C156.429 50.7787 157.282 53.1467 158.989 54.832C160.717 56.496 163.053 57.328 165.997 57.328C168.45 57.328 170.53 56.72 172.237 55.504C173.965 54.2667 175.053 52.624 175.501 50.576H188.493ZM212.571 51.44C213.467 53.3813 214.982 54.8747 217.115 55.92C219.248 56.944 221.936 57.456 225.179 57.456C227.867 57.456 230.544 57.104 233.211 56.4C235.878 55.696 238.31 54.6933 240.507 53.392V61.712C237.947 63.44 235.056 64.7627 231.835 65.68C228.614 66.5973 225.158 67.056 221.467 67.056C217.051 67.056 213.094 66.2453 209.595 64.624C206.096 62.9813 203.355 60.688 201.371 57.744C199.387 54.8 198.395 51.4187 198.395 47.6C198.395 43.8453 199.344 40.5067 201.243 37.584C203.163 34.6613 205.808 32.4 209.179 30.8C212.55 29.1787 216.347 28.368 220.571 28.368C224.859 28.368 228.571 29.3173 231.707 31.216C234.843 33.0933 237.243 35.7707 238.907 39.248C240.592 42.704 241.435 46.768 241.435 51.44H212.571ZM220.859 37.584C218.619 37.584 216.72 38.128 215.163 39.216C213.627 40.2827 212.571 41.7333 211.995 43.568H229.275C228.678 41.648 227.654 40.176 226.203 39.152C224.774 38.1067 222.992 37.584 220.859 37.584ZM295.827 54.064C295.827 56.8587 294.974 59.2267 293.267 61.168C291.582 63.1093 289.15 64.5813 285.971 65.584C282.792 66.5653 278.995 67.056 274.579 67.056C270.056 67.056 266.067 66.5013 262.611 65.392C259.176 64.2827 256.488 62.7253 254.547 60.72C252.606 58.6933 251.571 56.3573 251.443 53.712H264.723C265.15 55.2053 266.248 56.3573 268.019 57.168C269.811 57.9787 272.179 58.384 275.123 58.384C277.747 58.384 279.72 58.128 281.043 57.616C282.387 57.104 283.059 56.3467 283.059 55.344C283.059 54.768 282.835 54.3093 282.387 53.968C281.96 53.6053 281.256 53.3173 280.275 53.104C279.315 52.8693 277.992 52.688 276.307 52.56L269.843 52.08C263.592 51.6107 259.134 50.4267 256.467 48.528C253.8 46.6293 252.467 44.0267 252.467 40.72C252.467 38.032 253.31 35.7707 254.995 33.936C256.702 32.08 259.102 30.6933 262.195 29.776C265.288 28.8373 268.915 28.368 273.075 28.368C277.128 28.368 280.766 28.9013 283.987 29.968C287.23 31.0347 289.811 32.528 291.731 34.448C293.672 36.368 294.782 38.576 295.059 41.072H281.779C281.438 39.792 280.499 38.736 278.963 37.904C277.427 37.072 275.262 36.656 272.467 36.656C270.142 36.656 268.36 36.912 267.123 37.424C265.907 37.9147 265.299 38.6187 265.299 39.536C265.299 40.3253 265.683 40.9227 266.451 41.328C267.219 41.7333 268.616 42.0107 270.643 42.16L279.123 42.8C283.262 43.0987 286.558 43.7173 289.011 44.656C291.464 45.5947 293.214 46.8427 294.259 48.4C295.304 49.936 295.827 51.824 295.827 54.064Z"></path></mask><path d="M62.73 25.84L65.2752 24.252L65.2752 24.252L62.73 25.84ZM62.73 43.248L65.2752 44.836L65.2752 44.836L62.73 43.248ZM31.978 51.088V48.088H28.978V51.088H31.978ZM31.978 66V69H34.978V66H31.978ZM18.698 66H15.698V69H18.698V66ZM18.698 18V15H15.698V18H18.698ZM49.866 38.896L47.8905 36.6383L47.8905 36.6383L49.866 38.896ZM31.978 28.624V25.624H28.978V28.624H31.978ZM31.978 40.464H28.978V43.464H31.978V40.464ZM45.642 21C49.2939 21 52.2977 21.625 54.7403 22.766L57.2797 17.33C53.877 15.7403 49.9688 15 45.642 15V21ZM54.7403 22.766C57.1902 23.9105 58.9639 25.4712 60.1848 27.428L65.2752 24.252C63.3815 21.2168 60.6751 18.9161 57.2797 17.33L54.7403 22.766ZM60.1848 27.428C61.4092 29.3904 62.066 31.7272 62.066 34.544H68.066C68.066 30.7474 67.1655 27.2816 65.2752 24.252L60.1848 27.428ZM62.066 34.544C62.066 37.3607 61.4092 39.6976 60.1848 41.66L65.2752 44.836C67.1655 41.8064 68.066 38.3406 68.066 34.544H62.066ZM60.1848 41.66C58.9639 43.6168 57.1902 45.1775 54.7403 46.322L57.2797 51.758C60.6751 50.1719 63.3815 47.8712 65.2752 44.836L60.1848 41.66ZM54.7403 46.322C52.2977 47.463 49.2939 48.088 45.642 48.088V54.088C49.9688 54.088 53.877 53.3477 57.2797 51.758L54.7403 46.322ZM45.642 48.088H31.978V54.088H45.642V48.088ZM28.978 51.088V66H34.978V51.088H28.978ZM31.978 63H18.698V69H31.978V63ZM21.698 66V18H15.698V66H21.698ZM18.698 21H45.642V15H18.698V21ZM44.874 43.464C47.4816 43.464 49.9359 42.8211 51.8415 41.1537L47.8905 36.6383C47.4067 37.0616 46.5331 37.464 44.874 37.464V43.464ZM51.8415 41.1537C53.7996 39.4404 54.658 37.1037 54.658 34.544H48.658C48.658 35.6963 48.3217 36.2609 47.8905 36.6383L51.8415 41.1537ZM54.658 34.544C54.658 31.9843 53.7996 29.6476 51.8415 27.9343L47.8905 32.4497C48.3217 32.8271 48.658 33.3917 48.658 34.544H54.658ZM51.8415 27.9343C49.9359 26.2669 47.4816 25.624 44.874 25.624V31.624C46.5331 31.624 47.4067 32.0264 47.8905 32.4497L51.8415 27.9343ZM44.874 25.624H31.978V31.624H44.874V25.624ZM28.978 28.624V40.464H34.978V28.624H28.978ZM31.978 43.464H44.874V37.464H31.978V43.464ZM107.239 28.88H110.239V26.4525L107.865 25.946L107.239 28.88ZM107.239 40.048L106.636 42.9867L110.239 43.7267V40.048H107.239ZM93.031 42.128L90.9336 39.983L90.9336 39.983L93.031 42.128ZM90.151 66V69H93.151V66H90.151ZM77.063 66H74.063V69H77.063V66ZM77.063 41.744H80.063V41.4545L80.0076 41.1704L77.063 41.744ZM74.663 29.424V26.424H71.0222L71.7184 29.9976L74.663 29.424ZM87.975 29.424L90.9344 28.9324L90.5178 26.424H87.975V29.424ZM89.575 39.056L86.6156 39.5476L92.409 40.0402L89.575 39.056ZM102.727 31.368C103.894 31.368 105.187 31.5097 106.613 31.814L107.865 25.946C106.091 25.5677 104.376 25.368 102.727 25.368V31.368ZM104.239 28.88V40.048H110.239V28.88H104.239ZM107.842 37.1093C105.291 36.5854 102.868 36.312 100.583 36.312V42.312C102.394 42.312 104.408 42.5293 106.636 42.9867L107.842 37.1093ZM100.583 36.312C96.8195 36.312 93.5039 37.4698 90.9336 39.983L95.1284 44.273C96.3981 43.0315 98.1172 42.312 100.583 42.312V36.312ZM90.9336 39.983C88.2043 42.6517 87.151 46.5378 87.151 50.96H93.151C93.151 47.3609 94.0177 45.359 95.1284 44.273L90.9336 39.983ZM87.151 50.96V66H93.151V50.96H87.151ZM90.151 63H77.063V69H90.151V63ZM80.063 66V41.744H74.063V66H80.063ZM80.0076 41.1704L77.6076 28.8504L71.7184 29.9976L74.1184 42.3176L80.0076 41.1704ZM74.663 32.424H87.975V26.424H74.663V32.424ZM85.0156 29.9156L86.6156 39.5476L92.5344 38.5644L90.9344 28.9324L85.0156 29.9156ZM92.409 40.0402C93.523 36.8327 94.974 34.6985 96.611 33.3682C98.2068 32.0713 100.186 31.368 102.727 31.368V25.368C98.9747 25.368 95.6152 26.446 92.827 28.7118C90.08 30.9442 88.1017 34.154 86.7411 38.0718L92.409 40.0402ZM118.229 66H115.229V69H118.229V66ZM118.229 28.88L118.806 25.9361L115.229 25.2346V28.88H118.229ZM124.757 30.16L124.179 33.1039L124.755 33.2169L125.331 33.1045L124.757 30.16ZM131.317 28.88H134.317V25.2381L130.742 25.9355L131.317 28.88ZM131.317 66V69H134.317V66H131.317ZM120.757 25.136L119.496 27.8584L119.517 27.8681L119.538 27.8774L120.757 25.136ZM118.069 22.896L120.565 21.2319L120.565 21.2319L118.069 22.896ZM118.069 16.208L120.547 17.898L120.556 17.8851L120.565 17.8721L118.069 16.208ZM120.757 14L121.975 16.7414L121.996 16.7321L122.017 16.7224L120.757 14ZM128.757 14L127.496 16.7224L127.517 16.7321L127.538 16.7414L128.757 14ZM131.413 16.208L128.891 17.8331L128.912 17.8658L128.934 17.898L131.413 16.208ZM131.413 22.896L128.916 21.2319L128.903 21.2513L128.891 21.2709L131.413 22.896ZM128.757 25.136L129.975 27.8774L129.996 27.8681L130.017 27.8584L128.757 25.136ZM121.229 66V28.88H115.229V66H121.229ZM117.651 31.8239L124.179 33.1039L125.334 27.2161L118.806 25.9361L117.651 31.8239ZM125.331 33.1045L131.891 31.8245L130.742 25.9355L124.182 27.2155L125.331 33.1045ZM128.317 28.88V66H134.317V28.88H128.317ZM131.317 63H118.229V69H131.317V63ZM124.757 22.904C123.579 22.904 122.674 22.7053 121.975 22.3946L119.538 27.8774C121.143 28.5907 122.905 28.904 124.757 28.904V22.904ZM122.017 22.4136C121.314 22.0884 120.868 21.6866 120.565 21.2319L115.572 24.5601C116.549 26.0254 117.895 27.1169 119.496 27.8584L122.017 22.4136ZM120.565 21.2319C120.289 20.8179 120.109 20.291 120.109 19.536H114.109C114.109 21.341 114.568 23.0541 115.572 24.5601L120.565 21.2319ZM120.109 19.536C120.109 18.7797 120.289 18.2769 120.547 17.898L115.59 14.518C114.568 16.0165 114.109 17.7323 114.109 19.536H120.109ZM120.565 17.8721C120.86 17.4285 121.292 17.0448 121.975 16.7414L119.538 11.2586C117.917 11.9792 116.557 13.0675 115.572 14.5439L120.565 17.8721ZM122.017 16.7224C122.705 16.4038 123.594 16.2 124.757 16.2V10.2C122.889 10.2 121.112 10.5295 119.496 11.2776L122.017 16.7224ZM124.757 16.2C125.919 16.2 126.808 16.4038 127.496 16.7224L130.017 11.2776C128.401 10.5295 126.624 10.2 124.757 10.2V16.2ZM127.538 16.7414C128.214 17.0417 128.621 17.4146 128.891 17.8331L133.934 14.5829C132.967 13.0814 131.603 11.9822 129.975 11.2586L127.538 16.7414ZM128.934 17.898C129.192 18.2769 129.373 18.7797 129.373 19.536H135.373C135.373 17.7323 134.913 16.0165 133.891 14.518L128.934 17.898ZM129.373 19.536C129.373 20.291 129.192 20.8179 128.916 21.2319L133.909 24.5601C134.913 23.0541 135.373 21.341 135.373 19.536H129.373ZM128.891 21.2709C128.614 21.7008 128.192 22.0916 127.496 22.4136L130.017 27.8584C131.625 27.1137 132.974 26.0112 133.934 24.5211L128.891 21.2709ZM127.538 22.3946C126.839 22.7053 125.934 22.904 124.757 22.904V28.904C126.608 28.904 128.37 28.5907 129.975 27.8774L127.538 22.3946ZM188.493 50.576L191.474 50.9094L191.847 47.576H188.493V50.576ZM184.909 59.184L187.238 61.075L187.238 61.075L184.909 59.184ZM176.941 65.008L178.092 67.7783L178.1 67.7751L178.108 67.7719L176.941 65.008ZM154.125 64.624L152.844 67.3369L152.851 67.34L154.125 64.624ZM146.093 57.808L143.572 59.434L143.579 59.4446L143.586 59.4552L146.093 57.808ZM146.093 37.68L143.58 36.0412L143.577 36.0457L146.093 37.68ZM154.125 30.832L155.406 33.5449L155.413 33.5415L154.125 30.832ZM176.941 30.448L175.774 33.2119L175.782 33.2151L175.79 33.2183L176.941 30.448ZM184.909 36.272L182.572 38.1533L182.58 38.163L184.909 36.272ZM188.493 44.88V47.88H191.847L191.474 44.5466L188.493 44.88ZM175.501 44.88L172.564 45.4907L173.061 47.88H175.501V44.88ZM172.269 39.888L170.549 42.3457L170.559 42.353L170.569 42.3601L172.269 39.888ZM160.909 39.216L159.536 36.5486L159.528 36.5527L159.52 36.557L160.909 39.216ZM157.581 42.512L154.946 41.0782L154.938 41.0932L154.93 41.1083L157.581 42.512ZM158.989 54.832L156.881 56.9666L156.894 56.9799L156.908 56.993L158.989 54.832ZM172.237 55.504L173.978 57.9473L173.984 57.9432L172.237 55.504ZM175.501 50.576V47.576H173.086L172.57 49.9349L175.501 50.576ZM185.512 50.2426C185.212 52.9232 184.239 55.2499 182.58 57.293L187.238 61.075C189.632 58.1261 191.049 54.7141 191.474 50.9094L185.512 50.2426ZM182.58 57.293C180.896 59.3669 178.657 61.0275 175.774 62.2441L178.108 67.7719C181.796 66.2152 184.869 63.9931 187.238 61.075L182.58 57.293ZM175.79 62.2377C172.913 63.4333 169.663 64.056 165.997 64.056V70.056C170.353 70.056 174.398 69.3134 178.092 67.7783L175.79 62.2377ZM165.997 64.056C161.905 64.056 158.395 63.3134 155.399 61.908L152.851 67.34C156.767 69.1773 161.171 70.056 165.997 70.056V64.056ZM155.406 61.9111C152.426 60.5043 150.191 58.5826 148.6 56.1608L143.586 59.4552C145.835 62.8787 148.955 65.501 152.844 67.3369L155.406 61.9111ZM148.614 56.182C147.053 53.7607 146.245 50.9741 146.245 47.728H140.245C140.245 52.0339 141.336 55.9673 143.572 59.434L148.614 56.182ZM146.245 47.728C146.245 44.4816 147.053 41.7098 148.609 39.3143L143.577 36.0457C141.336 39.4955 140.245 43.4223 140.245 47.728H146.245ZM148.606 39.3188C150.198 36.8775 152.431 34.949 155.406 33.5449L152.844 28.1191C148.949 29.9576 145.828 32.5945 143.58 36.0412L148.606 39.3188ZM155.413 33.5415C158.405 32.1192 161.911 31.368 165.997 31.368V25.368C161.166 25.368 156.757 26.2594 152.837 28.1225L155.413 33.5415ZM165.997 31.368C169.657 31.368 172.902 31.9993 175.774 33.2119L178.108 27.6841C174.41 26.1233 170.358 25.368 165.997 25.368V31.368ZM175.79 33.2183C178.66 34.4109 180.891 36.0652 182.572 38.1533L187.246 34.3907C184.874 31.4442 181.793 29.2157 178.092 27.6777L175.79 33.2183ZM182.58 38.163C184.239 40.2061 185.212 42.5328 185.512 45.2134L191.474 44.5466C191.049 40.7419 189.632 37.3299 187.238 34.381L182.58 38.163ZM188.493 41.88H175.501V47.88H188.493V41.88ZM178.438 44.2693C177.844 41.4101 176.355 39.0564 173.969 37.4159L170.569 42.3601C171.597 43.0663 172.262 44.0406 172.564 45.4907L178.438 44.2693ZM173.989 37.4303C171.689 35.8204 168.969 35.096 165.997 35.096V41.096C167.975 41.096 169.435 41.5663 170.549 42.3457L173.989 37.4303ZM165.997 35.096C163.668 35.096 161.485 35.5455 159.536 36.5486L162.282 41.8834C163.234 41.3931 164.443 41.096 165.997 41.096V35.096ZM159.52 36.557C157.549 37.5863 156.012 39.1179 154.946 41.0782L160.216 43.9458C160.728 43.0048 161.41 42.339 162.298 41.875L159.52 36.557ZM154.93 41.1083C153.885 43.0815 153.429 45.3251 153.429 47.728H159.429C159.429 46.0775 159.741 44.8439 160.232 43.9157L154.93 41.1083ZM153.429 47.728C153.429 51.3514 154.459 54.5746 156.881 56.9666L161.097 52.6974C160.106 51.7188 159.429 50.206 159.429 47.728H153.429ZM156.908 56.993C159.316 59.3119 162.463 60.328 165.997 60.328V54.328C163.643 54.328 162.118 53.6801 161.07 52.671L156.908 56.993ZM165.997 60.328C168.965 60.328 171.68 59.5843 173.978 57.9473L170.496 53.0607C169.38 53.8557 167.936 54.328 165.997 54.328V60.328ZM173.984 57.9432C176.306 56.2802 177.823 54.0013 178.432 51.2171L172.57 49.9349C172.283 51.2467 171.624 52.2531 170.49 53.0648L173.984 57.9432ZM175.501 53.576H188.493V47.576H175.501V53.576ZM212.571 51.44V48.44H207.882L209.847 52.6972L212.571 51.44ZM217.115 55.92L215.795 58.614L215.806 58.6193L215.817 58.6246L217.115 55.92ZM240.507 53.392H243.507V48.1287L238.978 50.8107L240.507 53.392ZM240.507 61.712L242.185 64.1985L243.507 63.3065V61.712H240.507ZM231.835 65.68L231.013 62.7947L231.013 62.7947L231.835 65.68ZM209.595 64.624L208.32 67.3396L208.327 67.3428L208.334 67.3459L209.595 64.624ZM201.371 57.744L203.859 56.0674L203.859 56.0674L201.371 57.744ZM201.243 37.584L198.736 35.9368L198.731 35.9432L198.727 35.9497L201.243 37.584ZM209.179 30.8L210.465 33.5102L210.472 33.5069L210.479 33.5035L209.179 30.8ZM231.707 31.216L230.153 33.7823L230.16 33.7862L230.166 33.79L231.707 31.216ZM238.907 39.248L236.201 40.543L236.206 40.553L236.211 40.5629L238.907 39.248ZM241.435 51.44V54.44H244.435V51.44H241.435ZM215.163 39.216L216.874 41.6801L216.881 41.6753L215.163 39.216ZM211.995 43.568L209.133 42.6694L207.909 46.568H211.995V43.568ZM229.275 43.568V46.568H233.35L232.14 42.6768L229.275 43.568ZM226.203 39.152L224.432 41.5735L224.452 41.5884L224.473 41.6029L226.203 39.152ZM209.847 52.6972C211.064 55.3347 213.116 57.3011 215.795 58.614L218.435 53.226C216.848 52.4482 215.87 51.428 215.295 50.1828L209.847 52.6972ZM215.817 58.6246C218.476 59.9012 221.644 60.456 225.179 60.456V54.456C222.229 54.456 220.02 53.9868 218.413 53.2154L215.817 58.6246ZM225.179 60.456C228.132 60.456 231.067 60.0689 233.977 59.3006L232.445 53.4994C230.022 54.1391 227.602 54.456 225.179 54.456V60.456ZM233.977 59.3006C236.89 58.5315 239.582 57.4266 242.036 55.9733L238.978 50.8107C237.038 51.9601 234.865 52.8605 232.445 53.4994L233.977 59.3006ZM237.507 53.392V61.712H243.507V53.392H237.507ZM238.829 59.2255C236.553 60.7618 233.956 61.9569 231.013 62.7947L232.657 68.5653C236.157 67.5685 239.341 66.1182 242.185 64.1985L238.829 59.2255ZM231.013 62.7947C228.085 63.6286 224.908 64.056 221.467 64.056V70.056C225.408 70.056 229.142 69.566 232.657 68.5653L231.013 62.7947ZM221.467 64.056C217.423 64.056 213.906 63.3154 210.856 61.9021L208.334 67.3459C212.281 69.1753 216.679 70.056 221.467 70.056V64.056ZM210.87 61.9084C207.817 60.475 205.513 58.5224 203.859 56.0674L198.883 59.4206C201.197 62.8536 204.376 65.4876 208.32 67.3396L210.87 61.9084ZM203.859 56.0674C202.234 53.6567 201.395 50.8687 201.395 47.6H195.395C195.395 51.9686 196.54 55.9433 198.883 59.4206L203.859 56.0674ZM201.395 47.6C201.395 44.3786 202.201 41.6166 203.759 39.2183L198.727 35.9497C196.488 39.3967 195.395 43.3121 195.395 47.6H201.395ZM203.75 39.2312C205.348 36.799 207.557 34.8908 210.465 33.5102L207.893 28.0898C204.06 29.9092 200.978 32.5236 198.736 35.9368L203.75 39.2312ZM210.479 33.5035C213.395 32.1012 216.739 31.368 220.571 31.368V25.368C215.955 25.368 211.705 26.2561 207.879 28.0965L210.479 33.5035ZM220.571 31.368C224.405 31.368 227.56 32.2124 230.153 33.7823L233.261 28.6497C229.582 26.4222 225.313 25.368 220.571 25.368V31.368ZM230.166 33.79C232.768 35.3477 234.777 37.5665 236.201 40.543L241.613 37.953C239.709 33.9748 236.918 30.839 233.248 28.642L230.166 33.79ZM236.211 40.5629C237.658 43.5307 238.435 47.1272 238.435 51.44H244.435C244.435 46.4088 243.527 41.8773 241.603 37.9331L236.211 40.5629ZM241.435 48.44H212.571V54.44H241.435V48.44ZM220.859 34.584C218.117 34.584 215.591 35.2572 213.445 36.7567L216.881 41.6753C217.849 40.9988 219.121 40.584 220.859 40.584V34.584ZM213.452 36.7519C211.353 38.2097 209.902 40.219 209.133 42.6694L214.857 44.4666C215.24 43.2476 215.901 42.3557 216.874 41.6801L213.452 36.7519ZM211.995 46.568H229.275V40.568H211.995V46.568ZM232.14 42.6768C231.373 40.2138 229.994 38.1557 227.933 36.7011L224.473 41.6029C225.314 42.1963 225.982 43.0822 226.41 44.4592L232.14 42.6768ZM227.974 36.7305C225.932 35.2374 223.496 34.584 220.859 34.584V40.584C222.489 40.584 223.615 40.9759 224.432 41.5735L227.974 36.7305ZM293.267 61.168L291.014 59.1872L291.008 59.1943L291.002 59.2013L293.267 61.168ZM285.971 65.584L286.856 68.4505L286.865 68.4478L286.873 68.445L285.971 65.584ZM262.611 65.392L261.689 68.2468L261.694 68.2485L262.611 65.392ZM254.547 60.72L252.381 62.7952L252.386 62.8009L252.392 62.8066L254.547 60.72ZM251.443 53.712V50.712H248.294L248.447 53.857L251.443 53.712ZM264.723 53.712L267.608 52.8878L266.986 50.712H264.723V53.712ZM268.019 57.168L266.77 59.8957L266.782 59.9013L268.019 57.168ZM281.043 57.616L279.975 54.8125L279.968 54.8154L279.96 54.8183L281.043 57.616ZM282.387 53.968L280.444 56.2538L280.505 56.3057L280.569 56.3543L282.387 53.968ZM280.275 53.104L279.563 56.0182L279.6 56.0273L279.638 56.0355L280.275 53.104ZM276.307 52.56L276.534 49.5686L276.529 49.5682L276.307 52.56ZM269.843 52.08L269.618 55.0716L269.621 55.0718L269.843 52.08ZM256.467 48.528L254.727 50.9718L254.727 50.9718L256.467 48.528ZM254.995 33.936L252.787 31.9054L252.786 31.9065L254.995 33.936ZM262.195 29.776L263.048 32.6522L263.057 32.6495L263.066 32.6467L262.195 29.776ZM283.987 29.968L283.044 32.8159L283.05 32.8178L283.987 29.968ZM291.731 34.448L289.61 36.5693L289.616 36.5752L289.621 36.581L291.731 34.448ZM295.059 41.072V44.072H298.411L298.041 40.7407L295.059 41.072ZM281.779 41.072L278.88 41.845L279.474 44.072H281.779V41.072ZM278.963 37.904L277.534 40.5419L277.534 40.5419L278.963 37.904ZM267.123 37.424L268.246 40.206L268.258 40.2011L268.27 40.196L267.123 37.424ZM266.451 41.328L265.051 43.9812L265.051 43.9812L266.451 41.328ZM270.643 42.16L270.869 39.1685L270.863 39.1681L270.643 42.16ZM279.123 42.8L278.897 45.7915L278.907 45.7922L279.123 42.8ZM289.011 44.656L290.083 41.8541L290.083 41.8541L289.011 44.656ZM294.259 48.4L291.768 50.072L291.773 50.0799L291.779 50.0879L294.259 48.4ZM292.827 54.064C292.827 56.1937 292.198 57.8398 291.014 59.1872L295.52 63.1488C297.749 60.6136 298.827 57.5237 298.827 54.064H292.827ZM291.002 59.2013C289.772 60.6175 287.873 61.8384 285.069 62.723L286.873 68.445C290.427 67.3243 293.391 65.6012 295.532 63.1347L291.002 59.2013ZM285.086 62.7175C282.27 63.5868 278.787 64.056 274.579 64.056V70.056C279.203 70.056 283.314 69.5439 286.856 68.4505L285.086 62.7175ZM274.579 64.056C270.294 64.056 266.625 63.5297 263.528 62.5355L261.694 68.2485C265.509 69.473 269.818 70.056 274.579 70.056V64.056ZM263.533 62.5372C260.433 61.536 258.216 60.197 256.702 58.6334L252.392 62.8066C254.76 65.2537 257.92 67.0293 261.689 68.2468L263.533 62.5372ZM256.713 58.6448C255.24 57.1065 254.53 55.4444 254.439 53.567L248.447 53.857C248.612 57.2703 249.971 60.2801 252.381 62.7952L256.713 58.6448ZM251.443 56.712H264.723V50.712H251.443V56.712ZM261.838 54.5362C262.565 57.0796 264.421 58.8204 266.77 59.8957L269.268 54.4403C268.075 53.8943 267.734 53.3311 267.608 52.8878L261.838 54.5362ZM266.782 59.9013C269.107 60.9529 271.945 61.384 275.123 61.384V55.384C272.413 55.384 270.515 55.0045 269.256 54.4347L266.782 59.9013ZM275.123 61.384C277.857 61.384 280.278 61.129 282.126 60.4137L279.96 54.8183C279.162 55.127 277.637 55.384 275.123 55.384V61.384ZM282.111 60.4195C283.057 60.0592 284.036 59.5151 284.799 58.6551C285.617 57.7335 286.059 56.5871 286.059 55.344H280.059C280.059 55.2527 280.076 55.1231 280.13 54.9799C280.185 54.8371 280.257 54.7339 280.311 54.6729C280.361 54.6166 280.38 54.6138 280.327 54.6473C280.272 54.6814 280.163 54.7411 279.975 54.8125L282.111 60.4195ZM286.059 55.344C286.059 53.8567 285.417 52.5054 284.205 51.5817L280.569 56.3543C280.46 56.2714 280.309 56.1173 280.195 55.8845C280.083 55.654 280.059 55.4533 280.059 55.344H286.059ZM284.33 51.6822C283.337 50.8378 282.049 50.4196 280.912 50.1725L279.638 56.0355C280.009 56.1161 280.254 56.1957 280.403 56.2566C280.56 56.3206 280.541 56.3364 280.444 56.2538L284.33 51.6822ZM280.987 50.1898C279.795 49.8984 278.286 49.7016 276.534 49.5686L276.08 55.5514C277.699 55.6744 278.835 55.8403 279.563 56.0182L280.987 50.1898ZM276.529 49.5682L270.065 49.0882L269.621 55.0718L276.085 55.5518L276.529 49.5682ZM270.068 49.0884C263.945 48.6287 260.179 47.4884 258.207 46.0842L254.727 50.9718C258.088 53.3649 263.24 54.5926 269.618 55.0716L270.068 49.0884ZM258.207 46.0842C256.34 44.7551 255.467 43.0679 255.467 40.72H249.467C249.467 44.9854 251.26 48.5035 254.727 50.9718L258.207 46.0842ZM255.467 40.72C255.467 38.7189 256.07 37.2007 257.204 35.9655L252.786 31.9065C250.55 34.3406 249.467 37.3451 249.467 40.72H255.467ZM257.203 35.9666C258.454 34.6069 260.332 33.4577 263.048 32.6522L261.342 26.8998C257.872 27.9289 254.95 29.5531 252.787 31.9054L257.203 35.9666ZM263.066 32.6467C265.81 31.8143 269.13 31.368 273.075 31.368V25.368C268.7 25.368 264.767 25.8604 261.324 26.9053L263.066 32.6467ZM273.075 31.368C276.868 31.368 280.179 31.8674 283.044 32.8159L284.93 27.1201C281.352 25.9353 277.388 25.368 273.075 25.368V31.368ZM283.05 32.8178C285.958 33.7745 288.096 35.0558 289.61 36.5693L293.852 32.3267C291.526 30.0001 288.501 28.2948 284.924 27.1182L283.05 32.8178ZM289.621 36.581C291.12 38.063 291.883 39.6511 292.077 41.4033L298.041 40.7407C297.681 37.5009 296.225 34.673 293.841 32.315L289.621 36.581ZM295.059 38.072H281.779V44.072H295.059V38.072ZM284.678 40.299C284.062 37.99 282.411 36.3601 280.392 35.2661L277.534 40.5419C278.587 41.1119 278.813 41.594 278.88 41.845L284.678 40.299ZM280.392 35.2661C278.23 34.095 275.492 33.656 272.467 33.656V39.656C275.031 39.656 276.624 40.049 277.534 40.5419L280.392 35.2661ZM272.467 33.656C269.995 33.656 267.751 33.9174 265.976 34.6519L268.27 40.196C268.969 39.9066 270.288 39.656 272.467 39.656V33.656ZM266 34.6419C264.227 35.3577 262.299 36.874 262.299 39.536H268.299C268.299 39.6448 268.28 39.7875 268.222 39.9414C268.165 40.0946 268.088 40.2086 268.025 40.2809C267.916 40.4071 267.91 40.3415 268.246 40.206L266 34.6419ZM262.299 39.536C262.299 40.4395 262.526 41.3627 263.063 42.1983C263.591 43.0186 264.311 43.5907 265.051 43.9812L267.851 38.6748C267.823 38.66 267.967 38.7307 268.111 38.9537C268.264 39.1919 268.299 39.4218 268.299 39.536H262.299ZM265.051 43.9812C266.426 44.707 268.392 45.0023 270.423 45.1519L270.863 39.1681C269.925 39.099 269.199 39.0046 268.659 38.8974C268.391 38.8443 268.191 38.7922 268.047 38.7468C267.899 38.7002 267.844 38.671 267.851 38.6748L265.051 43.9812ZM270.417 45.1515L278.897 45.7915L279.349 39.8085L270.869 39.1685L270.417 45.1515ZM278.907 45.7922C282.901 46.0805 285.871 46.6668 287.939 47.4579L290.083 41.8541C287.244 40.7678 283.622 40.1169 279.339 39.8078L278.907 45.7922ZM287.939 47.4579C290.038 48.2612 291.181 49.1974 291.768 50.072L296.75 46.728C295.246 44.4879 292.89 42.9281 290.083 41.8541L287.939 47.4579ZM291.779 50.0879C292.421 51.0315 292.827 52.3003 292.827 54.064H298.827C298.827 51.3477 298.188 48.8405 296.739 46.7121L291.779 50.0879Z" fill="#F6007A" mask="url(#path-1-outside-1_5043_571)"></path></svg>